SplineFontDB: 3.2
FontName: ZvvnMod
FullName: ZvvnMod
FamilyName: Mongolian
Weight: Regular
Copyright: Copyright (c) 2020, zorigt
UComments: "2020-7-28: Created with FontForge (http://fontforge.org)"
Version: 001.000
ItalicAngle: 0
UnderlinePosition: -205
UnderlineWidth: 102
Ascent: 1638
Descent: 410
InvalidEm: 0
LayerCount: 2
Layer: 0 1 "Back" 1
Layer: 1 1 "Fore" 0
XUID: [1021 544 -1892048230 1922997]
FSType: 0
OS2Version: 3
OS2_WeightWidthSlopeOnly: 0
OS2_UseTypoMetrics: 0
CreationTime: 1595937272
ModificationTime: 1597021180
PfmFamily: 17
TTFWeight: 400
TTFWidth: 5
LineGap: 205
VLineGap: 0
OS2TypoAscent: 1432
OS2TypoAOffset: 0
OS2TypoDescent: -428
OS2TypoDOffset: 0
OS2TypoLinegap: 205
OS2WinAscent: 1855
OS2WinAOffset: 0
OS2WinDescent: 512
OS2WinDOffset: 0
HheadAscent: 1432
HheadAOffset: 0
HheadDescent: -428
HheadDOffset: 0
OS2SubXSize: 1434
OS2SubYSize: 1331
OS2SubXOff: 0
OS2SubYOff: 287
OS2SupXSize: 1434
OS2SupYSize: 1331
OS2SupXOff: 0
OS2SupYOff: 977
OS2StrikeYSize: 102
OS2StrikeYPos: 498
OS2CapHeight: 1356
OS2XHeight: 924
OS2Vendor: '    '
MarkAttachClasses: 1
DEI: 91125
LangName: 1033
Encoding: UnicodeBmp
UnicodeInterp: none
NameList: AGL For New Fonts
DisplaySize: -48
AntiAlias: 1
FitToEm: 0
WinInfo: 57228 38 13
BeginPrivate: 0
EndPrivate
TeXData: 1 0 0 290304 145152 96768 468992 -1048576 96768 783286 444596 497025 792723 393216 433062 380633 303038 157286 324010 404750 52429 2506097 1059062 262144
BeginChars: 65536 484

StartChar: uniE000
Encoding: 57344 57344 0
Width: 1740
Flags: W
LayerCount: 2
Fore
SplineSet
596 670 m 5,0,1
 594 572 594 572 580.5 473.5 c 132,-1,2
 567 375 567 375 551 272 c 5,3,-1
 504 262 l 5,4,5
 477 315 477 315 459.5 382 c 132,-1,6
 442 449 442 449 430 513.5 c 132,-1,7
 418 578 418 578 412 631 c 132,-1,8
 406 684 406 684 406 709 c 6,9,-1
 406 899 l 6,10,11
 406 950 406 950 394.5 983 c 132,-1,12
 383 1016 383 1016 354 1016 c 4,13,14
 334 1016 334 1016 316.5 1012 c 132,-1,15
 299 1008 299 1008 284.5 1000.5 c 132,-1,16
 270 993 270 993 256 986 c 132,-1,17
 242 979 242 979 221 963 c 4,18,19
 192 943 192 943 174 926 c 132,-1,20
 156 909 156 909 147 909 c 5,21,22
 133 923 133 923 122 938.5 c 132,-1,23
 111 954 111 954 111 967 c 5,24,25
 125 981 125 981 142.5 1003.5 c 132,-1,26
 160 1026 160 1026 176 1044 c 4,27,28
 262 1140 262 1140 323.5 1185.5 c 132,-1,29
 385 1231 385 1231 428 1231 c 4,30,31
 487 1231 487 1231 519 1174.5 c 132,-1,32
 551 1118 551 1118 551 1026 c 6,33,-1
 551 899 l 5,34,-1
 881 899 l 5,35,-1
 881 762 l 6,36,37
 881 715 881 715 898 654.5 c 132,-1,38
 915 594 915 594 942 535.5 c 132,-1,39
 969 477 969 477 995.5 431 c 132,-1,40
 1022 385 1022 385 1047 365 c 5,41,42
 1041 383 1041 383 1040 416 c 4,43,44
 1040 436 1040 436 1042 463 c 4,45,46
 1048 526 1048 526 1077 655 c 132,-1,47
 1106 784 1106 784 1193 1002.5 c 132,-1,48
 1280 1221 1280 1221 1320 1370.5 c 132,-1,49
 1360 1520 1360 1520 1360 1561 c 4,50,51
 1360 1588 1360 1588 1354 1620.5 c 132,-1,52
 1348 1653 1348 1653 1341.5 1687.5 c 132,-1,53
 1335 1722 1335 1722 1329 1752 c 132,-1,54
 1323 1782 1323 1782 1323 1790 c 4,55,56
 1323 1825 1323 1825 1332 1840 c 132,-1,57
 1341 1855 1341 1855 1366 1855 c 4,58,59
 1372 1855 1372 1855 1385.5 1838 c 132,-1,60
 1399 1821 1399 1821 1413 1796 c 4,61,62
 1444 1739 1444 1739 1467.5 1692 c 132,-1,63
 1491 1645 1491 1645 1513.5 1597.5 c 132,-1,64
 1536 1550 1536 1550 1560.5 1501 c 132,-1,65
 1585 1452 1585 1452 1616 1395 c 5,66,67
 1524 1276 1524 1276 1459.5 1183 c 132,-1,68
 1395 1090 1395 1090 1326 919 c 132,-1,69
 1257 748 1257 748 1201 545 c 132,-1,70
 1145 342 1145 342 1145 145 c 5,71,72
 1073 182 1073 182 1012.5 245.5 c 132,-1,73
 952 309 952 309 906 383 c 132,-1,74
 860 457 860 457 830.5 532.5 c 132,-1,75
 801 608 801 608 797 670 c 5,76,-1
 596 670 l 5,0,1
EndSplineSet
EndChar

StartChar: uniE001
Encoding: 57345 57345 1
Width: 1198
Flags: W
LayerCount: 2
Fore
SplineSet
532 670 m 1,0,1
 530 572 530 572 518 473.5 c 128,-1,2
 506 375 506 375 487 272 c 1,3,-1
 440 262 l 1,4,5
 413 315 413 315 397 382 c 128,-1,6
 381 449 381 449 367.5 513.5 c 128,-1,7
 354 578 354 578 348 631 c 128,-1,8
 342 684 342 684 342 709 c 2,9,-1
 342 899 l 2,10,11
 342 950 342 950 330.5 983 c 128,-1,12
 319 1016 319 1016 291 1016 c 0,13,14
 271 1016 271 1016 254.5 1012 c 128,-1,15
 238 1008 238 1008 223.5 1000.5 c 128,-1,16
 209 993 209 993 193.5 986 c 128,-1,17
 178 979 178 979 158 963 c 0,18,19
 129 943 129 943 110.5 926 c 128,-1,20
 92 909 92 909 84 909 c 1,21,22
 70 923 70 923 58.5 938.5 c 128,-1,23
 47 954 47 954 47 967 c 1,24,25
 61 981 61 981 78.5 1003.5 c 128,-1,26
 96 1026 96 1026 115 1044 c 0,27,28
 201 1140 201 1140 261.5 1185.5 c 128,-1,29
 322 1231 322 1231 365 1231 c 0,30,31
 424 1231 424 1231 455.5 1174.5 c 128,-1,32
 487 1118 487 1118 487 1026 c 2,33,-1
 487 899 l 1,34,-1
 905 899 l 2,35,36
 1032 899 1032 899 1095.5 785.5 c 128,-1,37
 1159 672 1159 672 1159 438 c 2,38,-1
 1159 23 l 2,39,40
 1159 -63 1159 -63 1143.5 -128 c 128,-1,41
 1128 -193 1128 -193 1097.5 -241 c 128,-1,42
 1067 -289 1067 -289 1021 -322.5 c 128,-1,43
 975 -356 975 -356 918 -383 c 0,44,45
 883 -397 883 -397 863.5 -409.5 c 128,-1,46
 844 -422 844 -422 828.5 -435.5 c 128,-1,47
 813 -449 813 -449 803 -466 c 128,-1,48
 793 -483 793 -483 780 -512 c 1,49,-1
 758 -512 l 1,50,-1
 823 -225 l 1,51,52
 837 -221 837 -221 850.5 -217 c 128,-1,53
 864 -213 864 -213 880.5 -209 c 128,-1,54
 897 -205 897 -205 914.5 -194.5 c 128,-1,55
 932 -184 932 -184 956 -170 c 0,56,57
 970 -162 970 -162 991 -148.5 c 128,-1,58
 1012 -135 1012 -135 1028 -112.5 c 128,-1,59
 1044 -90 1044 -90 1055.5 -57.5 c 128,-1,60
 1067 -25 1067 -25 1067 23 c 2,61,-1
 1067 438 l 2,62,63
 1067 553 1067 553 1024 611.5 c 128,-1,64
 981 670 981 670 905 670 c 2,65,-1
 532 670 l 1,0,1
EndSplineSet
EndChar

StartChar: uniE002
Encoding: 57346 57346 2
Width: 1429
Flags: W
LayerCount: 2
Fore
SplineSet
569 670 m 1,0,1
 567 572 567 572 554 473.5 c 128,-1,2
 541 375 541 375 524 272 c 1,3,-1
 477 262 l 1,4,5
 450 315 450 315 433 382 c 128,-1,6
 416 449 416 449 402.5 513.5 c 128,-1,7
 389 578 389 578 384 631 c 128,-1,8
 379 684 379 684 379 709 c 2,9,-1
 379 899 l 2,10,11
 379 950 379 950 366.5 983 c 128,-1,12
 354 1016 354 1016 328 1016 c 0,13,14
 308 1016 308 1016 290 1012 c 128,-1,15
 272 1008 272 1008 258 1000.5 c 128,-1,16
 244 993 244 993 228.5 986 c 128,-1,17
 213 979 213 979 195 963 c 0,18,19
 166 943 166 943 147.5 926 c 128,-1,20
 129 909 129 909 121 909 c 1,21,22
 107 923 107 923 95.5 938.5 c 128,-1,23
 84 954 84 954 84 967 c 1,24,25
 98 981 98 981 115.5 1003.5 c 128,-1,26
 133 1026 133 1026 150 1044 c 0,27,28
 236 1140 236 1140 297 1185.5 c 128,-1,29
 358 1231 358 1231 401 1231 c 0,30,31
 460 1231 460 1231 492 1174.5 c 128,-1,32
 524 1118 524 1118 524 1026 c 2,33,-1
 524 899 l 1,34,-1
 774 899 l 1,35,36
 790 1126 790 1126 861 1250 c 128,-1,37
 932 1374 932 1374 1057 1374 c 0,38,39
 1127 1374 1127 1374 1177 1327 c 128,-1,40
 1227 1280 1227 1280 1254.5 1204 c 128,-1,41
 1282 1128 1282 1128 1293.5 1034 c 128,-1,42
 1305 940 1305 940 1305 846 c 0,43,44
 1305 805 1305 805 1299.5 787.5 c 128,-1,45
 1294 770 1294 770 1278 770 c 0,46,47
 1266 770 1266 770 1257.5 787.5 c 128,-1,48
 1249 805 1249 805 1245 821 c 0,49,50
 1233 876 1233 876 1219.5 936.5 c 128,-1,51
 1206 997 1206 997 1186.5 1048.5 c 128,-1,52
 1167 1100 1167 1100 1135.5 1134.5 c 128,-1,53
 1104 1169 1104 1169 1055 1169 c 0,54,55
 998 1169 998 1169 956.5 1139.5 c 128,-1,56
 915 1110 915 1110 885.5 1058 c 128,-1,57
 856 1006 856 1006 841.5 937 c 128,-1,58
 827 868 827 868 827 793 c 0,59,60
 827 752 827 752 844.5 710 c 128,-1,61
 862 668 862 668 886.5 626 c 128,-1,62
 911 584 911 584 942 542 c 128,-1,63
 973 500 973 500 1001.5 464 c 128,-1,64
 1030 428 1030 428 1055.5 401.5 c 128,-1,65
 1081 375 1081 375 1096 360 c 1,66,-1
 1034 162 l 1,67,-1
 1016 162 l 1,68,69
 973 211 973 211 929 276.5 c 128,-1,70
 885 342 885 342 850 412.5 c 128,-1,71
 815 483 815 483 794.5 549.5 c 128,-1,72
 774 616 774 616 774 670 c 1,73,-1
 569 670 l 1,0,1
EndSplineSet
EndChar

StartChar: uniE003
Encoding: 57347 57347 3
Width: 1292
Flags: W
LayerCount: 2
Fore
SplineSet
813 670 m 1,0,-1
 813 498 l 2,1,2
 813 424 813 424 859 388 c 128,-1,3
 905 352 905 352 981 352 c 0,4,5
 1053 352 1053 352 1093 388 c 128,-1,6
 1133 424 1133 424 1133 498 c 2,7,-1
 1133 670 l 1,8,-1
 813 670 l 1,0,-1
532 670 m 1,9,10
 530 572 530 572 518 473.5 c 128,-1,11
 506 375 506 375 487 272 c 1,12,-1
 440 262 l 1,13,14
 413 315 413 315 397 382 c 128,-1,15
 381 449 381 449 367.5 513.5 c 128,-1,16
 354 578 354 578 348 631 c 128,-1,17
 342 684 342 684 342 709 c 2,18,-1
 342 899 l 2,19,20
 342 950 342 950 330.5 983 c 128,-1,21
 319 1016 319 1016 291 1016 c 0,22,23
 271 1016 271 1016 254.5 1012 c 128,-1,24
 238 1008 238 1008 223.5 1000.5 c 128,-1,25
 209 993 209 993 193.5 986 c 128,-1,26
 178 979 178 979 158 963 c 0,27,28
 129 943 129 943 110.5 926 c 128,-1,29
 92 909 92 909 84 909 c 1,30,31
 70 923 70 923 58.5 938.5 c 128,-1,32
 47 954 47 954 47 967 c 1,33,34
 61 981 61 981 78.5 1003.5 c 128,-1,35
 96 1026 96 1026 115 1044 c 0,36,37
 201 1140 201 1140 261.5 1185.5 c 128,-1,38
 322 1231 322 1231 365 1231 c 0,39,40
 424 1231 424 1231 455.5 1174.5 c 128,-1,41
 487 1118 487 1118 487 1026 c 2,42,-1
 487 899 l 1,43,-1
 1202 899 l 1,44,-1
 1202 498 l 2,45,46
 1202 344 1202 344 1148 258 c 128,-1,47
 1094 172 1094 172 979 172 c 0,48,49
 864 172 864 172 806 258 c 128,-1,50
 748 344 748 344 748 498 c 2,51,-1
 748 670 l 1,52,-1
 532 670 l 1,9,10
EndSplineSet
EndChar

StartChar: uniE004
Encoding: 57348 57348 4
Width: 1699
Flags: W
LayerCount: 2
Fore
SplineSet
813 670 m 5,0,-1
 813 498 l 6,1,2
 813 424 813 424 859 388 c 132,-1,3
 905 352 905 352 981 352 c 4,4,5
 1053 352 1053 352 1093 388 c 132,-1,6
 1133 424 1133 424 1133 498 c 6,7,-1
 1133 670 l 5,8,-1
 813 670 l 5,0,-1
1202 670 m 5,9,-1
 1202 498 l 6,10,11
 1202 344 1202 344 1148 258 c 132,-1,12
 1094 172 1094 172 979 172 c 4,13,14
 864 172 864 172 806 258 c 132,-1,15
 748 344 748 344 748 498 c 6,16,-1
 748 670 l 5,17,-1
 532 670 l 5,18,19
 530 572 530 572 518 473.5 c 132,-1,20
 506 375 506 375 487 272 c 5,21,-1
 440 262 l 5,22,23
 413 315 413 315 397 382 c 132,-1,24
 381 449 381 449 367.5 513.5 c 132,-1,25
 354 578 354 578 348 631 c 132,-1,26
 342 684 342 684 342 709 c 6,27,-1
 342 899 l 6,28,29
 342 950 342 950 330.5 983 c 132,-1,30
 319 1016 319 1016 291 1016 c 4,31,32
 271 1016 271 1016 254.5 1012 c 132,-1,33
 238 1008 238 1008 223.5 1000.5 c 132,-1,34
 209 993 209 993 193.5 986 c 132,-1,35
 178 979 178 979 158 963 c 4,36,37
 129 943 129 943 110.5 926 c 132,-1,38
 92 909 92 909 84 909 c 5,39,40
 70 923 70 923 58.5 938.5 c 132,-1,41
 47 954 47 954 47 967 c 5,42,43
 61 981 61 981 78.5 1003.5 c 132,-1,44
 96 1026 96 1026 115 1044 c 4,45,46
 201 1140 201 1140 261.5 1185.5 c 132,-1,47
 322 1231 322 1231 365 1231 c 4,48,49
 424 1231 424 1231 455.5 1174.5 c 132,-1,50
 487 1118 487 1118 487 1026 c 6,51,-1
 487 899 l 5,52,-1
 1427 899 l 5,53,54
 1519 893 1519 893 1572.5 822.5 c 132,-1,55
 1626 752 1626 752 1626 633 c 6,56,-1
 1626 512 l 6,57,58
 1626 440 1626 440 1601.5 396 c 132,-1,59
 1577 352 1577 352 1540 352 c 5,60,-1
 1540 375 l 6,61,62
 1540 510 1540 510 1489 588 c 132,-1,63
 1438 666 1438 666 1339 670 c 5,64,-1
 1202 670 l 5,9,-1
EndSplineSet
EndChar

StartChar: uniE005
Encoding: 57349 57349 5
Width: 1099
Flags: W
LayerCount: 2
Fore
SplineSet
532 670 m 5,0,1
 530 572 530 572 518 473.5 c 132,-1,2
 506 375 506 375 487 272 c 5,3,-1
 440 262 l 5,4,5
 413 315 413 315 397 382 c 132,-1,6
 381 449 381 449 367.5 513.5 c 132,-1,7
 354 578 354 578 348 631 c 132,-1,8
 342 684 342 684 342 709 c 6,9,-1
 342 899 l 6,10,11
 342 950 342 950 330.5 983 c 132,-1,12
 319 1016 319 1016 291 1016 c 4,13,14
 271 1016 271 1016 254.5 1012 c 132,-1,15
 238 1008 238 1008 223.5 1000.5 c 132,-1,16
 209 993 209 993 193.5 986 c 132,-1,17
 178 979 178 979 158 963 c 4,18,19
 129 943 129 943 110.5 926 c 132,-1,20
 92 909 92 909 84 909 c 5,21,22
 70 923 70 923 58.5 938.5 c 132,-1,23
 47 954 47 954 47 967 c 5,24,25
 61 981 61 981 78.5 1003.5 c 132,-1,26
 96 1026 96 1026 115 1044 c 4,27,28
 201 1140 201 1140 261.5 1185.5 c 132,-1,29
 322 1231 322 1231 365 1231 c 4,30,31
 424 1231 424 1231 455.5 1174.5 c 132,-1,32
 487 1118 487 1118 487 1026 c 6,33,-1
 487 899 l 5,34,-1
 1200 899 l 5,35,-1
 1200 670 l 5,36,-1
 938 670 l 5,37,38
 936 639 936 639 930 585.5 c 132,-1,39
 924 532 924 532 917.5 473 c 132,-1,40
 911 414 911 414 904 360.5 c 132,-1,41
 897 307 897 307 887 276 c 5,42,-1
 842 260 l 5,43,44
 801 354 801 354 778.5 458.5 c 132,-1,45
 756 563 756 563 748 670 c 5,46,-1
 532 670 l 5,0,1
EndSplineSet
EndChar

StartChar: uniE006
Encoding: 57350 57350 6
Width: 698
Flags: W
LayerCount: 2
Fore
SplineSet
532 670 m 5,0,1
 530 572 530 572 518 473.5 c 132,-1,2
 506 375 506 375 487 272 c 5,3,-1
 440 262 l 5,4,5
 413 315 413 315 397 382 c 132,-1,6
 381 449 381 449 367.5 513.5 c 132,-1,7
 354 578 354 578 348 631 c 132,-1,8
 342 684 342 684 342 709 c 6,9,-1
 342 899 l 6,10,11
 342 950 342 950 330.5 983 c 132,-1,12
 319 1016 319 1016 291 1016 c 4,13,14
 271 1016 271 1016 254.5 1012 c 132,-1,15
 238 1008 238 1008 223.5 1000.5 c 132,-1,16
 209 993 209 993 193.5 986 c 132,-1,17
 178 979 178 979 158 963 c 4,18,19
 129 943 129 943 110.5 926 c 132,-1,20
 92 909 92 909 84 909 c 5,21,22
 70 923 70 923 58.5 938.5 c 132,-1,23
 47 954 47 954 47 967 c 5,24,25
 61 981 61 981 78.5 1003.5 c 132,-1,26
 96 1026 96 1026 115 1044 c 4,27,28
 201 1140 201 1140 261.5 1185.5 c 132,-1,29
 322 1231 322 1231 365 1231 c 4,30,31
 424 1231 424 1231 455.5 1174.5 c 132,-1,32
 487 1118 487 1118 487 1026 c 6,33,-1
 487 899 l 5,34,-1
 801 899 l 5,35,-1
 801 670 l 5,36,-1
 532 670 l 5,0,1
EndSplineSet
EndChar

StartChar: uniE007
Encoding: 57351 57351 7
Width: 1198
Flags: W
LayerCount: 2
Fore
SplineSet
532 670 m 5,0,1
 530 572 530 572 518 473.5 c 132,-1,2
 506 375 506 375 487 272 c 5,3,-1
 440 262 l 5,4,5
 413 315 413 315 397 382 c 132,-1,6
 381 449 381 449 367.5 513.5 c 132,-1,7
 354 578 354 578 348 631 c 132,-1,8
 342 684 342 684 342 709 c 6,9,-1
 342 899 l 6,10,11
 342 950 342 950 330.5 983 c 132,-1,12
 319 1016 319 1016 291 1016 c 4,13,14
 271 1016 271 1016 254.5 1012 c 132,-1,15
 238 1008 238 1008 223.5 1000.5 c 132,-1,16
 209 993 209 993 193.5 986 c 132,-1,17
 178 979 178 979 158 963 c 4,18,19
 129 943 129 943 110.5 926 c 132,-1,20
 92 909 92 909 84 909 c 5,21,22
 70 923 70 923 58.5 938.5 c 132,-1,23
 47 954 47 954 47 967 c 5,24,25
 61 981 61 981 78.5 1003.5 c 132,-1,26
 96 1026 96 1026 115 1044 c 4,27,28
 201 1140 201 1140 261.5 1185.5 c 132,-1,29
 322 1231 322 1231 365 1231 c 4,30,31
 424 1231 424 1231 455.5 1174.5 c 132,-1,32
 487 1118 487 1118 487 1026 c 6,33,-1
 487 899 l 5,34,-1
 1300 899 l 5,35,-1
 1300 670 l 5,36,-1
 827 670 l 5,37,-1
 1087 299 l 5,38,-1
 1087 266 l 5,39,-1
 1032 4 l 5,40,-1
 1004 4 l 5,41,-1
 739 670 l 5,42,-1
 532 670 l 5,0,1
EndSplineSet
EndChar

StartChar: uniE008
Encoding: 57352 57352 8
Width: 1298
Flags: W
LayerCount: 2
Fore
SplineSet
813 670 m 5,0,-1
 813 498 l 6,1,2
 813 424 813 424 859 388 c 132,-1,3
 905 352 905 352 981 352 c 4,4,5
 1053 352 1053 352 1093 388 c 132,-1,6
 1133 424 1133 424 1133 498 c 6,7,-1
 1133 670 l 5,8,-1
 813 670 l 5,0,-1
1202 670 m 5,9,-1
 1202 498 l 6,10,11
 1202 344 1202 344 1148 258 c 132,-1,12
 1094 172 1094 172 979 172 c 4,13,14
 864 172 864 172 806 258 c 132,-1,15
 748 344 748 344 748 498 c 6,16,-1
 748 670 l 5,17,-1
 532 670 l 5,18,19
 530 572 530 572 518 473.5 c 132,-1,20
 506 375 506 375 487 272 c 5,21,-1
 440 262 l 5,22,23
 413 315 413 315 397 382 c 132,-1,24
 381 449 381 449 367.5 513.5 c 132,-1,25
 354 578 354 578 348 631 c 132,-1,26
 342 684 342 684 342 709 c 6,27,-1
 342 899 l 6,28,29
 342 950 342 950 330.5 983 c 132,-1,30
 319 1016 319 1016 291 1016 c 4,31,32
 271 1016 271 1016 254.5 1012 c 132,-1,33
 238 1008 238 1008 223.5 1000.5 c 132,-1,34
 209 993 209 993 193.5 986 c 132,-1,35
 178 979 178 979 158 963 c 4,36,37
 129 943 129 943 110.5 926 c 132,-1,38
 92 909 92 909 84 909 c 5,39,40
 70 923 70 923 58.5 938.5 c 132,-1,41
 47 954 47 954 47 967 c 5,42,43
 61 981 61 981 78.5 1003.5 c 132,-1,44
 96 1026 96 1026 115 1044 c 4,45,46
 201 1140 201 1140 261.5 1185.5 c 132,-1,47
 322 1231 322 1231 365 1231 c 4,48,49
 424 1231 424 1231 455.5 1174.5 c 132,-1,50
 487 1118 487 1118 487 1026 c 6,51,-1
 487 899 l 5,52,-1
 1401 899 l 5,53,-1
 1401 670 l 5,54,-1
 1202 670 l 5,9,-1
EndSplineSet
EndChar

StartChar: uniE009
Encoding: 57353 57353 9
Width: 1798
Flags: W
LayerCount: 2
Fore
SplineSet
813 670 m 5,0,-1
 813 498 l 6,1,2
 813 424 813 424 859 388 c 132,-1,3
 905 352 905 352 981 352 c 4,4,5
 1053 352 1053 352 1093 388 c 132,-1,6
 1133 424 1133 424 1133 498 c 6,7,-1
 1133 670 l 5,8,-1
 813 670 l 5,0,-1
1202 670 m 5,9,-1
 1202 498 l 6,10,11
 1202 344 1202 344 1148 258 c 132,-1,12
 1094 172 1094 172 979 172 c 4,13,14
 864 172 864 172 806 258 c 132,-1,15
 748 344 748 344 748 498 c 6,16,-1
 748 670 l 5,17,-1
 532 670 l 5,18,19
 530 572 530 572 518 473.5 c 132,-1,20
 506 375 506 375 487 272 c 5,21,-1
 440 262 l 5,22,23
 413 315 413 315 397 382 c 132,-1,24
 381 449 381 449 367.5 513.5 c 132,-1,25
 354 578 354 578 348 631 c 132,-1,26
 342 684 342 684 342 709 c 6,27,-1
 342 899 l 6,28,29
 342 950 342 950 330.5 983 c 132,-1,30
 319 1016 319 1016 291 1016 c 4,31,32
 271 1016 271 1016 254.5 1012 c 132,-1,33
 238 1008 238 1008 223.5 1000.5 c 132,-1,34
 209 993 209 993 193.5 986 c 132,-1,35
 178 979 178 979 158 963 c 4,36,37
 129 943 129 943 110.5 926 c 132,-1,38
 92 909 92 909 84 909 c 5,39,40
 70 923 70 923 58.5 938.5 c 132,-1,41
 47 954 47 954 47 967 c 5,42,43
 61 981 61 981 78.5 1003.5 c 132,-1,44
 96 1026 96 1026 115 1044 c 4,45,46
 201 1140 201 1140 261.5 1185.5 c 132,-1,47
 322 1231 322 1231 365 1231 c 4,48,49
 424 1231 424 1231 455.5 1174.5 c 132,-1,50
 487 1118 487 1118 487 1026 c 6,51,-1
 487 899 l 5,52,-1
 1898 899 l 5,53,-1
 1898 670 l 5,54,-1
 1425 670 l 5,55,-1
 1686 299 l 5,56,-1
 1686 266 l 5,57,-1
 1630 4 l 5,58,-1
 1602 4 l 5,59,-1
 1337 670 l 5,60,-1
 1202 670 l 5,9,-1
EndSplineSet
EndChar

StartChar: uniE00A
Encoding: 57354 57354 10
Width: 1740
Flags: W
LayerCount: 2
Fore
SplineSet
520 -29 m 4,0,1
 520 -41 520 -41 511 -51 c 132,-1,2
 502 -61 502 -61 491.5 -72.5 c 132,-1,3
 481 -84 481 -84 465 -95 c 132,-1,4
 449 -106 449 -106 434 -123 c 4,5,6
 422 -139 422 -139 410.5 -153.5 c 132,-1,7
 399 -168 399 -168 391 -178 c 132,-1,8
 383 -188 383 -188 376 -194.5 c 132,-1,9
 369 -201 369 -201 358 -201 c 4,10,11
 338 -201 338 -201 322.5 -191.5 c 132,-1,12
 307 -182 307 -182 307 -156 c 4,13,14
 307 -127 307 -127 311 -104.5 c 132,-1,15
 315 -82 315 -82 326 -49 c 4,16,17
 332 -33 332 -33 342 -13.5 c 132,-1,18
 352 6 352 6 366.5 24.5 c 132,-1,19
 381 43 381 43 397.5 53 c 132,-1,20
 414 63 414 63 432 63 c 260,21,22
 450 63 450 63 477 41 c 4,23,24
 520 2 520 2 520 -29 c 4,0,1
596 670 m 1,25,26
 594 572 594 572 580.5 473.5 c 128,-1,27
 567 375 567 375 551 272 c 1,28,-1
 504 262 l 1,29,30
 477 315 477 315 459.5 382 c 128,-1,31
 442 449 442 449 430 513.5 c 128,-1,32
 418 578 418 578 412 631 c 128,-1,33
 406 684 406 684 406 709 c 2,34,-1
 406 899 l 2,35,36
 406 950 406 950 394.5 983 c 128,-1,37
 383 1016 383 1016 354 1016 c 0,38,39
 334 1016 334 1016 316.5 1012 c 128,-1,40
 299 1008 299 1008 284.5 1000.5 c 128,-1,41
 270 993 270 993 256 986 c 128,-1,42
 242 979 242 979 221 963 c 0,43,44
 192 943 192 943 174 926 c 128,-1,45
 156 909 156 909 147 909 c 1,46,47
 133 923 133 923 122 938.5 c 128,-1,48
 111 954 111 954 111 967 c 1,49,50
 125 981 125 981 142.5 1003.5 c 128,-1,51
 160 1026 160 1026 176 1044 c 0,52,53
 262 1140 262 1140 323.5 1185.5 c 128,-1,54
 385 1231 385 1231 428 1231 c 0,55,56
 487 1231 487 1231 519 1174.5 c 128,-1,57
 551 1118 551 1118 551 1026 c 2,58,-1
 551 899 l 1,59,-1
 881 899 l 1,60,-1
 881 762 l 2,61,62
 881 715 881 715 898 654.5 c 128,-1,63
 915 594 915 594 942 535.5 c 128,-1,64
 969 477 969 477 995.5 431 c 128,-1,65
 1022 385 1022 385 1047 365 c 1,66,67
 1041 383 1041 383 1040 416 c 0,68,69
 1040 436 1040 436 1042 463 c 0,70,71
 1048 526 1048 526 1077 655 c 128,-1,72
 1106 784 1106 784 1193 1002.5 c 128,-1,73
 1280 1221 1280 1221 1320 1370.5 c 128,-1,74
 1360 1520 1360 1520 1360 1561 c 0,75,76
 1360 1588 1360 1588 1354 1620.5 c 128,-1,77
 1348 1653 1348 1653 1341.5 1687.5 c 128,-1,78
 1335 1722 1335 1722 1329 1752 c 128,-1,79
 1323 1782 1323 1782 1323 1790 c 0,80,81
 1323 1825 1323 1825 1332 1840 c 128,-1,82
 1341 1855 1341 1855 1366 1855 c 0,83,84
 1372 1855 1372 1855 1385.5 1838 c 128,-1,85
 1399 1821 1399 1821 1413 1796 c 0,86,87
 1444 1739 1444 1739 1467.5 1692 c 128,-1,88
 1491 1645 1491 1645 1513.5 1597.5 c 128,-1,89
 1536 1550 1536 1550 1560.5 1501 c 128,-1,90
 1585 1452 1585 1452 1616 1395 c 1,91,92
 1524 1276 1524 1276 1459.5 1183 c 128,-1,93
 1395 1090 1395 1090 1326 919 c 128,-1,94
 1257 748 1257 748 1201 545 c 128,-1,95
 1145 342 1145 342 1145 145 c 1,96,97
 1073 182 1073 182 1012.5 245.5 c 128,-1,98
 952 309 952 309 906 383 c 128,-1,99
 860 457 860 457 830.5 532.5 c 128,-1,100
 801 608 801 608 797 670 c 1,101,-1
 596 670 l 1,25,26
EndSplineSet
EndChar

StartChar: uniE00B
Encoding: 57355 57355 11
Width: 1429
Flags: W
LayerCount: 2
Fore
SplineSet
520 -29 m 4,0,1
 520 -41 520 -41 511 -51 c 132,-1,2
 502 -61 502 -61 491.5 -72.5 c 132,-1,3
 481 -84 481 -84 465 -95 c 132,-1,4
 449 -106 449 -106 434 -123 c 4,5,6
 422 -139 422 -139 410.5 -153.5 c 132,-1,7
 399 -168 399 -168 391 -178 c 132,-1,8
 383 -188 383 -188 376 -194.5 c 132,-1,9
 369 -201 369 -201 358 -201 c 4,10,11
 338 -201 338 -201 322.5 -191.5 c 132,-1,12
 307 -182 307 -182 307 -156 c 4,13,14
 307 -127 307 -127 311 -104.5 c 132,-1,15
 315 -82 315 -82 326 -49 c 4,16,17
 332 -33 332 -33 342 -13.5 c 132,-1,18
 352 6 352 6 366.5 24.5 c 132,-1,19
 381 43 381 43 397.5 53 c 132,-1,20
 414 63 414 63 432 63 c 260,21,22
 450 63 450 63 477 41 c 4,23,24
 520 2 520 2 520 -29 c 4,0,1
569 670 m 1,25,26
 567 572 567 572 554 473.5 c 128,-1,27
 541 375 541 375 524 272 c 1,28,-1
 477 262 l 1,29,30
 450 315 450 315 433 382 c 128,-1,31
 416 449 416 449 402.5 513.5 c 128,-1,32
 389 578 389 578 384 631 c 128,-1,33
 379 684 379 684 379 709 c 2,34,-1
 379 899 l 2,35,36
 379 950 379 950 366.5 983 c 128,-1,37
 354 1016 354 1016 328 1016 c 0,38,39
 308 1016 308 1016 290 1012 c 128,-1,40
 272 1008 272 1008 258 1000.5 c 128,-1,41
 244 993 244 993 228.5 986 c 128,-1,42
 213 979 213 979 195 963 c 0,43,44
 166 943 166 943 147.5 926 c 128,-1,45
 129 909 129 909 121 909 c 1,46,47
 107 923 107 923 95.5 938.5 c 128,-1,48
 84 954 84 954 84 967 c 1,49,50
 98 981 98 981 115.5 1003.5 c 128,-1,51
 133 1026 133 1026 150 1044 c 0,52,53
 236 1140 236 1140 297 1185.5 c 128,-1,54
 358 1231 358 1231 401 1231 c 0,55,56
 460 1231 460 1231 492 1174.5 c 128,-1,57
 524 1118 524 1118 524 1026 c 2,58,-1
 524 899 l 1,59,-1
 774 899 l 1,60,61
 790 1126 790 1126 861 1250 c 128,-1,62
 932 1374 932 1374 1057 1374 c 0,63,64
 1127 1374 1127 1374 1177 1327 c 128,-1,65
 1227 1280 1227 1280 1254.5 1204 c 128,-1,66
 1282 1128 1282 1128 1293.5 1034 c 128,-1,67
 1305 940 1305 940 1305 846 c 0,68,69
 1305 805 1305 805 1299.5 787.5 c 128,-1,70
 1294 770 1294 770 1278 770 c 0,71,72
 1266 770 1266 770 1257.5 787.5 c 128,-1,73
 1249 805 1249 805 1245 821 c 0,74,75
 1233 876 1233 876 1219.5 936.5 c 128,-1,76
 1206 997 1206 997 1186.5 1048.5 c 128,-1,77
 1167 1100 1167 1100 1135.5 1134.5 c 128,-1,78
 1104 1169 1104 1169 1055 1169 c 0,79,80
 998 1169 998 1169 956.5 1139.5 c 128,-1,81
 915 1110 915 1110 885.5 1058 c 128,-1,82
 856 1006 856 1006 841.5 937 c 128,-1,83
 827 868 827 868 827 793 c 0,84,85
 827 752 827 752 844.5 710 c 128,-1,86
 862 668 862 668 886.5 626 c 128,-1,87
 911 584 911 584 942 542 c 128,-1,88
 973 500 973 500 1001.5 464 c 128,-1,89
 1030 428 1030 428 1055.5 401.5 c 128,-1,90
 1081 375 1081 375 1096 360 c 1,91,-1
 1034 162 l 1,92,-1
 1016 162 l 1,93,94
 973 211 973 211 929 276.5 c 128,-1,95
 885 342 885 342 850 412.5 c 128,-1,96
 815 483 815 483 794.5 549.5 c 128,-1,97
 774 616 774 616 774 670 c 1,98,-1
 569 670 l 1,25,26
EndSplineSet
EndChar

StartChar: uniE00C
Encoding: 57356 57356 12
Width: 1292
Flags: W
LayerCount: 2
Fore
SplineSet
520 -29 m 4,0,1
 520 -41 520 -41 511 -51 c 132,-1,2
 502 -61 502 -61 491.5 -72.5 c 132,-1,3
 481 -84 481 -84 465 -95 c 132,-1,4
 449 -106 449 -106 434 -123 c 4,5,6
 422 -139 422 -139 410.5 -153.5 c 132,-1,7
 399 -168 399 -168 391 -178 c 132,-1,8
 383 -188 383 -188 376 -194.5 c 132,-1,9
 369 -201 369 -201 358 -201 c 4,10,11
 338 -201 338 -201 322.5 -191.5 c 132,-1,12
 307 -182 307 -182 307 -156 c 4,13,14
 307 -127 307 -127 311 -104.5 c 132,-1,15
 315 -82 315 -82 326 -49 c 4,16,17
 332 -33 332 -33 342 -13.5 c 132,-1,18
 352 6 352 6 366.5 24.5 c 132,-1,19
 381 43 381 43 397.5 53 c 132,-1,20
 414 63 414 63 432 63 c 260,21,22
 450 63 450 63 477 41 c 4,23,24
 520 2 520 2 520 -29 c 4,0,1
813 670 m 1,25,-1
 813 498 l 2,26,27
 813 424 813 424 859 388 c 128,-1,28
 905 352 905 352 981 352 c 0,29,30
 1053 352 1053 352 1093 388 c 128,-1,31
 1133 424 1133 424 1133 498 c 2,32,-1
 1133 670 l 1,33,-1
 813 670 l 1,25,-1
532 670 m 1,34,35
 530 572 530 572 518 473.5 c 128,-1,36
 506 375 506 375 487 272 c 1,37,-1
 440 262 l 1,38,39
 413 315 413 315 397 382 c 128,-1,40
 381 449 381 449 367.5 513.5 c 128,-1,41
 354 578 354 578 348 631 c 128,-1,42
 342 684 342 684 342 709 c 2,43,-1
 342 899 l 2,44,45
 342 950 342 950 330.5 983 c 128,-1,46
 319 1016 319 1016 291 1016 c 0,47,48
 271 1016 271 1016 254.5 1012 c 128,-1,49
 238 1008 238 1008 223.5 1000.5 c 128,-1,50
 209 993 209 993 193.5 986 c 128,-1,51
 178 979 178 979 158 963 c 0,52,53
 129 943 129 943 110.5 926 c 128,-1,54
 92 909 92 909 84 909 c 1,55,56
 70 923 70 923 58.5 938.5 c 128,-1,57
 47 954 47 954 47 967 c 1,58,59
 61 981 61 981 78.5 1003.5 c 128,-1,60
 96 1026 96 1026 115 1044 c 0,61,62
 201 1140 201 1140 261.5 1185.5 c 128,-1,63
 322 1231 322 1231 365 1231 c 0,64,65
 424 1231 424 1231 455.5 1174.5 c 128,-1,66
 487 1118 487 1118 487 1026 c 2,67,-1
 487 899 l 1,68,-1
 1202 899 l 1,69,-1
 1202 498 l 2,70,71
 1202 344 1202 344 1148 258 c 128,-1,72
 1094 172 1094 172 979 172 c 0,73,74
 864 172 864 172 806 258 c 128,-1,75
 748 344 748 344 748 498 c 2,76,-1
 748 670 l 1,77,-1
 532 670 l 1,34,35
EndSplineSet
EndChar

StartChar: uniE00D
Encoding: 57357 57357 13
Width: 1699
Flags: W
LayerCount: 2
Fore
SplineSet
520 -29 m 4,0,1
 520 -41 520 -41 511 -51 c 132,-1,2
 502 -61 502 -61 491.5 -72.5 c 132,-1,3
 481 -84 481 -84 465 -95 c 132,-1,4
 449 -106 449 -106 434 -123 c 4,5,6
 422 -139 422 -139 410.5 -153.5 c 132,-1,7
 399 -168 399 -168 391 -178 c 132,-1,8
 383 -188 383 -188 376 -194.5 c 132,-1,9
 369 -201 369 -201 358 -201 c 4,10,11
 338 -201 338 -201 322.5 -191.5 c 132,-1,12
 307 -182 307 -182 307 -156 c 4,13,14
 307 -127 307 -127 311 -104.5 c 132,-1,15
 315 -82 315 -82 326 -49 c 4,16,17
 332 -33 332 -33 342 -13.5 c 132,-1,18
 352 6 352 6 366.5 24.5 c 132,-1,19
 381 43 381 43 397.5 53 c 132,-1,20
 414 63 414 63 432 63 c 260,21,22
 450 63 450 63 477 41 c 4,23,24
 520 2 520 2 520 -29 c 4,0,1
813 670 m 1,25,-1
 813 498 l 2,26,27
 813 424 813 424 859 388 c 128,-1,28
 905 352 905 352 981 352 c 0,29,30
 1053 352 1053 352 1093 388 c 128,-1,31
 1133 424 1133 424 1133 498 c 2,32,-1
 1133 670 l 1,33,-1
 813 670 l 1,25,-1
1202 670 m 1,34,-1
 1202 498 l 2,35,36
 1202 344 1202 344 1148 258 c 128,-1,37
 1094 172 1094 172 979 172 c 0,38,39
 864 172 864 172 806 258 c 128,-1,40
 748 344 748 344 748 498 c 2,41,-1
 748 670 l 1,42,-1
 532 670 l 1,43,44
 530 572 530 572 518 473.5 c 128,-1,45
 506 375 506 375 487 272 c 1,46,-1
 440 262 l 1,47,48
 413 315 413 315 397 382 c 128,-1,49
 381 449 381 449 367.5 513.5 c 128,-1,50
 354 578 354 578 348 631 c 128,-1,51
 342 684 342 684 342 709 c 2,52,-1
 342 899 l 2,53,54
 342 950 342 950 330.5 983 c 128,-1,55
 319 1016 319 1016 291 1016 c 0,56,57
 271 1016 271 1016 254.5 1012 c 128,-1,58
 238 1008 238 1008 223.5 1000.5 c 128,-1,59
 209 993 209 993 193.5 986 c 128,-1,60
 178 979 178 979 158 963 c 0,61,62
 129 943 129 943 110.5 926 c 128,-1,63
 92 909 92 909 84 909 c 1,64,65
 70 923 70 923 58.5 938.5 c 128,-1,66
 47 954 47 954 47 967 c 1,67,68
 61 981 61 981 78.5 1003.5 c 128,-1,69
 96 1026 96 1026 115 1044 c 0,70,71
 201 1140 201 1140 261.5 1185.5 c 128,-1,72
 322 1231 322 1231 365 1231 c 0,73,74
 424 1231 424 1231 455.5 1174.5 c 128,-1,75
 487 1118 487 1118 487 1026 c 2,76,-1
 487 899 l 1,77,-1
 1427 899 l 1,78,79
 1519 893 1519 893 1572.5 822.5 c 128,-1,80
 1626 752 1626 752 1626 633 c 2,81,-1
 1626 512 l 2,82,83
 1626 440 1626 440 1601.5 396 c 128,-1,84
 1577 352 1577 352 1540 352 c 1,85,-1
 1540 375 l 2,86,87
 1540 510 1540 510 1489 588 c 128,-1,88
 1438 666 1438 666 1339 670 c 1,89,-1
 1202 670 l 1,34,-1
EndSplineSet
EndChar

StartChar: uniE00E
Encoding: 57358 57358 14
Width: 1099
Flags: W
LayerCount: 2
Fore
SplineSet
586 -29 m 4,0,1
 586 -41 586 -41 577.5 -51 c 132,-1,2
 569 -61 569 -61 558 -72.5 c 132,-1,3
 547 -84 547 -84 531.5 -95 c 132,-1,4
 516 -106 516 -106 500 -123 c 4,5,6
 486 -139 486 -139 475.5 -153.5 c 132,-1,7
 465 -168 465 -168 457 -178 c 132,-1,8
 449 -188 449 -188 441.5 -195.5 c 132,-1,9
 434 -203 434 -203 426 -203 c 4,10,11
 403 -203 403 -203 389 -192.5 c 132,-1,12
 375 -182 375 -182 375 -158 c 4,13,14
 375 -127 375 -127 379 -103.5 c 132,-1,15
 383 -80 383 -80 393 -51 c 4,16,17
 399 -35 399 -35 409.5 -14.5 c 132,-1,18
 420 6 420 6 433 23.5 c 132,-1,19
 446 41 446 41 462.5 52 c 132,-1,20
 479 63 479 63 497.5 63 c 132,-1,21
 516 63 516 63 543 41 c 4,22,23
 586 2 586 2 586 -29 c 4,0,1
532 670 m 5,24,25
 530 572 530 572 518 473.5 c 132,-1,26
 506 375 506 375 487 272 c 5,27,-1
 440 262 l 5,28,29
 413 315 413 315 397 382 c 132,-1,30
 381 449 381 449 367.5 513.5 c 132,-1,31
 354 578 354 578 348 631 c 132,-1,32
 342 684 342 684 342 709 c 6,33,-1
 342 899 l 6,34,35
 342 950 342 950 330.5 983 c 132,-1,36
 319 1016 319 1016 291 1016 c 4,37,38
 271 1016 271 1016 254.5 1012 c 132,-1,39
 238 1008 238 1008 223.5 1000.5 c 132,-1,40
 209 993 209 993 193.5 986 c 132,-1,41
 178 979 178 979 158 963 c 4,42,43
 129 943 129 943 110.5 926 c 132,-1,44
 92 909 92 909 84 909 c 5,45,46
 70 923 70 923 58.5 938.5 c 132,-1,47
 47 954 47 954 47 967 c 5,48,49
 61 981 61 981 78.5 1003.5 c 132,-1,50
 96 1026 96 1026 115 1044 c 4,51,52
 201 1140 201 1140 261.5 1185.5 c 132,-1,53
 322 1231 322 1231 365 1231 c 4,54,55
 424 1231 424 1231 455.5 1174.5 c 132,-1,56
 487 1118 487 1118 487 1026 c 6,57,-1
 487 899 l 5,58,-1
 1200 899 l 5,59,-1
 1200 670 l 5,60,-1
 938 670 l 5,61,62
 936 639 936 639 930 585.5 c 132,-1,63
 924 532 924 532 917.5 473 c 132,-1,64
 911 414 911 414 904 360.5 c 132,-1,65
 897 307 897 307 887 276 c 5,66,-1
 842 260 l 5,67,68
 801 354 801 354 778.5 458.5 c 132,-1,69
 756 563 756 563 748 670 c 5,70,-1
 532 670 l 5,24,25
EndSplineSet
EndChar

StartChar: uniE00F
Encoding: 57359 57359 15
Width: 798
Flags: W
LayerCount: 2
Fore
SplineSet
276 -29 m 0,0,1
 276 -41 276 -41 268 -51 c 128,-1,2
 260 -61 260 -61 249 -72.5 c 128,-1,3
 238 -84 238 -84 222.5 -95 c 128,-1,4
 207 -106 207 -106 190 -123 c 0,5,6
 176 -139 176 -139 166 -153.5 c 128,-1,7
 156 -168 156 -168 147.5 -178 c 128,-1,8
 139 -188 139 -188 131 -195.5 c 128,-1,9
 123 -203 123 -203 115 -203 c 0,10,11
 92 -203 92 -203 77.5 -192.5 c 128,-1,12
 63 -182 63 -182 63 -158 c 0,13,14
 63 -127 63 -127 68.5 -103.5 c 128,-1,15
 74 -80 74 -80 84 -51 c 0,16,17
 90 -35 90 -35 99.5 -14.5 c 128,-1,18
 109 6 109 6 122 23.5 c 128,-1,19
 135 41 135 41 151.5 52 c 128,-1,20
 168 63 168 63 186 63 c 0,21,22
 206 63 206 63 233 41 c 0,23,24
 276 2 276 2 276 -29 c 0,0,1
238 670 m 1,25,26
 236 639 236 639 229.5 585.5 c 128,-1,27
 223 532 223 532 218 473 c 128,-1,28
 213 414 213 414 205 360.5 c 128,-1,29
 197 307 197 307 186 276 c 1,30,-1
 141 260 l 1,31,32
 100 354 100 354 77.5 458.5 c 128,-1,33
 55 563 55 563 47 670 c 1,34,-1
 0 670 l 1,35,-1
 0 899 l 1,36,-1
 899 899 l 1,37,-1
 899 670 l 1,38,-1
 639 670 l 1,39,40
 637 639 637 639 631 585.5 c 128,-1,41
 625 532 625 532 618.5 473 c 128,-1,42
 612 414 612 414 604 360.5 c 128,-1,43
 596 307 596 307 586 276 c 1,44,-1
 541 260 l 1,45,46
 500 354 500 354 478.5 458.5 c 128,-1,47
 457 563 457 563 446 670 c 1,48,-1
 238 670 l 1,25,26
EndSplineSet
EndChar

StartChar: uniE010
Encoding: 57360 57360 16
Width: 1374
Flags: W
LayerCount: 2
Fore
SplineSet
276 -29 m 0,0,1
 276 -41 276 -41 268 -51 c 128,-1,2
 260 -61 260 -61 249 -72.5 c 128,-1,3
 238 -84 238 -84 222.5 -95 c 128,-1,4
 207 -106 207 -106 190 -123 c 0,5,6
 176 -139 176 -139 166 -153.5 c 128,-1,7
 156 -168 156 -168 147.5 -178 c 128,-1,8
 139 -188 139 -188 131 -195.5 c 128,-1,9
 123 -203 123 -203 115 -203 c 0,10,11
 92 -203 92 -203 77.5 -192.5 c 128,-1,12
 63 -182 63 -182 63 -158 c 0,13,14
 63 -127 63 -127 68.5 -103.5 c 128,-1,15
 74 -80 74 -80 84 -51 c 0,16,17
 90 -35 90 -35 99.5 -14.5 c 128,-1,18
 109 6 109 6 122 23.5 c 128,-1,19
 135 41 135 41 151.5 52 c 128,-1,20
 168 63 168 63 186 63 c 0,21,22
 206 63 206 63 233 41 c 0,23,24
 276 2 276 2 276 -29 c 0,0,1
522 899 m 17,25,-1
 522 762 l 2,26,27
 522 715 522 715 539.5 654.5 c 128,-1,28
 557 594 557 594 582.5 535.5 c 128,-1,29
 608 477 608 477 635 431 c 128,-1,30
 662 385 662 385 686 365 c 1,31,32
 682 383 682 383 682 416 c 0,33,34
 682 436 682 436 684 463 c 0,35,36
 690 526 690 526 719 655 c 128,-1,37
 748 784 748 784 834 1002.5 c 128,-1,38
 920 1221 920 1221 959.5 1370.5 c 128,-1,39
 999 1520 999 1520 999 1561 c 0,40,41
 999 1586 999 1586 994 1619.5 c 128,-1,42
 989 1653 989 1653 983 1687.5 c 128,-1,43
 977 1722 977 1722 971 1752 c 128,-1,44
 965 1782 965 1782 965 1790 c 0,45,46
 965 1825 965 1825 974 1840 c 128,-1,47
 983 1855 983 1855 1008 1855 c 0,48,49
 1014 1855 1014 1855 1027 1838 c 128,-1,50
 1040 1821 1040 1821 1055 1796 c 0,51,52
 1086 1739 1086 1739 1109.5 1692 c 128,-1,53
 1133 1645 1133 1645 1155.5 1597.5 c 128,-1,54
 1178 1550 1178 1550 1202.5 1501 c 128,-1,55
 1227 1452 1227 1452 1255 1395 c 1,56,57
 1163 1276 1163 1276 1098.5 1183 c 128,-1,58
 1034 1090 1034 1090 966.5 919 c 128,-1,59
 899 748 899 748 842.5 545 c 128,-1,60
 786 342 786 342 786 145 c 1,61,62
 714 180 714 180 654 244.5 c 128,-1,63
 594 309 594 309 548 383 c 128,-1,64
 502 457 502 457 472 532.5 c 128,-1,65
 442 608 442 608 438 670 c 1,66,-1
 238 670 l 1,67,68
 236 639 236 639 229.5 585.5 c 128,-1,69
 223 532 223 532 218 473 c 128,-1,70
 213 414 213 414 205 360.5 c 128,-1,71
 197 307 197 307 186 276 c 1,72,-1
 141 260 l 1,73,74
 100 354 100 354 77.5 458.5 c 128,-1,75
 55 563 55 563 47 670 c 1,76,-1
 0 670 l 1,77,-1
 0 899 l 9,78,-1
 522 899 l 17,25,-1
EndSplineSet
EndChar

StartChar: uniE011
Encoding: 57361 57361 17
Width: 1386
Flags: W
LayerCount: 2
Fore
SplineSet
1257 438 m 2,0,-1
 1257 23 l 2,1,2
 1257 -63 1257 -63 1242 -128 c 128,-1,3
 1227 -193 1227 -193 1196 -241 c 128,-1,4
 1165 -289 1165 -289 1119 -322.5 c 128,-1,5
 1073 -356 1073 -356 1016 -383 c 0,6,7
 981 -397 981 -397 960.5 -409.5 c 128,-1,8
 940 -422 940 -422 925.5 -435.5 c 128,-1,9
 911 -449 911 -449 901 -466 c 128,-1,10
 891 -483 891 -483 879 -512 c 1,11,-1
 854 -512 l 1,12,-1
 922 -225 l 1,13,14
 936 -221 936 -221 949.5 -217 c 128,-1,15
 963 -213 963 -213 978 -209 c 128,-1,16
 993 -205 993 -205 1010.5 -194.5 c 128,-1,17
 1028 -184 1028 -184 1055 -170 c 0,18,19
 1069 -162 1069 -162 1089.5 -148.5 c 128,-1,20
 1110 -135 1110 -135 1126.5 -112.5 c 128,-1,21
 1143 -90 1143 -90 1154 -57.5 c 128,-1,22
 1165 -25 1165 -25 1165 23 c 2,23,-1
 1165 438 l 2,24,25
 1165 553 1165 553 1122 611.5 c 128,-1,26
 1079 670 1079 670 1004 670 c 2,27,-1
 797 670 l 1,28,-1
 797 899 l 1,29,-1
 1004 899 l 2,30,31
 1131 899 1131 899 1194 785 c 128,-1,32
 1257 671 1257 671 1257 438 c 2,0,-1
967 295 m 0,33,34
 967 281 967 281 957.5 270.5 c 128,-1,35
 948 260 948 260 938 250 c 128,-1,36
 928 240 928 240 911.5 226.5 c 128,-1,37
 895 213 895 213 881 201 c 0,38,39
 867 185 867 185 856.5 170.5 c 128,-1,40
 846 156 846 156 837.5 144.5 c 128,-1,41
 829 133 829 133 822 126 c 128,-1,42
 815 119 815 119 805 119 c 0,43,44
 785 119 785 119 769.5 130 c 128,-1,45
 754 141 754 141 754 164 c 0,46,47
 754 195 754 195 759 218.5 c 128,-1,48
 764 242 764 242 772 270 c 0,49,50
 778 290 778 290 788.5 310 c 128,-1,51
 799 330 799 330 813 346 c 128,-1,52
 827 362 827 362 843.5 373.5 c 128,-1,53
 860 385 860 385 879 385 c 0,54,55
 897 385 897 385 924 362 c 0,56,57
 967 326 967 326 967 295 c 0,33,34
854 1395 m 1,58,59
 762 1276 762 1276 697.5 1183 c 128,-1,60
 633 1090 633 1090 565.5 919 c 128,-1,61
 498 748 498 748 441.5 545 c 128,-1,62
 385 342 385 342 385 145 c 1,63,64
 313 182 313 182 251.5 245.5 c 128,-1,65
 190 309 190 309 144 383 c 128,-1,66
 98 457 98 457 69.5 532.5 c 128,-1,67
 41 608 41 608 37 670 c 1,68,-1
 0 670 l 1,69,-1
 0 899 l 1,70,-1
 121 899 l 1,71,-1
 121 762 l 2,72,73
 121 715 121 715 138.5 654.5 c 128,-1,74
 156 594 156 594 181.5 535.5 c 128,-1,75
 207 477 207 477 233.5 431 c 128,-1,76
 260 385 260 385 285 365 c 1,77,78
 279 383 279 383 279 416 c 0,79,80
 279 436 279 436 283 463 c 0,81,82
 289 526 289 526 316.5 655 c 128,-1,83
 344 784 344 784 431 1002.5 c 128,-1,84
 518 1221 518 1221 558 1370.5 c 128,-1,85
 598 1520 598 1520 598 1561 c 0,86,87
 598 1588 598 1588 593 1620.5 c 128,-1,88
 588 1653 588 1653 581.5 1687.5 c 128,-1,89
 575 1722 575 1722 568 1752 c 128,-1,90
 561 1782 561 1782 561 1790 c 0,91,92
 561 1825 561 1825 570.5 1840 c 128,-1,93
 580 1855 580 1855 604 1855 c 0,94,95
 610 1855 610 1855 624.5 1838 c 128,-1,96
 639 1821 639 1821 651 1796 c 0,97,98
 682 1739 682 1739 705.5 1692 c 128,-1,99
 729 1645 729 1645 751.5 1597.5 c 128,-1,100
 774 1550 774 1550 799.5 1501 c 128,-1,101
 825 1452 825 1452 854 1395 c 1,58,59
EndSplineSet
EndChar

StartChar: uniE012
Encoding: 57362 57362 18
Width: 1198
Flags: W
LayerCount: 2
Fore
SplineSet
520 -29 m 4,0,1
 520 -41 520 -41 511 -51 c 132,-1,2
 502 -61 502 -61 491.5 -72.5 c 132,-1,3
 481 -84 481 -84 465 -95 c 132,-1,4
 449 -106 449 -106 434 -123 c 4,5,6
 422 -139 422 -139 410.5 -153.5 c 132,-1,7
 399 -168 399 -168 391 -178 c 132,-1,8
 383 -188 383 -188 376 -194.5 c 132,-1,9
 369 -201 369 -201 358 -201 c 4,10,11
 338 -201 338 -201 322.5 -191.5 c 132,-1,12
 307 -182 307 -182 307 -156 c 4,13,14
 307 -127 307 -127 311 -104.5 c 132,-1,15
 315 -82 315 -82 326 -49 c 4,16,17
 332 -33 332 -33 342 -13.5 c 132,-1,18
 352 6 352 6 366.5 24.5 c 132,-1,19
 381 43 381 43 397.5 53 c 132,-1,20
 414 63 414 63 432 63 c 260,21,22
 450 63 450 63 477 41 c 4,23,24
 520 2 520 2 520 -29 c 4,0,1
532 670 m 1,25,26
 530 572 530 572 518 473.5 c 128,-1,27
 506 375 506 375 487 272 c 1,28,-1
 440 262 l 1,29,30
 413 315 413 315 397 382 c 128,-1,31
 381 449 381 449 367.5 513.5 c 128,-1,32
 354 578 354 578 348 631 c 128,-1,33
 342 684 342 684 342 709 c 2,34,-1
 342 899 l 2,35,36
 342 950 342 950 330.5 983 c 128,-1,37
 319 1016 319 1016 291 1016 c 0,38,39
 271 1016 271 1016 254.5 1012 c 128,-1,40
 238 1008 238 1008 223.5 1000.5 c 128,-1,41
 209 993 209 993 193.5 986 c 128,-1,42
 178 979 178 979 158 963 c 0,43,44
 129 943 129 943 110.5 926 c 128,-1,45
 92 909 92 909 84 909 c 1,46,47
 70 923 70 923 58.5 938.5 c 128,-1,48
 47 954 47 954 47 967 c 1,49,50
 61 981 61 981 78.5 1003.5 c 128,-1,51
 96 1026 96 1026 115 1044 c 0,52,53
 201 1140 201 1140 261.5 1185.5 c 128,-1,54
 322 1231 322 1231 365 1231 c 0,55,56
 424 1231 424 1231 455.5 1174.5 c 128,-1,57
 487 1118 487 1118 487 1026 c 2,58,-1
 487 899 l 1,59,-1
 1300 899 l 1,60,-1
 1300 670 l 1,61,-1
 827 670 l 1,62,-1
 1087 299 l 1,63,-1
 1087 266 l 1,64,-1
 1032 4 l 1,65,-1
 1004 4 l 1,66,-1
 739 670 l 1,67,-1
 532 670 l 1,25,26
EndSplineSet
EndChar

StartChar: uniE013
Encoding: 57363 57363 19
Width: 899
Flags: W
LayerCount: 2
Fore
SplineSet
309 -29 m 4,0,1
 309 -41 309 -41 301 -51 c 132,-1,2
 293 -61 293 -61 282.5 -72.5 c 132,-1,3
 272 -84 272 -84 255 -95 c 132,-1,4
 238 -106 238 -106 223 -123 c 4,5,6
 211 -139 211 -139 199.5 -153.5 c 132,-1,7
 188 -168 188 -168 180 -178 c 132,-1,8
 172 -188 172 -188 166 -194.5 c 132,-1,9
 160 -201 160 -201 150 -201 c 4,10,11
 130 -201 130 -201 113 -191.5 c 132,-1,12
 96 -182 96 -182 96 -156 c 4,13,14
 96 -127 96 -127 101 -104.5 c 132,-1,15
 106 -82 106 -82 117 -49 c 4,16,17
 123 -33 123 -33 132 -13.5 c 132,-1,18
 141 6 141 6 155.5 24.5 c 132,-1,19
 170 43 170 43 186.5 53 c 132,-1,20
 203 63 203 63 221 63 c 260,21,22
 239 63 239 63 266 41 c 4,23,24
 309 2 309 2 309 -29 c 4,0,1
440 670 m 1,25,-1
 238 670 l 1,26,27
 236 639 236 639 229.5 585.5 c 128,-1,28
 223 532 223 532 218 473 c 128,-1,29
 213 414 213 414 205 360.5 c 128,-1,30
 197 307 197 307 186 276 c 1,31,-1
 141 260 l 1,32,33
 100 354 100 354 77.5 458.5 c 128,-1,34
 55 563 55 563 47 670 c 1,35,-1
 0 670 l 1,36,-1
 0 899 l 1,37,-1
 999 899 l 1,38,-1
 999 670 l 1,39,-1
 526 670 l 1,40,-1
 788 299 l 1,41,-1
 788 266 l 1,42,-1
 733 4 l 1,43,-1
 702 4 l 1,44,-1
 440 670 l 1,25,-1
EndSplineSet
EndChar

StartChar: uniE014
Encoding: 57364 57364 20
Width: 987
Flags: W
LayerCount: 2
Fore
SplineSet
256 -29 m 0,0,1
 256 -41 256 -41 247 -51 c 128,-1,2
 238 -61 238 -61 227.5 -72.5 c 128,-1,3
 217 -84 217 -84 199.5 -95 c 128,-1,4
 182 -106 182 -106 170 -123 c 0,5,6
 158 -139 158 -139 145.5 -153.5 c 128,-1,7
 133 -168 133 -168 126 -178 c 128,-1,8
 119 -188 119 -188 111.5 -194.5 c 128,-1,9
 104 -201 104 -201 94 -201 c 0,10,11
 74 -201 74 -201 58.5 -191.5 c 128,-1,12
 43 -182 43 -182 43 -156 c 0,13,14
 43 -127 43 -127 47 -104.5 c 128,-1,15
 51 -82 51 -82 61 -49 c 0,16,17
 67 -33 67 -33 76.5 -13.5 c 128,-1,18
 86 6 86 6 100.5 24.5 c 128,-1,19
 115 43 115 43 131 53 c 128,-1,20
 147 63 147 63 168 63 c 256,21,22
 186 63 186 63 213 41 c 0,23,24
 256 2 256 2 256 -29 c 0,0,1
389 899 m 1,25,26
 397 1012 397 1012 427 1081.5 c 128,-1,27
 457 1151 457 1151 493.5 1188 c 128,-1,28
 530 1225 530 1225 569 1237 c 128,-1,29
 608 1249 608 1249 635 1249 c 0,30,31
 709 1249 709 1249 762 1206 c 128,-1,32
 815 1163 815 1163 850 1091.5 c 128,-1,33
 885 1020 885 1020 900 929 c 128,-1,34
 915 838 915 838 915 741 c 0,35,36
 915 702 915 702 911 685 c 128,-1,37
 907 668 907 668 891 668 c 0,38,39
 877 668 877 668 868.5 684 c 128,-1,40
 860 700 860 700 854 721 c 0,41,42
 844 774 844 774 831.5 830.5 c 128,-1,43
 819 887 819 887 797.5 934 c 128,-1,44
 776 981 776 981 737 1012.5 c 128,-1,45
 698 1044 698 1044 635 1044 c 0,46,47
 602 1044 602 1044 569.5 1034 c 128,-1,48
 537 1024 537 1024 509 995.5 c 128,-1,49
 481 967 481 967 462.5 916.5 c 128,-1,50
 444 866 444 866 444 788 c 0,51,52
 444 743 444 743 462.5 702.5 c 128,-1,53
 481 662 481 662 508 625 c 128,-1,54
 535 588 535 588 566.5 554 c 128,-1,55
 598 520 598 520 621 494 c 1,56,-1
 586 283 l 1,57,-1
 569 283 l 1,58,59
 563 299 563 299 549 318.5 c 128,-1,60
 535 338 535 338 520.5 359.5 c 128,-1,61
 506 381 506 381 489.5 404.5 c 128,-1,62
 473 428 473 428 463 446 c 0,63,64
 449 466 449 466 436.5 492 c 128,-1,65
 424 518 424 518 412.5 548 c 128,-1,66
 401 578 401 578 395 608.5 c 128,-1,67
 389 639 389 639 389 670 c 1,68,-1
 193 670 l 1,69,70
 191 639 191 639 184.5 585.5 c 128,-1,71
 178 532 178 532 172 473 c 128,-1,72
 166 414 166 414 158 360.5 c 128,-1,73
 150 307 150 307 139 276 c 1,74,-1
 94 260 l 1,75,76
 53 354 53 354 31.5 458.5 c 128,-1,77
 10 563 10 563 0 670 c 1,78,-1
 0 899 l 1,79,-1
 389 899 l 1,25,26
EndSplineSet
EndChar

StartChar: uniE015
Encoding: 57365 57365 21
Width: 1298
Flags: W
LayerCount: 2
Fore
SplineSet
520 -29 m 4,0,1
 520 -41 520 -41 511 -51 c 132,-1,2
 502 -61 502 -61 491.5 -72.5 c 132,-1,3
 481 -84 481 -84 465 -95 c 132,-1,4
 449 -106 449 -106 434 -123 c 4,5,6
 422 -139 422 -139 410.5 -153.5 c 132,-1,7
 399 -168 399 -168 391 -178 c 132,-1,8
 383 -188 383 -188 376 -194.5 c 132,-1,9
 369 -201 369 -201 358 -201 c 4,10,11
 338 -201 338 -201 322.5 -191.5 c 132,-1,12
 307 -182 307 -182 307 -156 c 4,13,14
 307 -127 307 -127 311 -104.5 c 132,-1,15
 315 -82 315 -82 326 -49 c 4,16,17
 332 -33 332 -33 342 -13.5 c 132,-1,18
 352 6 352 6 366.5 24.5 c 132,-1,19
 381 43 381 43 397.5 53 c 132,-1,20
 414 63 414 63 432 63 c 260,21,22
 450 63 450 63 477 41 c 4,23,24
 520 2 520 2 520 -29 c 4,0,1
813 670 m 1,25,-1
 813 498 l 2,26,27
 813 424 813 424 859 388 c 128,-1,28
 905 352 905 352 981 352 c 0,29,30
 1053 352 1053 352 1093 388 c 128,-1,31
 1133 424 1133 424 1133 498 c 2,32,-1
 1133 670 l 1,33,-1
 813 670 l 1,25,-1
1202 670 m 1,34,-1
 1202 498 l 2,35,36
 1202 344 1202 344 1148 258 c 128,-1,37
 1094 172 1094 172 979 172 c 0,38,39
 864 172 864 172 806 258 c 128,-1,40
 748 344 748 344 748 498 c 2,41,-1
 748 670 l 1,42,-1
 532 670 l 1,43,44
 530 572 530 572 518 473.5 c 128,-1,45
 506 375 506 375 487 272 c 1,46,-1
 440 262 l 1,47,48
 413 315 413 315 397 382 c 128,-1,49
 381 449 381 449 367.5 513.5 c 128,-1,50
 354 578 354 578 348 631 c 128,-1,51
 342 684 342 684 342 709 c 2,52,-1
 342 899 l 2,53,54
 342 950 342 950 330.5 983 c 128,-1,55
 319 1016 319 1016 291 1016 c 0,56,57
 271 1016 271 1016 254.5 1012 c 128,-1,58
 238 1008 238 1008 223.5 1000.5 c 128,-1,59
 209 993 209 993 193.5 986 c 128,-1,60
 178 979 178 979 158 963 c 0,61,62
 129 943 129 943 110.5 926 c 128,-1,63
 92 909 92 909 84 909 c 1,64,65
 70 923 70 923 58.5 938.5 c 128,-1,66
 47 954 47 954 47 967 c 1,67,68
 61 981 61 981 78.5 1003.5 c 128,-1,69
 96 1026 96 1026 115 1044 c 0,70,71
 201 1140 201 1140 261.5 1185.5 c 128,-1,72
 322 1231 322 1231 365 1231 c 0,73,74
 424 1231 424 1231 455.5 1174.5 c 128,-1,75
 487 1118 487 1118 487 1026 c 2,76,-1
 487 899 l 1,77,-1
 1401 899 l 1,78,-1
 1401 670 l 1,79,-1
 1202 670 l 1,34,-1
EndSplineSet
EndChar

StartChar: uniE016
Encoding: 57366 57366 22
Width: 999
Flags: W
LayerCount: 2
Fore
SplineSet
274 -29 m 4,0,1
 274 -41 274 -41 265 -51 c 132,-1,2
 256 -61 256 -61 246 -72.5 c 132,-1,3
 236 -84 236 -84 219.5 -95 c 132,-1,4
 203 -106 203 -106 188 -123 c 4,5,6
 176 -139 176 -139 165 -153.5 c 132,-1,7
 154 -168 154 -168 145.5 -178 c 132,-1,8
 137 -188 137 -188 130 -194.5 c 132,-1,9
 123 -201 123 -201 113 -201 c 4,10,11
 93 -201 93 -201 77 -191.5 c 132,-1,12
 61 -182 61 -182 61 -156 c 4,13,14
 61 -127 61 -127 65.5 -104.5 c 132,-1,15
 70 -82 70 -82 80 -49 c 4,16,17
 86 -33 86 -33 96 -13.5 c 132,-1,18
 106 6 106 6 119.5 24.5 c 132,-1,19
 133 43 133 43 150.5 53 c 132,-1,20
 168 63 168 63 186 63 c 260,21,22
 204 63 204 63 231 41 c 4,23,24
 274 2 274 2 274 -29 c 4,0,1
516 670 m 1,25,-1
 516 498 l 2,26,27
 516 424 516 424 562 388 c 128,-1,28
 608 352 608 352 682 352 c 0,29,30
 754 352 754 352 794 388 c 128,-1,31
 834 424 834 424 834 498 c 2,32,-1
 834 670 l 1,33,-1
 516 670 l 1,25,-1
238 670 m 1,34,35
 236 639 236 639 229.5 585.5 c 128,-1,36
 223 532 223 532 218 473 c 128,-1,37
 213 414 213 414 205 360.5 c 128,-1,38
 197 307 197 307 186 276 c 1,39,-1
 141 260 l 1,40,41
 100 354 100 354 77.5 458.5 c 128,-1,42
 55 563 55 563 47 670 c 1,43,-1
 0 670 l 1,44,-1
 0 899 l 1,45,-1
 1100 899 l 1,46,-1
 1100 670 l 1,47,-1
 903 670 l 1,48,-1
 903 498 l 2,49,50
 903 344 903 344 850 258 c 128,-1,51
 797 172 797 172 680 172 c 0,52,53
 565 172 565 172 508 258 c 128,-1,54
 451 344 451 344 451 498 c 2,55,-1
 451 670 l 1,56,-1
 238 670 l 1,34,35
EndSplineSet
EndChar

StartChar: uniE017
Encoding: 57367 57367 23
Width: 1230
Flags: W
LayerCount: 2
Fore
SplineSet
274 -29 m 4,0,1
 274 -41 274 -41 265 -51 c 132,-1,2
 256 -61 256 -61 246 -72.5 c 132,-1,3
 236 -84 236 -84 219.5 -95 c 132,-1,4
 203 -106 203 -106 188 -123 c 4,5,6
 176 -139 176 -139 165 -153.5 c 132,-1,7
 154 -168 154 -168 145.5 -178 c 132,-1,8
 137 -188 137 -188 130 -194.5 c 132,-1,9
 123 -201 123 -201 113 -201 c 4,10,11
 93 -201 93 -201 77 -191.5 c 132,-1,12
 61 -182 61 -182 61 -156 c 4,13,14
 61 -127 61 -127 65.5 -104.5 c 132,-1,15
 70 -82 70 -82 80 -49 c 4,16,17
 86 -33 86 -33 96 -13.5 c 132,-1,18
 106 6 106 6 119.5 24.5 c 132,-1,19
 133 43 133 43 150.5 53 c 132,-1,20
 168 63 168 63 186 63 c 260,21,22
 204 63 204 63 231 41 c 4,23,24
 274 2 274 2 274 -29 c 4,0,1
532 670 m 1,25,26
 532 602 532 602 534.5 545.5 c 128,-1,27
 537 489 537 489 552 447.5 c 128,-1,28
 567 406 567 406 601 380 c 128,-1,29
 635 354 635 354 694 354 c 256,30,31
 755 354 755 354 790 377.5 c 128,-1,32
 825 401 825 401 839.5 443 c 128,-1,33
 854 485 854 485 857 543.5 c 128,-1,34
 860 602 860 602 860 670 c 1,35,-1
 532 670 l 1,25,26
451 899 m 17,36,37
 471 1153 471 1153 555 1286 c 0,38,39
 641 1417 641 1417 799 1417 c 0,40,41
 879 1417 879 1417 937 1376 c 128,-1,42
 995 1335 995 1335 1037 1262.5 c 128,-1,43
 1079 1190 1079 1190 1100.5 1087.5 c 128,-1,44
 1122 985 1122 985 1122 866 c 0,45,46
 1122 819 1122 819 1111 794.5 c 128,-1,47
 1100 770 1100 770 1094 770 c 0,48,49
 1078 770 1078 770 1069.5 790.5 c 128,-1,50
 1061 811 1061 811 1049 868 c 1,51,52
 1039 958 1039 958 1012 1024 c 128,-1,53
 985 1090 985 1090 953.5 1133 c 128,-1,54
 922 1176 922 1176 882 1197.5 c 128,-1,55
 842 1219 842 1219 799 1219 c 0,56,57
 592 1219 592 1219 537 899 c 1,58,-1
 834 899 l 2,59,60
 940 899 940 899 940 791 c 2,61,-1
 940 555 l 2,62,63
 940 485 940 485 930 417.5 c 128,-1,64
 920 350 920 350 890 296 c 128,-1,65
 860 242 860 242 813 210 c 128,-1,66
 766 178 766 178 694 178 c 0,67,68
 641 178 641 178 603 201.5 c 128,-1,69
 565 225 565 225 537.5 266 c 128,-1,70
 510 307 510 307 492.5 358.5 c 128,-1,71
 475 410 475 410 466 465 c 128,-1,72
 457 520 457 520 454 573.5 c 128,-1,73
 451 627 451 627 451 670 c 1,74,-1
 238 670 l 1,75,76
 236 639 236 639 229.5 585.5 c 128,-1,77
 223 532 223 532 218 473 c 128,-1,78
 213 414 213 414 205 360.5 c 128,-1,79
 197 307 197 307 186 276 c 1,80,-1
 141 260 l 1,81,82
 100 354 100 354 77.5 458.5 c 128,-1,83
 55 563 55 563 47 670 c 1,84,-1
 0 670 l 1,85,-1
 0 899 l 9,86,-1
 451 899 l 17,36,37
EndSplineSet
EndChar

StartChar: uniE018
Encoding: 57368 57368 24
Width: 1798
Flags: W
LayerCount: 2
Fore
SplineSet
578 -29 m 4,0,1
 578 -41 578 -41 568.5 -51 c 132,-1,2
 559 -61 559 -61 550 -72.5 c 132,-1,3
 541 -84 541 -84 523.5 -95 c 132,-1,4
 506 -106 506 -106 492 -123 c 4,5,6
 480 -139 480 -139 468.5 -153.5 c 132,-1,7
 457 -168 457 -168 448.5 -178 c 132,-1,8
 440 -188 440 -188 433 -194.5 c 132,-1,9
 426 -201 426 -201 418 -201 c 4,10,11
 398 -201 398 -201 381.5 -191.5 c 132,-1,12
 365 -182 365 -182 365 -156 c 4,13,14
 365 -127 365 -127 370 -104 c 4,15,16
 377 -81 377 -81 385 -49 c 4,17,18
 391 -33 391 -33 400.5 -13.5 c 132,-1,19
 410 6 410 6 424 24.5 c 132,-1,20
 438 43 438 43 454.5 53 c 132,-1,21
 471 63 471 63 489 63 c 260,22,23
 507 63 507 63 535 41 c 4,24,25
 578 2 578 2 578 -29 c 4,0,1
813 670 m 1,26,-1
 813 498 l 2,27,28
 813 424 813 424 859 388 c 128,-1,29
 905 352 905 352 981 352 c 0,30,31
 1053 352 1053 352 1093 388 c 128,-1,32
 1133 424 1133 424 1133 498 c 2,33,-1
 1133 670 l 1,34,-1
 813 670 l 1,26,-1
1202 670 m 1,35,-1
 1202 498 l 2,36,37
 1202 344 1202 344 1148 258 c 128,-1,38
 1094 172 1094 172 979 172 c 128,-1,39
 864 172 864 172 806 258 c 128,-1,40
 748 344 748 344 748 498 c 2,41,-1
 748 670 l 1,42,-1
 532 670 l 1,43,44
 530 572 530 572 518 473.5 c 128,-1,45
 506 375 506 375 487 272 c 1,46,-1
 440 262 l 1,47,48
 413 315 413 315 397 382 c 128,-1,49
 381 449 381 449 367.5 513.5 c 128,-1,50
 354 578 354 578 348 631 c 128,-1,51
 342 684 342 684 342 709 c 2,52,-1
 342 899 l 2,53,54
 342 950 342 950 330.5 983 c 128,-1,55
 319 1016 319 1016 291 1016 c 0,56,57
 271 1016 271 1016 254.5 1012 c 128,-1,58
 238 1008 238 1008 223.5 1000.5 c 128,-1,59
 209 993 209 993 193.5 986 c 128,-1,60
 178 979 178 979 158 963 c 0,61,62
 129 943 129 943 110.5 926 c 128,-1,63
 92 909 92 909 84 909 c 1,64,65
 70 923 70 923 58.5 938.5 c 128,-1,66
 47 954 47 954 47 967 c 1,67,68
 61 981 61 981 78.5 1003.5 c 128,-1,69
 96 1026 96 1026 115 1044 c 0,70,71
 201 1140 201 1140 261.5 1185.5 c 128,-1,72
 322 1231 322 1231 365 1231 c 0,73,74
 424 1231 424 1231 455.5 1174.5 c 128,-1,75
 487 1118 487 1118 487 1026 c 2,76,-1
 487 899 l 1,77,-1
 1898 899 l 1,78,-1
 1898 670 l 1,79,-1
 1425 670 l 1,80,-1
 1686 299 l 1,81,-1
 1686 266 l 1,82,-1
 1630 4 l 1,83,-1
 1602 4 l 1,84,-1
 1337 670 l 1,85,-1
 1202 670 l 1,35,-1
EndSplineSet
EndChar

StartChar: uniE019
Encoding: 57369 57369 25
Width: 1695
Flags: W
LayerCount: 2
Fore
SplineSet
543 670 m 1,0,-1
 211 670 l 1,1,2
 211 604 211 604 213 545.5 c 128,-1,3
 215 487 215 487 230.5 444 c 128,-1,4
 246 401 246 401 279.5 376.5 c 128,-1,5
 313 352 313 352 377 352 c 0,6,7
 440 352 440 352 474 375.5 c 128,-1,8
 508 399 508 399 523.5 441 c 128,-1,9
 539 483 539 483 541 541.5 c 128,-1,10
 543 600 543 600 543 670 c 1,0,-1
928 670 m 1,11,12
 926 639 926 639 919.5 585.5 c 128,-1,13
 913 532 913 532 907 473 c 128,-1,14
 901 414 901 414 893 360.5 c 128,-1,15
 885 307 885 307 874 276 c 1,16,-1
 829 260 l 1,17,18
 788 354 788 354 766.5 458.5 c 128,-1,19
 745 563 745 563 737 809 c 0,20,21
 735 887 735 887 717 961 c 0,22,23
 697 1041 697 1041 664 1098 c 128,-1,24
 631 1155 631 1155 586 1188 c 128,-1,25
 541 1221 541 1221 481 1221 c 0,26,27
 274 1221 274 1221 215 899 c 1,28,-1
 518 899 l 2,29,30
 627 899 627 899 627 791 c 2,31,-1
 627 555 l 2,32,33
 627 481 627 481 613.5 411.5 c 128,-1,34
 600 342 600 342 571.5 289 c 128,-1,35
 543 236 543 236 496 203 c 128,-1,36
 449 170 449 170 377 170 c 0,37,38
 324 170 324 170 284 194.5 c 128,-1,39
 244 219 244 219 216 260 c 128,-1,40
 188 301 188 301 172 353.5 c 128,-1,41
 156 406 156 406 145.5 460 c 128,-1,42
 135 514 135 514 132 569.5 c 128,-1,43
 129 625 129 625 129 670 c 2,44,-1
 129 901 l 1,45,46
 147 1157 147 1157 234.5 1291 c 128,-1,47
 322 1425 322 1425 481 1425 c 0,48,49
 559 1425 559 1425 619.5 1387.5 c 128,-1,50
 680 1350 680 1350 722 1280 c 128,-1,51
 764 1210 764 1210 789.5 1114 c 128,-1,52
 815 1018 815 1018 825 899 c 1,53,-1
 1296 899 l 2,54,55
 1423 899 1423 899 1486.5 785.5 c 128,-1,56
 1550 672 1550 672 1550 438 c 2,57,-1
 1550 23 l 2,58,59
 1550 -63 1550 -63 1535 -128 c 128,-1,60
 1520 -193 1520 -193 1489 -241 c 128,-1,61
 1458 -289 1458 -289 1412 -322.5 c 128,-1,62
 1366 -356 1366 -356 1309 -383 c 0,63,64
 1274 -397 1274 -397 1254.5 -409.5 c 128,-1,65
 1235 -422 1235 -422 1219.5 -435.5 c 128,-1,66
 1204 -449 1204 -449 1194 -466 c 128,-1,67
 1184 -483 1184 -483 1171 -512 c 1,68,-1
 1149 -512 l 1,69,-1
 1214 -225 l 1,70,71
 1228 -221 1228 -221 1241.5 -217 c 128,-1,72
 1255 -213 1255 -213 1270.5 -209 c 128,-1,73
 1286 -205 1286 -205 1304.5 -194.5 c 128,-1,74
 1323 -184 1323 -184 1348 -170 c 0,75,76
 1362 -162 1362 -162 1382.5 -148.5 c 128,-1,77
 1403 -135 1403 -135 1419.5 -112.5 c 128,-1,78
 1436 -90 1436 -90 1447 -57.5 c 128,-1,79
 1458 -25 1458 -25 1458 23 c 2,80,-1
 1458 438 l 2,81,82
 1458 553 1458 553 1415 611.5 c 128,-1,83
 1372 670 1372 670 1296 670 c 2,84,-1
 928 670 l 1,11,12
EndSplineSet
EndChar

StartChar: uniE01A
Encoding: 57370 57370 26
Width: 1736
Flags: W
LayerCount: 2
Fore
SplineSet
535 670 m 1,0,-1
 205 670 l 1,1,2
 205 602 205 602 207 543.5 c 128,-1,3
 209 485 209 485 223.5 442 c 128,-1,4
 238 399 238 399 272.5 374.5 c 128,-1,5
 307 350 307 350 371 350 c 0,6,7
 432 350 432 350 465 373.5 c 128,-1,8
 498 397 498 397 514 440 c 128,-1,9
 530 483 530 483 532.5 540.5 c 128,-1,10
 535 598 535 598 535 670 c 1,0,-1
879 670 m 1,11,12
 897 598 897 598 923.5 541.5 c 128,-1,13
 950 485 950 485 977 443 c 128,-1,14
 1004 401 1004 401 1030.5 370.5 c 128,-1,15
 1057 340 1057 340 1071 315 c 1,16,-1
 1032 113 l 1,17,-1
 1004 113 l 1,18,19
 910 222 910 222 846 410 c 128,-1,20
 782 598 782 598 755.5 767 c 128,-1,21
 729 936 729 936 701.5 1005.5 c 128,-1,22
 674 1075 674 1075 637 1122 c 128,-1,23
 600 1169 600 1169 558 1196 c 128,-1,24
 516 1223 516 1223 471 1223 c 0,25,26
 266 1223 266 1223 209 899 c 1,27,-1
 510 899 l 2,28,29
 614 899 614 899 614 795 c 0,30,31
 614 793 614 793 614 791 c 2,32,-1
 614 553 l 2,33,34
 614 483 614 483 603 414.5 c 128,-1,35
 592 346 592 346 563.5 292 c 128,-1,36
 535 238 535 238 487.5 204 c 128,-1,37
 440 170 440 170 371 170 c 0,38,39
 316 170 316 170 276 195.5 c 128,-1,40
 236 221 236 221 209 262 c 128,-1,41
 182 303 182 303 163.5 355.5 c 128,-1,42
 145 408 145 408 136 461 c 128,-1,43
 127 514 127 514 125 570.5 c 128,-1,44
 123 627 123 627 123 670 c 2,45,-1
 123 901 l 1,46,47
 139 1155 139 1155 226 1290 c 128,-1,48
 313 1425 313 1425 471 1425 c 0,49,50
 551 1425 551 1425 610.5 1376 c 128,-1,51
 670 1327 670 1327 712 1252.5 c 128,-1,52
 754 1178 754 1178 779.5 1084.5 c 128,-1,53
 805 991 805 991 813 899 c 1,54,-1
 1380 899 l 1,55,56
 1474 893 1474 893 1526.5 823.5 c 128,-1,57
 1579 754 1579 754 1579 637 c 2,58,-1
 1579 516 l 2,59,60
 1579 444 1579 444 1554.5 400 c 128,-1,61
 1530 356 1530 356 1491 356 c 1,62,-1
 1491 379 l 2,63,64
 1491 516 1491 516 1441 591 c 128,-1,65
 1391 666 1391 666 1290 670 c 1,66,-1
 879 670 l 1,11,12
EndSplineSet
EndChar

StartChar: uniE01B
Encoding: 57371 57371 27
Width: 1093
Flags: W
LayerCount: 2
Fore
SplineSet
950 901 m 1,0,-1
 950 666 l 2,1,2
 950 560 950 560 938 476.5 c 128,-1,3
 926 393 926 393 900 334.5 c 128,-1,4
 874 276 874 276 835.5 245.5 c 128,-1,5
 797 215 797 215 737 215 c 0,6,7
 643 215 643 215 593 285.5 c 128,-1,8
 543 356 543 356 539 500 c 1,9,10
 535 359 535 359 484.5 287 c 128,-1,11
 434 215 434 215 340 215 c 0,12,13
 283 215 283 215 242 245.5 c 128,-1,14
 201 276 201 276 176.5 334.5 c 128,-1,15
 152 393 152 393 140.5 476 c 128,-1,16
 129 559 129 559 129 666 c 2,17,-1
 129 901 l 1,18,19
 135 1028 135 1028 172 1127.5 c 128,-1,20
 209 1227 209 1227 264 1293.5 c 128,-1,21
 319 1360 319 1360 391 1395 c 128,-1,22
 463 1430 463 1430 543 1430 c 0,23,24
 652 1430 652 1430 725.5 1383.5 c 128,-1,25
 799 1337 799 1337 848 1263.5 c 128,-1,26
 897 1190 897 1190 921.5 1093.5 c 128,-1,27
 946 997 946 997 950 901 c 1,0,-1
852 899 m 1,28,29
 846 950 846 950 827.5 1008.5 c 128,-1,30
 809 1067 809 1067 772 1113 c 128,-1,31
 735 1159 735 1159 679 1192 c 128,-1,32
 623 1225 623 1225 543 1225 c 0,33,34
 490 1225 490 1225 437.5 1203.5 c 128,-1,35
 385 1182 385 1182 340 1142 c 128,-1,36
 295 1102 295 1102 263 1041.5 c 128,-1,37
 231 981 231 981 217 899 c 1,38,-1
 428 899 l 2,39,40
 479 899 479 899 507 868.5 c 128,-1,41
 535 838 535 838 539 786 c 1,42,43
 541 837 541 837 568.5 868 c 128,-1,44
 596 899 596 899 649 899 c 2,45,-1
 852 899 l 1,28,29
459 670 m 1,46,-1
 213 670 l 1,47,48
 213 531 213 531 237.5 463 c 128,-1,49
 262 395 262 395 340 395 c 0,50,51
 379 395 379 395 401.5 410.5 c 128,-1,52
 424 426 424 426 435 460 c 128,-1,53
 446 494 446 494 452.5 544 c 128,-1,54
 459 594 459 594 459 670 c 1,46,-1
866 670 m 1,55,-1
 623 670 l 1,56,57
 623 594 623 594 626 544 c 128,-1,58
 629 494 629 494 641 460 c 128,-1,59
 653 426 653 426 676.5 410.5 c 128,-1,60
 700 395 700 395 737 395 c 0,61,62
 815 395 815 395 840.5 463 c 128,-1,63
 866 531 866 531 866 670 c 1,55,-1
EndSplineSet
EndChar

StartChar: uniE01C
Encoding: 57372 57372 28
Width: 1562
Flags: W
LayerCount: 2
Fore
SplineSet
872 899 m 5,0,1
 866 950 866 950 847.5 1008.5 c 132,-1,2
 829 1067 829 1067 792.5 1113 c 132,-1,3
 756 1159 756 1159 699.5 1192 c 132,-1,4
 643 1225 643 1225 563 1225 c 0,5,6
 510 1225 510 1225 458 1203.5 c 128,-1,7
 406 1182 406 1182 360.5 1142 c 132,-1,8
 315 1102 315 1102 283.5 1041.5 c 132,-1,9
 252 981 252 981 238 899 c 1,10,-1
 451 899 l 6,11,12
 502 899 502 899 528.5 868.5 c 132,-1,13
 555 838 555 838 559 786 c 5,14,15
 563 837 563 837 589.5 868 c 132,-1,16
 616 899 616 899 670 899 c 6,17,-1
 872 899 l 5,0,1
889 670 m 1,18,-1
 643 670 l 5,19,20
 643 596 643 596 646 545 c 128,-1,21
 649 494 649 494 661.5 460 c 128,-1,22
 674 426 674 426 697.5 410.5 c 128,-1,23
 721 395 721 395 758 395 c 0,24,25
 836 395 836 395 862.5 463 c 128,-1,26
 889 531 889 531 889 670 c 1,18,-1
479 670 m 5,27,-1
 233 670 l 1,28,29
 233 531 233 531 258 463 c 128,-1,30
 283 395 283 395 360 395 c 0,31,32
 397 395 397 395 420.5 410.5 c 128,-1,33
 444 426 444 426 456.5 460 c 128,-1,34
 469 494 469 494 474 544 c 128,-1,35
 479 594 479 594 479 670 c 5,27,-1
152 670 m 9,36,-1
 152 899 l 17,37,-1
 152 901 l 1,38,39
 158 1028 158 1028 193.5 1127.5 c 128,-1,40
 229 1227 229 1227 284.5 1293.5 c 128,-1,41
 340 1360 340 1360 411.5 1395 c 128,-1,42
 483 1430 483 1430 563 1430 c 0,43,44
 672 1430 672 1430 745.5 1383.5 c 128,-1,45
 819 1337 819 1337 868.5 1263.5 c 128,-1,46
 918 1190 918 1190 942.5 1093.5 c 128,-1,47
 967 997 967 997 971 901 c 1,48,-1
 971 899 l 1,49,-1
 1206 899 l 1,50,51
 1302 895 1302 895 1353.5 825.5 c 128,-1,52
 1405 756 1405 756 1405 637 c 2,53,-1
 1405 516 l 2,54,55
 1405 444 1405 444 1381.5 400 c 128,-1,56
 1358 356 1358 356 1319 356 c 1,57,-1
 1319 379 l 2,58,59
 1319 516 1319 516 1269 591 c 128,-1,60
 1219 666 1219 666 1118 670 c 1,61,-1
 971 670 l 1,62,-1
 971 666 l 2,63,64
 971 560 971 560 958.5 476.5 c 128,-1,65
 946 393 946 393 920.5 334.5 c 128,-1,66
 895 276 895 276 856 245.5 c 128,-1,67
 817 215 817 215 758 215 c 0,68,69
 664 215 664 215 612.5 286.5 c 128,-1,70
 561 358 561 358 559 500 c 1,71,72
 555 357 555 357 505 286 c 128,-1,73
 455 215 455 215 360 215 c 0,74,75
 301 215 301 215 261 245.5 c 128,-1,76
 221 276 221 276 196.5 334.5 c 128,-1,77
 172 393 172 393 162 476 c 128,-1,78
 152 559 152 559 152 666 c 2,79,-1
 152 670 l 9,36,-1
EndSplineSet
EndChar

StartChar: uniE01D
Encoding: 57373 57373 29
Width: 1073
Flags: W
LayerCount: 2
Fore
SplineSet
528 670 m 1,0,-1
 197 670 l 1,1,2
 197 604 197 604 199 545.5 c 128,-1,3
 201 487 201 487 216 444 c 128,-1,4
 231 401 231 401 265 376.5 c 128,-1,5
 299 352 299 352 360 352 c 0,6,7
 423 352 423 352 457.5 375.5 c 128,-1,8
 492 399 492 399 507 441 c 128,-1,9
 522 483 522 483 525 541.5 c 128,-1,10
 528 600 528 600 528 670 c 1,0,-1
723 809 m 0,11,12
 721 887 721 887 702 961 c 0,13,14
 682 1041 682 1041 648 1098 c 128,-1,15
 614 1155 614 1155 570 1188 c 128,-1,16
 526 1221 526 1221 467 1221 c 0,17,18
 260 1221 260 1221 201 899 c 1,19,-1
 504 899 l 2,20,21
 611 899 611 899 610 795 c 0,22,23
 610 793 610 793 610 791 c 2,24,-1
 610 555 l 2,25,26
 610 481 610 481 598 411.5 c 128,-1,27
 586 342 586 342 557 289 c 128,-1,28
 528 236 528 236 481 203 c 128,-1,29
 434 170 434 170 360 170 c 0,30,31
 307 170 307 170 268 194.5 c 128,-1,32
 229 219 229 219 201.5 260 c 128,-1,33
 174 301 174 301 156.5 353.5 c 128,-1,34
 139 406 139 406 130 460 c 128,-1,35
 121 514 121 514 118 569.5 c 128,-1,36
 115 625 115 625 115 670 c 2,37,-1
 115 901 l 1,38,39
 133 1157 133 1157 220 1291 c 128,-1,40
 307 1425 307 1425 467 1425 c 0,41,42
 545 1425 545 1425 604.5 1387.5 c 128,-1,43
 664 1350 664 1350 707 1280 c 128,-1,44
 750 1210 750 1210 775.5 1114 c 128,-1,45
 801 1018 801 1018 811 899 c 1,46,-1
 1176 899 l 1,47,-1
 1176 670 l 1,48,-1
 911 670 l 1,49,50
 909 639 909 639 903 585.5 c 128,-1,51
 897 532 897 532 892 473 c 128,-1,52
 887 414 887 414 878.5 360.5 c 128,-1,53
 870 307 870 307 860 276 c 1,54,-1
 815 260 l 1,55,56
 774 354 774 354 751.5 459.5 c 128,-1,57
 729 565 729 565 723 809 c 0,11,12
EndSplineSet
EndChar

StartChar: uniE01E
Encoding: 57374 57374 30
Width: 1079
Flags: W
LayerCount: 2
Fore
SplineSet
121 670 m 9,0,1
 0 670 l 25,2,-1
 0 899 l 25,3,-1
 121 899 l 1,4,-1
 121 901 l 1,5,6
 139 1157 139 1157 226 1291 c 128,-1,7
 313 1425 313 1425 473 1425 c 0,8,9
 551 1425 551 1425 611.5 1387.5 c 128,-1,10
 672 1350 672 1350 714 1280 c 128,-1,11
 756 1210 756 1210 782.5 1114 c 128,-1,12
 809 1018 809 1018 817 899 c 1,13,-1
 1182 899 l 1,14,-1
 1182 670 l 1,15,-1
 920 670 l 1,16,17
 918 639 918 639 911.5 585.5 c 128,-1,18
 905 532 905 532 899 473 c 128,-1,19
 893 414 893 414 885 360.5 c 128,-1,20
 877 307 877 307 866 276 c 1,21,-1
 821 260 l 1,22,23
 780 354 780 354 758.5 458.5 c 128,-1,24
 737 563 737 563 729 809 c 0,25,26
 727 887 727 887 709 961 c 0,27,28
 689 1041 689 1041 656 1098 c 128,-1,29
 623 1155 623 1155 577.5 1188 c 128,-1,30
 532 1221 532 1221 473 1221 c 0,31,32
 266 1221 266 1221 209 899 c 1,33,-1
 510 899 l 2,34,35
 619 899 619 899 618 791 c 2,36,-1
 618 555 l 2,37,38
 618 481 618 481 606 411.5 c 128,-1,39
 594 342 594 342 564.5 289 c 128,-1,40
 535 236 535 236 487.5 203 c 128,-1,41
 440 170 440 170 369 170 c 0,42,43
 316 170 316 170 276 194.5 c 128,-1,44
 236 219 236 219 208 260 c 128,-1,45
 180 301 180 301 163.5 353.5 c 128,-1,46
 147 406 147 406 137 460 c 128,-1,47
 127 514 127 514 124 569.5 c 128,-1,48
 121 625 121 625 121 670 c 9,0,1
203 670 m 5,49,50
 203 604 203 604 206 545.5 c 132,-1,51
 209 487 209 487 223.5 444 c 132,-1,52
 238 401 238 401 271.5 376.5 c 132,-1,53
 305 352 305 352 369 352 c 4,54,55
 432 352 432 352 466 375.5 c 132,-1,56
 500 399 500 399 515 441 c 132,-1,57
 530 483 530 483 532.5 541.5 c 132,-1,58
 535 600 535 600 535 670 c 5,59,-1
 203 670 l 5,49,50
EndSplineSet
EndChar

StartChar: uniE026
Encoding: 57382 57382 31
Width: 1501
Flags: W
LayerCount: 2
Fore
SplineSet
862 899 m 1,0,1
 856 950 856 950 838.5 1008.5 c 128,-1,2
 821 1067 821 1067 784.5 1113 c 128,-1,3
 748 1159 748 1159 691.5 1192 c 128,-1,4
 635 1225 635 1225 555 1225 c 0,5,6
 502 1225 502 1225 448.5 1203.5 c 128,-1,7
 395 1182 395 1182 350 1142 c 128,-1,8
 305 1102 305 1102 274.5 1041.5 c 128,-1,9
 244 981 244 981 229 899 c 1,10,-1
 440 899 l 2,11,12
 491 899 491 899 519 868.5 c 128,-1,13
 547 838 547 838 551 786 c 1,14,15
 553 837 553 837 580.5 868 c 128,-1,16
 608 899 608 899 662 899 c 2,17,-1
 862 899 l 1,0,1
469 670 m 1,18,-1
 225 670 l 1,19,20
 225 531 225 531 249.5 463 c 128,-1,21
 274 395 274 395 350 395 c 0,22,23
 389 395 389 395 412.5 410.5 c 128,-1,24
 436 426 436 426 447.5 460 c 128,-1,25
 459 494 459 494 464 544 c 128,-1,26
 469 594 469 594 469 670 c 1,18,-1
879 670 m 1,27,-1
 635 670 l 1,28,29
 635 594 635 594 638 544 c 128,-1,30
 641 494 641 494 653.5 460 c 128,-1,31
 666 426 666 426 689.5 410.5 c 128,-1,32
 713 395 713 395 750 395 c 0,33,34
 828 395 828 395 853.5 463 c 128,-1,35
 879 531 879 531 879 670 c 1,27,-1
963 670 m 1,36,-1
 963 666 l 2,37,38
 963 560 963 560 950.5 476.5 c 128,-1,39
 938 393 938 393 912.5 334.5 c 128,-1,40
 887 276 887 276 848 245.5 c 128,-1,41
 809 215 809 215 750 215 c 0,42,43
 656 215 656 215 605.5 285.5 c 128,-1,44
 555 356 555 356 551 500 c 1,45,46
 547 359 547 359 496.5 287 c 128,-1,47
 446 215 446 215 350 215 c 0,48,49
 293 215 293 215 253 245.5 c 128,-1,50
 213 276 213 276 188.5 334.5 c 128,-1,51
 164 393 164 393 152.5 476 c 128,-1,52
 141 559 141 559 141 666 c 2,53,-1
 141 901 l 1,54,55
 147 1028 147 1028 183 1127.5 c 128,-1,56
 219 1227 219 1227 275.5 1293.5 c 128,-1,57
 332 1360 332 1360 402.5 1395 c 128,-1,58
 473 1430 473 1430 555 1430 c 0,59,60
 664 1430 664 1430 737.5 1383.5 c 128,-1,61
 811 1337 811 1337 859 1263.5 c 128,-1,62
 907 1190 907 1190 931.5 1093.5 c 128,-1,63
 956 997 956 997 963 901 c 1,64,-1
 963 899 l 1,65,-1
 1602 899 l 1,66,-1
 1602 670 l 1,67,-1
 1128 670 l 1,68,-1
 1391 299 l 1,69,-1
 1391 266 l 1,70,-1
 1335 4 l 1,71,-1
 1305 4 l 1,72,-1
 1042 670 l 1,73,-1
 963 670 l 1,36,-1
EndSplineSet
EndChar

StartChar: uniE01F
Encoding: 57375 57375 32
Width: 1708
Flags: W
LayerCount: 2
Fore
SplineSet
518 899 m 2,0,1
 627 899 627 899 627 791 c 2,2,-1
 627 555 l 2,3,4
 627 481 627 481 614.5 411.5 c 128,-1,5
 602 342 602 342 573.5 289 c 128,-1,6
 545 236 545 236 498 203 c 128,-1,7
 451 170 451 170 377 170 c 0,8,9
 324 170 324 170 285 194.5 c 128,-1,10
 246 219 246 219 218 260 c 128,-1,11
 190 301 190 301 173 353.5 c 128,-1,12
 156 406 156 406 146.5 460 c 128,-1,13
 137 514 137 514 133 569.5 c 128,-1,14
 129 625 129 625 129 670 c 1,15,-1
 0 670 l 1,16,-1
 0 899 l 5,17,-1
 129 899 l 1,18,-1
 129 901 l 1,19,20
 147 1157 147 1157 235.5 1291 c 128,-1,21
 324 1425 324 1425 481 1425 c 0,22,23
 559 1425 559 1425 619.5 1387.5 c 128,-1,24
 680 1350 680 1350 723 1280 c 128,-1,25
 766 1210 766 1210 791.5 1114 c 128,-1,26
 817 1018 817 1018 827 899 c 1,27,-1
 1298 899 l 2,28,29
 1425 899 1425 899 1488.5 785.5 c 128,-1,30
 1552 672 1552 672 1552 438 c 2,31,-1
 1552 23 l 2,32,33
 1552 -63 1552 -63 1536 -128 c 128,-1,34
 1520 -193 1520 -193 1489 -241 c 128,-1,35
 1458 -289 1458 -289 1412 -322.5 c 128,-1,36
 1366 -356 1366 -356 1309 -383 c 0,37,38
 1274 -397 1274 -397 1254.5 -409.5 c 128,-1,39
 1235 -422 1235 -422 1220.5 -435.5 c 128,-1,40
 1206 -449 1206 -449 1196 -466 c 128,-1,41
 1186 -483 1186 -483 1171 -512 c 1,42,-1
 1149 -512 l 1,43,-1
 1214 -225 l 1,44,45
 1228 -221 1228 -221 1241.5 -217 c 128,-1,46
 1255 -213 1255 -213 1271.5 -209 c 128,-1,47
 1288 -205 1288 -205 1305.5 -194.5 c 128,-1,48
 1323 -184 1323 -184 1350 -170 c 0,49,50
 1364 -162 1364 -162 1383.5 -148.5 c 128,-1,51
 1403 -135 1403 -135 1419.5 -112.5 c 128,-1,52
 1436 -90 1436 -90 1447 -57.5 c 128,-1,53
 1458 -25 1458 -25 1458 23 c 2,54,-1
 1458 438 l 2,55,56
 1458 553 1458 553 1416 611.5 c 128,-1,57
 1374 670 1374 670 1298 670 c 2,58,-1
 928 670 l 1,59,60
 926 639 926 639 919.5 585.5 c 128,-1,61
 913 532 913 532 907 473 c 128,-1,62
 901 414 901 414 894 360.5 c 128,-1,63
 887 307 887 307 877 276 c 1,64,-1
 831 260 l 1,65,66
 790 354 790 354 767.5 458.5 c 128,-1,67
 745 563 745 563 739 809 c 0,68,69
 737 887 737 887 719 961 c 0,70,71
 699 1041 699 1041 665 1098 c 128,-1,72
 631 1155 631 1155 587 1188 c 128,-1,73
 543 1221 543 1221 481 1221 c 0,74,75
 274 1221 274 1221 217 899 c 1,76,-1
 518 899 l 2,0,1
213 670 m 1,77,78
 213 604 213 604 215 545.5 c 128,-1,79
 217 487 217 487 232.5 444 c 128,-1,80
 248 401 248 401 281.5 376.5 c 128,-1,81
 315 352 315 352 377 352 c 0,82,83
 440 352 440 352 474 375.5 c 128,-1,84
 508 399 508 399 523.5 441 c 128,-1,85
 539 483 539 483 542 541.5 c 128,-1,86
 545 600 545 600 545 670 c 1,87,-1
 213 670 l 1,77,78
EndSplineSet
EndChar

StartChar: uniE020
Encoding: 57376 57376 33
Width: 1189
Flags: W
LayerCount: 2
Fore
SplineSet
1290 899 m 1,0,-1
 1290 670 l 1,1,-1
 885 670 l 1,2,3
 903 598 903 598 929.5 541.5 c 128,-1,4
 956 485 956 485 983 443 c 128,-1,5
 1010 401 1010 401 1036.5 370.5 c 128,-1,6
 1063 340 1063 340 1077 315 c 1,7,-1
 1038 113 l 1,8,-1
 1010 113 l 1,9,10
 916 222 916 222 852 410 c 128,-1,11
 788 598 788 598 761.5 767 c 128,-1,12
 735 936 735 936 707.5 1005.5 c 128,-1,13
 680 1075 680 1075 643 1122 c 128,-1,14
 606 1169 606 1169 564 1196 c 128,-1,15
 522 1223 522 1223 477 1223 c 0,16,17
 272 1223 272 1223 213 899 c 1,18,-1
 514 899 l 2,19,20
 620 899 620 899 621 791 c 2,21,-1
 621 553 l 2,22,23
 621 483 621 483 609.5 414.5 c 128,-1,24
 598 346 598 346 569.5 292 c 128,-1,25
 541 238 541 238 493.5 204 c 128,-1,26
 446 170 446 170 377 170 c 0,27,28
 322 170 322 170 282 195.5 c 128,-1,29
 242 221 242 221 215 262 c 128,-1,30
 188 303 188 303 170 355.5 c 128,-1,31
 152 408 152 408 142.5 461 c 128,-1,32
 133 514 133 514 131 570.5 c 128,-1,33
 129 627 129 627 129 670 c 2,34,-1
 129 901 l 1,35,36
 145 1155 145 1155 232 1290 c 128,-1,37
 319 1425 319 1425 477 1425 c 0,38,39
 557 1425 557 1425 616.5 1376 c 128,-1,40
 676 1327 676 1327 718 1252.5 c 128,-1,41
 760 1178 760 1178 785.5 1084.5 c 128,-1,42
 811 991 811 991 819 899 c 1,43,-1
 1290 899 l 1,0,-1
541 670 m 1,44,-1
 211 670 l 1,45,46
 211 602 211 602 212 543.5 c 128,-1,47
 213 485 213 485 228.5 442 c 128,-1,48
 244 399 244 399 278.5 374.5 c 128,-1,49
 313 350 313 350 377 350 c 0,50,51
 438 350 438 350 471 373.5 c 128,-1,52
 504 397 504 397 520.5 440 c 128,-1,53
 537 483 537 483 539 540.5 c 128,-1,54
 541 598 541 598 541 670 c 1,44,-1
EndSplineSet
EndChar

StartChar: uniE021
Encoding: 57377 57377 34
Width: 1206
Flags: W
LayerCount: 2
Fore
SplineSet
532 899 m 2,0,1
 638 899 638 899 639 791 c 2,2,-1
 639 553 l 2,3,4
 639 483 639 483 627.5 414.5 c 128,-1,5
 616 346 616 346 587.5 292 c 128,-1,6
 559 238 559 238 512 204 c 128,-1,7
 465 170 465 170 393 170 c 0,8,9
 338 170 338 170 299 195.5 c 128,-1,10
 260 221 260 221 233.5 262 c 128,-1,11
 207 303 207 303 188.5 355.5 c 128,-1,12
 170 408 170 408 161 461 c 128,-1,13
 152 514 152 514 149.5 570.5 c 128,-1,14
 147 627 147 627 147 670 c 1,15,-1
 0 670 l 1,16,-1
 0 899 l 5,17,-1
 147 899 l 1,18,-1
 147 901 l 1,19,20
 163 1155 163 1155 250.5 1290 c 128,-1,21
 338 1425 338 1425 496 1425 c 0,22,23
 576 1425 576 1425 634 1376 c 128,-1,24
 692 1327 692 1327 735 1252.5 c 128,-1,25
 778 1178 778 1178 802.5 1084.5 c 128,-1,26
 827 991 827 991 838 899 c 1,27,-1
 1309 899 l 1,28,-1
 1309 670 l 1,29,-1
 903 670 l 1,30,31
 921 598 921 598 948 541.5 c 128,-1,32
 975 485 975 485 1001.5 443 c 128,-1,33
 1028 401 1028 401 1053.5 370.5 c 128,-1,34
 1079 340 1079 340 1096 315 c 1,35,-1
 1057 113 l 1,36,-1
 1028 113 l 1,37,38
 934 222 934 222 870.5 410 c 128,-1,39
 807 598 807 598 780.5 767 c 128,-1,40
 754 936 754 936 726 1005.5 c 128,-1,41
 698 1075 698 1075 661.5 1122 c 128,-1,42
 625 1169 625 1169 583 1196 c 128,-1,43
 541 1223 541 1223 496 1223 c 0,44,45
 291 1223 291 1223 231 899 c 1,46,-1
 532 899 l 2,0,1
227 670 m 1,47,48
 227 602 227 602 229 543.5 c 128,-1,49
 231 485 231 485 246.5 442 c 128,-1,50
 262 399 262 399 297 374.5 c 128,-1,51
 332 350 332 350 393 350 c 0,52,53
 454 350 454 350 488 373.5 c 128,-1,54
 522 397 522 397 538.5 440 c 128,-1,55
 555 483 555 483 557 540.5 c 128,-1,56
 559 598 559 598 559 670 c 1,57,-1
 227 670 l 1,47,48
EndSplineSet
EndChar

StartChar: uniE022
Encoding: 57378 57378 35
Width: 1753
Flags: W
LayerCount: 2
Fore
SplineSet
565 670 m 1,0,-1
 233 670 l 1,1,2
 233 602 233 602 235.5 543.5 c 128,-1,3
 238 485 238 485 253 442 c 128,-1,4
 268 399 268 399 303 374.5 c 128,-1,5
 338 350 338 350 399 350 c 0,6,7
 460 350 460 350 494 373.5 c 128,-1,8
 528 397 528 397 543.5 440 c 128,-1,9
 559 483 559 483 562 540.5 c 128,-1,10
 565 598 565 598 565 670 c 1,0,-1
154 899 m 1,11,-1
 154 901 l 1,12,13
 170 1155 170 1155 257 1290 c 128,-1,14
 344 1425 344 1425 502 1425 c 0,15,16
 582 1425 582 1425 640 1376 c 128,-1,17
 698 1327 698 1327 741 1252.5 c 128,-1,18
 784 1178 784 1178 809 1084.5 c 128,-1,19
 834 991 834 991 844 899 c 1,20,-1
 1409 899 l 1,21,22
 1503 893 1503 893 1555.5 823.5 c 128,-1,23
 1608 754 1608 754 1608 637 c 2,24,-1
 1608 516 l 2,25,26
 1608 444 1608 444 1583.5 400 c 128,-1,27
 1559 356 1559 356 1522 356 c 1,28,-1
 1522 379 l 2,29,30
 1522 516 1522 516 1471.5 591 c 128,-1,31
 1421 666 1421 666 1321 670 c 1,32,-1
 909 670 l 1,33,34
 927 598 927 598 954 541.5 c 128,-1,35
 981 485 981 485 1007.5 443 c 128,-1,36
 1034 401 1034 401 1059.5 370.5 c 128,-1,37
 1085 340 1085 340 1102 315 c 1,38,-1
 1063 113 l 1,39,-1
 1034 113 l 1,40,41
 940 222 940 222 877 410 c 0,42,43
 820 582 820 582 774 844 c 0,44,45
 760 936 760 936 732.5 1005.5 c 128,-1,46
 705 1075 705 1075 668 1122 c 128,-1,47
 631 1169 631 1169 589 1196 c 128,-1,48
 547 1223 547 1223 502 1223 c 0,49,50
 297 1223 297 1223 238 899 c 1,51,-1
 539 899 l 2,52,53
 645 899 645 899 645 791 c 2,54,-1
 645 553 l 2,55,56
 645 483 645 483 634 414.5 c 128,-1,57
 623 346 623 346 594 292 c 128,-1,58
 565 238 565 238 517 204 c 128,-1,59
 469 170 469 170 399 170 c 0,60,61
 344 170 344 170 305 195.5 c 128,-1,62
 266 221 266 221 239.5 262 c 128,-1,63
 213 303 213 303 194.5 355.5 c 128,-1,64
 176 408 176 408 167 461 c 128,-1,65
 158 514 158 514 156 570.5 c 128,-1,66
 154 627 154 627 154 670 c 1,67,-1
 0 670 l 1,68,-1
 0 899 l 1,69,-1
 154 899 l 1,11,-1
EndSplineSet
EndChar

StartChar: uniE023
Encoding: 57379 57379 36
Width: 980
Flags: W
LayerCount: 2
Fore
SplineSet
842 899 m 1,0,1
 836 950 836 950 818.5 1008.5 c 128,-1,2
 801 1067 801 1067 763 1113 c 128,-1,3
 725 1159 725 1159 668.5 1192 c 128,-1,4
 612 1225 612 1225 532 1225 c 0,5,6
 479 1225 479 1225 427 1203.5 c 128,-1,7
 375 1182 375 1182 330 1142 c 128,-1,8
 285 1102 285 1102 253 1041.5 c 128,-1,9
 221 981 221 981 209 899 c 1,10,-1
 420 899 l 2,11,12
 471 899 471 899 498.5 868.5 c 128,-1,13
 526 838 526 838 530 786 c 1,14,15
 532 837 532 837 560 868 c 0,16,17
 586 899 586 899 639 899 c 2,18,-1
 842 899 l 1,0,1
858 670 m 1,19,-1
 612 670 l 1,20,21
 612 594 612 594 616.5 544 c 128,-1,22
 621 494 621 494 632 460 c 128,-1,23
 643 426 643 426 666.5 410.5 c 128,-1,24
 690 395 690 395 727 395 c 0,25,26
 805 395 805 395 831.5 463 c 128,-1,27
 858 531 858 531 858 670 c 1,19,-1
449 670 m 1,28,-1
 205 670 l 1,29,30
 205 531 205 531 229.5 463 c 128,-1,31
 254 395 254 395 330 395 c 0,32,33
 369 395 369 395 392.5 410.5 c 128,-1,34
 416 426 416 426 427 460 c 128,-1,35
 438 494 438 494 443.5 544 c 128,-1,36
 449 594 449 594 449 670 c 1,28,-1
940 670 m 1,37,-1
 940 666 l 2,38,39
 940 560 940 560 929 476.5 c 128,-1,40
 918 393 918 393 891 334.5 c 128,-1,41
 864 276 864 276 826 245.5 c 128,-1,42
 788 215 788 215 727 215 c 0,43,44
 633 215 633 215 582.5 285.5 c 128,-1,45
 532 356 532 356 530 500 c 1,46,47
 526 359 526 359 476 287 c 128,-1,48
 426 215 426 215 330 215 c 0,49,50
 273 215 273 215 231.5 245.5 c 128,-1,51
 190 276 190 276 165.5 334.5 c 128,-1,52
 141 393 141 393 131 476 c 128,-1,53
 121 559 121 559 121 666 c 2,54,-1
 121 901 l 1,55,56
 127 1028 127 1028 163 1127.5 c 128,-1,57
 199 1227 199 1227 254 1293.5 c 128,-1,58
 309 1360 309 1360 381 1395 c 128,-1,59
 453 1430 453 1430 532 1430 c 0,60,61
 641 1430 641 1430 716 1383.5 c 128,-1,62
 791 1337 791 1337 839 1263.5 c 128,-1,63
 887 1190 887 1190 911.5 1093.5 c 128,-1,64
 936 997 936 997 940 901 c 1,65,-1
 940 899 l 1,66,-1
 1081 899 l 1,67,-1
 1081 670 l 1,68,-1
 940 670 l 1,37,-1
EndSplineSet
EndChar

StartChar: uniE024
Encoding: 57380 57380 37
Width: 995
Flags: W
LayerCount: 2
Fore
SplineSet
856 899 m 1,0,1
 850 950 850 950 832.5 1008.5 c 128,-1,2
 815 1067 815 1067 778 1113 c 128,-1,3
 741 1159 741 1159 685 1192 c 128,-1,4
 629 1225 629 1225 549 1225 c 0,5,6
 496 1225 496 1225 442.5 1203.5 c 128,-1,7
 389 1182 389 1182 344 1142 c 128,-1,8
 299 1102 299 1102 268.5 1041.5 c 128,-1,9
 238 981 238 981 223 899 c 1,10,-1
 434 899 l 2,11,12
 485 899 485 899 513 868.5 c 128,-1,13
 541 838 541 838 545 786 c 1,14,15
 547 837 547 837 574.5 868 c 128,-1,16
 602 899 602 899 655 899 c 2,17,-1
 856 899 l 1,0,1
465 670 m 1,18,-1
 219 670 l 1,19,20
 219 531 219 531 243.5 463 c 128,-1,21
 268 395 268 395 344 395 c 0,22,23
 383 395 383 395 406.5 410.5 c 128,-1,24
 430 426 430 426 441.5 460 c 128,-1,25
 453 494 453 494 459 544 c 128,-1,26
 465 594 465 594 465 670 c 1,18,-1
872 670 m 1,27,-1
 629 670 l 1,28,29
 629 594 629 594 632 544 c 128,-1,30
 635 494 635 494 647 460 c 128,-1,31
 659 426 659 426 683 410.5 c 128,-1,32
 707 395 707 395 743 395 c 0,33,34
 821 395 821 395 846.5 463 c 128,-1,35
 872 531 872 531 872 670 c 1,27,-1
956 670 m 1,36,-1
 956 666 l 2,37,38
 956 560 956 560 944 476.5 c 128,-1,39
 932 393 932 393 906.5 334.5 c 128,-1,40
 881 276 881 276 842 245.5 c 128,-1,41
 803 215 803 215 743 215 c 0,42,43
 649 215 649 215 599 285.5 c 128,-1,44
 549 356 549 356 545 500 c 1,45,46
 541 359 541 359 490.5 287 c 128,-1,47
 440 215 440 215 344 215 c 0,48,49
 287 215 287 215 247 245.5 c 128,-1,50
 207 276 207 276 182.5 334.5 c 128,-1,51
 158 393 158 393 146.5 476 c 128,-1,52
 135 559 135 559 135 666 c 2,53,-1
 135 670 l 1,54,-1
 0 670 l 5,55,-1
 0 899 l 1,56,-1
 135 899 l 1,57,-1
 135 901 l 1,58,59
 141 1028 141 1028 177 1127.5 c 128,-1,60
 213 1227 213 1227 269.5 1293.5 c 128,-1,61
 326 1360 326 1360 397.5 1395 c 128,-1,62
 469 1430 469 1430 549 1430 c 0,63,64
 658 1430 658 1430 731.5 1383.5 c 128,-1,65
 805 1337 805 1337 853 1263.5 c 128,-1,66
 901 1190 901 1190 925.5 1093.5 c 128,-1,67
 950 997 950 997 956 901 c 1,68,-1
 956 899 l 1,69,-1
 1096 899 l 1,70,-1
 1096 670 l 1,71,-1
 956 670 l 1,36,-1
EndSplineSet
EndChar

StartChar: uniE025
Encoding: 57381 57381 38
Width: 1087
Flags: W
LayerCount: 2
Fore
SplineSet
872 899 m 5,0,1
 866 950 866 950 847.5 1008.5 c 132,-1,2
 829 1067 829 1067 792.5 1113 c 132,-1,3
 756 1159 756 1159 699.5 1192 c 132,-1,4
 643 1225 643 1225 563 1225 c 4,5,6
 510 1225 510 1225 458 1203.5 c 132,-1,7
 406 1182 406 1182 360.5 1142 c 132,-1,8
 315 1102 315 1102 283.5 1041.5 c 132,-1,9
 252 981 252 981 238 899 c 5,10,-1
 451 899 l 6,11,12
 502 899 502 899 528.5 868.5 c 132,-1,13
 555 838 555 838 559 786 c 5,14,15
 561 837 561 837 588.5 868 c 132,-1,16
 616 899 616 899 670 899 c 6,17,-1
 872 899 l 5,0,1
889 670 m 1,18,-1
 643 670 l 1,19,20
 643 594 643 594 646 544 c 128,-1,21
 649 494 649 494 661.5 460 c 128,-1,22
 674 426 674 426 697.5 410.5 c 128,-1,23
 721 395 721 395 758 395 c 0,24,25
 836 395 836 395 862.5 463 c 128,-1,26
 889 531 889 531 889 670 c 1,18,-1
479 670 m 1,27,-1
 233 670 l 1,28,29
 233 531 233 531 258 463 c 128,-1,30
 283 395 283 395 360 395 c 0,31,32
 399 395 399 395 421.5 410.5 c 128,-1,33
 444 426 444 426 456.5 460 c 128,-1,34
 469 494 469 494 474 544 c 128,-1,35
 479 594 479 594 479 670 c 1,27,-1
152 670 m 9,36,-1
 0 670 l 25,37,-1
 0 899 l 25,38,-1
 152 899 l 17,39,-1
 152 901 l 1,40,41
 158 1028 158 1028 193.5 1127.5 c 128,-1,42
 229 1227 229 1227 284.5 1293.5 c 128,-1,43
 340 1360 340 1360 411.5 1395 c 128,-1,44
 483 1430 483 1430 563 1430 c 0,45,46
 672 1430 672 1430 745.5 1383.5 c 128,-1,47
 819 1337 819 1337 868.5 1263.5 c 128,-1,48
 918 1190 918 1190 942.5 1093.5 c 128,-1,49
 967 997 967 997 971 901 c 1,50,-1
 971 666 l 2,51,52
 971 560 971 560 958.5 476.5 c 128,-1,53
 946 393 946 393 920.5 334.5 c 128,-1,54
 895 276 895 276 856 245.5 c 128,-1,55
 817 215 817 215 758 215 c 0,56,57
 664 215 664 215 613.5 285.5 c 128,-1,58
 563 356 563 356 559 500 c 1,59,60
 555 359 555 359 505 287 c 128,-1,61
 455 215 455 215 360 215 c 0,62,63
 303 215 303 215 262 245.5 c 128,-1,64
 221 276 221 276 196.5 334.5 c 128,-1,65
 172 393 172 393 162 476 c 128,-1,66
 152 559 152 559 152 666 c 2,67,-1
 152 670 l 9,36,-1
EndSplineSet
EndChar

StartChar: uniE027
Encoding: 57383 57383 39
Width: 1673
Flags: W
LayerCount: 2
Fore
SplineSet
918 670 m 1,0,1
 916 637 916 637 910.5 581.5 c 128,-1,2
 905 526 905 526 899 468 c 128,-1,3
 893 410 893 410 885 355.5 c 128,-1,4
 877 301 877 301 866 270 c 1,5,-1
 821 256 l 1,6,7
 801 303 801 303 784.5 370.5 c 128,-1,8
 768 438 768 438 754.5 512 c 128,-1,9
 741 586 741 586 733 656.5 c 128,-1,10
 725 727 725 727 725 780 c 0,11,12
 725 893 725 893 702.5 977 c 128,-1,13
 680 1061 680 1061 644 1114 c 128,-1,14
 608 1167 608 1167 564 1194 c 128,-1,15
 520 1221 520 1221 479 1221 c 0,16,17
 272 1221 272 1221 213 899 c 1,18,-1
 516 899 l 2,19,20
 622 899 622 899 623 791 c 2,21,-1
 623 580 l 2,22,23
 623 494 623 494 608.5 433.5 c 128,-1,24
 594 373 594 373 563 331 c 128,-1,25
 532 289 532 289 487 266.5 c 128,-1,26
 442 244 442 244 381 238 c 0,27,28
 289 228 289 228 238.5 205 c 128,-1,29
 188 182 188 182 164 170 c 1,30,31
 162 186 162 186 160 207.5 c 128,-1,32
 158 229 158 229 158 240 c 0,33,34
 158 285 158 285 166 317.5 c 128,-1,35
 174 350 174 350 200.5 374.5 c 128,-1,36
 227 399 227 399 275.5 414.5 c 128,-1,37
 324 430 324 430 397 438 c 0,38,39
 430 440 430 440 454.5 450.5 c 128,-1,40
 479 461 479 461 496.5 478.5 c 128,-1,41
 514 496 514 496 523 527.5 c 128,-1,42
 532 559 532 559 532 608 c 2,43,-1
 532 670 l 1,44,-1
 127 670 l 1,45,-1
 127 899 l 1,46,47
 145 1155 145 1155 232 1290 c 128,-1,48
 319 1425 319 1425 479 1425 c 0,49,50
 557 1425 557 1425 616.5 1387.5 c 128,-1,51
 676 1350 676 1350 719 1281 c 128,-1,52
 762 1212 762 1212 787.5 1115 c 128,-1,53
 813 1018 813 1018 823 899 c 1,54,-1
 1294 899 l 2,55,56
 1421 899 1421 899 1484.5 785.5 c 128,-1,57
 1548 672 1548 672 1548 438 c 2,58,-1
 1548 23 l 2,59,60
 1548 -63 1548 -63 1533 -128 c 128,-1,61
 1518 -193 1518 -193 1487 -241 c 128,-1,62
 1456 -289 1456 -289 1410 -322.5 c 128,-1,63
 1364 -356 1364 -356 1307 -383 c 0,64,65
 1272 -397 1272 -397 1252.5 -409.5 c 128,-1,66
 1233 -422 1233 -422 1217.5 -435.5 c 128,-1,67
 1202 -449 1202 -449 1192 -466 c 128,-1,68
 1182 -483 1182 -483 1169 -512 c 1,69,-1
 1147 -512 l 1,70,-1
 1212 -225 l 1,71,72
 1226 -221 1226 -221 1239.5 -217 c 128,-1,73
 1253 -213 1253 -213 1268.5 -209 c 128,-1,74
 1284 -205 1284 -205 1302.5 -194.5 c 128,-1,75
 1321 -184 1321 -184 1346 -170 c 0,76,77
 1360 -162 1360 -162 1380.5 -148.5 c 128,-1,78
 1401 -135 1401 -135 1417.5 -112.5 c 128,-1,79
 1434 -90 1434 -90 1445 -57.5 c 128,-1,80
 1456 -25 1456 -25 1456 23 c 2,81,-1
 1456 438 l 2,82,83
 1456 553 1456 553 1413 611.5 c 128,-1,84
 1370 670 1370 670 1294 670 c 2,85,-1
 918 670 l 1,0,1
EndSplineSet
EndChar

StartChar: uniE028
Encoding: 57384 57384 40
Width: 1763
Flags: W
LayerCount: 2
Fore
SplineSet
924 670 m 1,0,1
 947 572 947 572 994.5 483.5 c 128,-1,2
 1042 395 1042 395 1106 317 c 1,3,-1
 1071 111 l 1,4,-1
 1040 111 l 1,5,6
 936 258 936 258 878.5 430 c 128,-1,7
 821 602 821 602 791 786 c 0,8,9
 771 899 771 899 740 981 c 128,-1,10
 709 1063 709 1063 673 1116 c 128,-1,11
 637 1169 637 1169 595 1196 c 128,-1,12
 553 1223 553 1223 508 1223 c 0,13,14
 303 1223 303 1223 246 899 c 1,15,-1
 547 899 l 2,16,17
 651 899 651 899 651 795 c 0,18,19
 651 793 651 793 651 791 c 2,20,-1
 651 584 l 2,21,22
 651 498 651 498 636 437.5 c 128,-1,23
 621 377 621 377 592 336 c 128,-1,24
 563 295 563 295 518 272.5 c 128,-1,25
 473 250 473 250 412 240 c 0,26,27
 320 230 320 230 269.5 209 c 128,-1,28
 219 188 219 188 197 172 c 1,29,30
 195 192 195 192 192.5 214 c 128,-1,31
 190 236 190 236 190 246 c 0,32,33
 190 291 190 291 198.5 322.5 c 128,-1,34
 207 354 207 354 233.5 380 c 128,-1,35
 260 406 260 406 306 421 c 128,-1,36
 352 436 352 436 428 444 c 0,37,38
 459 446 459 446 483.5 454.5 c 128,-1,39
 508 463 508 463 526.5 481.5 c 128,-1,40
 545 500 545 500 552 529.5 c 128,-1,41
 559 559 559 559 559 612 c 2,42,-1
 559 670 l 1,43,-1
 160 670 l 1,44,-1
 160 899 l 1,45,46
 176 1153 176 1153 263 1289 c 128,-1,47
 350 1425 350 1425 508 1425 c 0,48,49
 588 1425 588 1425 646.5 1381 c 128,-1,50
 705 1337 705 1337 748 1264.5 c 128,-1,51
 791 1192 791 1192 819.5 1095.5 c 128,-1,52
 848 999 848 999 862 899 c 1,53,-1
 1399 899 l 1,54,55
 1491 893 1491 893 1544 822.5 c 128,-1,56
 1597 752 1597 752 1597 633 c 2,57,-1
 1597 512 l 2,58,59
 1597 440 1597 440 1572.5 396 c 128,-1,60
 1548 352 1548 352 1511 352 c 1,61,-1
 1511 375 l 2,62,63
 1511 510 1511 510 1460 588 c 128,-1,64
 1409 666 1409 666 1311 670 c 1,65,-1
 924 670 l 1,0,1
EndSplineSet
EndChar

StartChar: uniE029
Encoding: 57385 57385 41
Width: 1130
Flags: W
LayerCount: 2
Fore
SplineSet
874 899 m 1,0,1
 868 950 868 950 851 1008.5 c 128,-1,2
 834 1067 834 1067 797 1113 c 128,-1,3
 760 1159 760 1159 702.5 1192 c 128,-1,4
 645 1225 645 1225 565 1225 c 0,5,6
 512 1225 512 1225 460 1203.5 c 128,-1,7
 408 1182 408 1182 362.5 1142 c 128,-1,8
 317 1102 317 1102 286.5 1041.5 c 128,-1,9
 256 981 256 981 242 899 c 1,10,-1
 453 899 l 2,11,12
 504 899 504 899 531.5 868.5 c 128,-1,13
 559 838 559 838 563 786 c 1,14,15
 565 837 565 837 593 868 c 128,-1,16
 621 899 621 899 674 899 c 2,17,-1
 874 899 l 1,0,1
891 670 m 1,18,-1
 645 670 l 1,19,20
 645 594 645 594 649 544 c 128,-1,21
 653 494 653 494 665.5 460 c 128,-1,22
 678 426 678 426 701.5 410.5 c 128,-1,23
 725 395 725 395 762 395 c 0,24,25
 840 395 840 395 865.5 463 c 128,-1,26
 891 531 891 531 891 670 c 1,18,-1
483 670 m 1,27,-1
 154 670 l 1,28,-1
 154 901 l 1,29,30
 160 1028 160 1028 195.5 1127.5 c 128,-1,31
 231 1227 231 1227 286.5 1293.5 c 128,-1,32
 342 1360 342 1360 413.5 1395 c 128,-1,33
 485 1430 485 1430 565 1430 c 0,34,35
 674 1430 674 1430 748.5 1383.5 c 128,-1,36
 823 1337 823 1337 871.5 1263.5 c 128,-1,37
 920 1190 920 1190 944.5 1093.5 c 128,-1,38
 969 997 969 997 975 901 c 1,39,-1
 975 666 l 2,40,41
 975 560 975 560 962.5 476.5 c 128,-1,42
 950 393 950 393 923.5 334.5 c 128,-1,43
 897 276 897 276 859 245.5 c 128,-1,44
 821 215 821 215 762 215 c 0,45,46
 668 215 668 215 616 287 c 0,47,48
 567 355 567 355 563 489 c 1,49,50
 557 387 557 387 510 324 c 0,51,52
 457 256 457 256 352 242 c 0,53,54
 270 232 270 232 225 211 c 128,-1,55
 180 190 180 190 158 176 c 1,56,57
 156 192 156 192 155 215 c 128,-1,58
 154 238 154 238 154 248 c 0,59,60
 154 293 154 293 162 324.5 c 128,-1,61
 170 356 170 356 193.5 382 c 128,-1,62
 217 408 217 408 258 422 c 128,-1,63
 299 436 299 436 365 444 c 0,64,65
 394 448 394 448 415 456.5 c 128,-1,66
 436 465 436 465 452.5 483.5 c 128,-1,67
 469 502 469 502 476 531.5 c 128,-1,68
 483 561 483 561 483 612 c 2,69,-1
 483 670 l 1,27,-1
EndSplineSet
EndChar

StartChar: uniE02A
Encoding: 57386 57386 42
Width: 1583
Flags: W
LayerCount: 2
Fore
SplineSet
905 670 m 5,0,-1
 662 670 l 5,1,2
 662 594 662 594 665 544 c 132,-1,3
 668 494 668 494 680 460 c 132,-1,4
 692 426 692 426 715.5 410.5 c 132,-1,5
 739 395 739 395 776 395 c 4,6,7
 854 395 854 395 879.5 463 c 132,-1,8
 905 531 905 531 905 670 c 5,0,-1
469 899 m 6,9,10
 520 899 520 899 546.5 868.5 c 132,-1,11
 573 838 573 838 578 786 c 5,12,13
 580 837 580 837 607.5 868 c 132,-1,14
 635 899 635 899 688 899 c 6,15,-1
 891 899 l 5,16,17
 885 950 885 950 866.5 1008.5 c 132,-1,18
 848 1067 848 1067 811 1113 c 132,-1,19
 774 1159 774 1159 718 1192 c 132,-1,20
 662 1225 662 1225 582 1225 c 4,21,22
 529 1225 529 1225 476.5 1203.5 c 132,-1,23
 424 1182 424 1182 379 1142 c 132,-1,24
 334 1102 334 1102 302 1041.5 c 132,-1,25
 270 981 270 981 256 899 c 5,26,-1
 469 899 l 6,9,10
170 899 m 21,27,-1
 170 901 l 5,28,29
 176 1028 176 1028 212 1127.5 c 132,-1,30
 248 1227 248 1227 303 1293.5 c 132,-1,31
 358 1360 358 1360 430 1395 c 132,-1,32
 502 1430 502 1430 582 1430 c 4,33,34
 691 1430 691 1430 764.5 1383.5 c 132,-1,35
 838 1337 838 1337 887 1263.5 c 132,-1,36
 936 1190 936 1190 959.5 1093.5 c 132,-1,37
 983 997 983 997 989 901 c 5,38,-1
 989 899 l 5,39,-1
 1225 899 l 5,40,41
 1319 893 1319 893 1371 823.5 c 132,-1,42
 1423 754 1423 754 1423 637 c 6,43,-1
 1423 516 l 6,44,45
 1423 444 1423 444 1398.5 400 c 132,-1,46
 1374 356 1374 356 1335 356 c 5,47,-1
 1335 379 l 6,48,49
 1335 516 1335 516 1286 591 c 132,-1,50
 1237 666 1237 666 1137 670 c 5,51,-1
 989 670 l 5,52,-1
 989 666 l 6,53,54
 989 560 989 560 977 476.5 c 132,-1,55
 965 393 965 393 939 334.5 c 132,-1,56
 913 276 913 276 874.5 245.5 c 132,-1,57
 836 215 836 215 776 215 c 4,58,59
 684 215 684 215 633 287 c 4,60,61
 584 355 584 355 578 489 c 5,62,63
 572 387 572 387 524 324 c 4,64,65
 471 254 471 254 367 242 c 4,66,67
 285 232 285 232 241 211 c 132,-1,68
 197 190 197 190 172 176 c 5,69,70
 170 192 170 192 170 215 c 132,-1,71
 170 238 170 238 170 248 c 4,72,73
 170 293 170 293 177 324.5 c 132,-1,74
 184 356 184 356 207.5 382 c 132,-1,75
 231 408 231 408 272 422 c 132,-1,76
 313 436 313 436 379 444 c 4,77,78
 408 448 408 448 430.5 456.5 c 132,-1,79
 453 465 453 465 468 483.5 c 132,-1,80
 483 502 483 502 490.5 531.5 c 132,-1,81
 498 561 498 561 498 612 c 6,82,-1
 498 670 l 5,83,-1
 168 670 l 13,84,-1
 170 899 l 21,27,-1
EndSplineSet
EndChar

StartChar: uniE02B
Encoding: 57387 57387 43
Width: 1122
Flags: W
LayerCount: 2
Fore
SplineSet
1223 899 m 1,0,-1
 1223 670 l 1,1,-1
 952 670 l 1,2,3
 950 637 950 637 945 581.5 c 128,-1,4
 940 526 940 526 934 468 c 128,-1,5
 928 410 928 410 919.5 355.5 c 128,-1,6
 911 301 911 301 901 270 c 1,7,-1
 856 256 l 1,8,9
 836 303 836 303 819.5 370.5 c 128,-1,10
 803 438 803 438 789.5 512 c 128,-1,11
 776 586 776 586 768 656.5 c 128,-1,12
 760 727 760 727 760 780 c 0,13,14
 760 893 760 893 737.5 977 c 128,-1,15
 715 1061 715 1061 679 1114 c 128,-1,16
 643 1167 643 1167 599 1194 c 128,-1,17
 555 1221 555 1221 514 1221 c 0,18,19
 307 1221 307 1221 248 899 c 1,20,-1
 551 899 l 2,21,22
 657 899 657 899 657 791 c 2,23,-1
 657 580 l 2,24,25
 657 494 657 494 643 433.5 c 128,-1,26
 629 373 629 373 598 331 c 128,-1,27
 567 289 567 289 522 266.5 c 128,-1,28
 477 244 477 244 416 238 c 0,29,30
 324 228 324 228 273.5 205 c 128,-1,31
 223 182 223 182 199 170 c 1,32,33
 197 186 197 186 195 207.5 c 128,-1,34
 193 229 193 229 193 240 c 0,35,36
 193 285 193 285 202 317.5 c 128,-1,37
 211 350 211 350 236.5 374.5 c 128,-1,38
 262 399 262 399 310 414.5 c 128,-1,39
 358 430 358 430 432 438 c 0,40,41
 465 440 465 440 489.5 450.5 c 128,-1,42
 514 461 514 461 532.5 478.5 c 128,-1,43
 551 496 551 496 559 527.5 c 128,-1,44
 567 559 567 559 567 608 c 2,45,-1
 567 670 l 1,46,-1
 162 670 l 1,47,-1
 162 899 l 1,48,49
 180 1155 180 1155 267 1290 c 128,-1,50
 354 1425 354 1425 514 1425 c 0,51,52
 592 1425 592 1425 651.5 1387.5 c 128,-1,53
 711 1350 711 1350 754 1281 c 128,-1,54
 797 1212 797 1212 823.5 1115 c 128,-1,55
 850 1018 850 1018 858 899 c 1,56,-1
 1223 899 l 1,0,-1
EndSplineSet
EndChar

StartChar: uniE02C
Encoding: 57388 57388 44
Width: 1118
Flags: W
LayerCount: 2
Fore
SplineSet
160 899 m 1,0,1
 178 1155 178 1155 265 1290 c 128,-1,2
 352 1425 352 1425 512 1425 c 0,3,4
 590 1425 590 1425 649.5 1387.5 c 128,-1,5
 709 1350 709 1350 752 1281 c 128,-1,6
 795 1212 795 1212 821.5 1115 c 128,-1,7
 848 1018 848 1018 856 899 c 1,8,-1
 1221 899 l 1,9,-1
 1221 670 l 1,10,-1
 950 670 l 1,11,12
 948 637 948 637 943 581.5 c 128,-1,13
 938 526 938 526 932 468 c 128,-1,14
 926 410 926 410 917.5 355.5 c 128,-1,15
 909 301 909 301 899 270 c 1,16,-1
 854 256 l 1,17,18
 834 303 834 303 817.5 370.5 c 128,-1,19
 801 438 801 438 787.5 512 c 128,-1,20
 774 586 774 586 766 656.5 c 128,-1,21
 758 727 758 727 758 780 c 0,22,23
 758 893 758 893 735.5 977 c 128,-1,24
 713 1061 713 1061 677 1114 c 128,-1,25
 641 1167 641 1167 598 1194 c 128,-1,26
 555 1221 555 1221 512 1221 c 0,27,28
 305 1221 305 1221 246 899 c 1,29,-1
 549 899 l 2,30,31
 655 899 655 899 655 791 c 2,32,-1
 655 580 l 2,33,34
 655 494 655 494 641 433.5 c 128,-1,35
 627 373 627 373 596 331 c 128,-1,36
 565 289 565 289 520 266.5 c 128,-1,37
 475 244 475 244 414 238 c 0,38,39
 322 228 322 228 271.5 205 c 128,-1,40
 221 182 221 182 197 170 c 1,41,42
 195 186 195 186 192.5 207.5 c 128,-1,43
 190 229 190 229 190 240 c 0,44,45
 190 285 190 285 199.5 317.5 c 128,-1,46
 209 350 209 350 234.5 374.5 c 128,-1,47
 260 399 260 399 309 416 c 0,48,49
 366 434 366 434 430 438 c 0,50,51
 463 440 463 440 487.5 450.5 c 128,-1,52
 512 461 512 461 530.5 478.5 c 128,-1,53
 549 496 549 496 557 527.5 c 128,-1,54
 565 559 565 559 565 608 c 2,55,-1
 565 670 l 1,56,-1
 0 670 l 1,57,-1
 0 899 l 1,58,-1
 160 899 l 1,0,1
EndSplineSet
EndChar

StartChar: uniE02D
Encoding: 57389 57389 45
Width: 1736
Flags: W
LayerCount: 2
Fore
SplineSet
166 899 m 1,0,1
 184 1155 184 1155 271 1290 c 128,-1,2
 358 1425 358 1425 518 1425 c 0,3,4
 596 1425 596 1425 655.5 1387.5 c 128,-1,5
 715 1350 715 1350 758 1281 c 128,-1,6
 801 1212 801 1212 827.5 1115 c 128,-1,7
 854 1018 854 1018 862 899 c 1,8,-1
 1333 899 l 2,9,10
 1460 899 1460 899 1523.5 785.5 c 128,-1,11
 1587 672 1587 672 1587 438 c 2,12,-1
 1587 23 l 2,13,14
 1587 -63 1587 -63 1571.5 -128 c 128,-1,15
 1556 -193 1556 -193 1525.5 -241 c 128,-1,16
 1495 -289 1495 -289 1449 -322.5 c 128,-1,17
 1403 -356 1403 -356 1346 -383 c 0,18,19
 1311 -397 1311 -397 1291.5 -409.5 c 128,-1,20
 1272 -422 1272 -422 1256.5 -435.5 c 128,-1,21
 1241 -449 1241 -449 1231 -466 c 128,-1,22
 1221 -483 1221 -483 1208 -512 c 1,23,-1
 1186 -512 l 1,24,-1
 1251 -225 l 1,25,26
 1265 -221 1265 -221 1278.5 -217 c 128,-1,27
 1292 -213 1292 -213 1307.5 -209 c 128,-1,28
 1323 -205 1323 -205 1341.5 -194.5 c 128,-1,29
 1360 -184 1360 -184 1384 -170 c 0,30,31
 1398 -162 1398 -162 1419 -148.5 c 128,-1,32
 1440 -135 1440 -135 1456.5 -112.5 c 128,-1,33
 1473 -90 1473 -90 1484 -57.5 c 128,-1,34
 1495 -25 1495 -25 1495 23 c 2,35,-1
 1495 438 l 2,36,37
 1495 553 1495 553 1452 611.5 c 128,-1,38
 1409 670 1409 670 1333 670 c 2,39,-1
 956 670 l 1,40,41
 954 637 954 637 949 581.5 c 128,-1,42
 944 526 944 526 938 468 c 128,-1,43
 932 410 932 410 923.5 355.5 c 128,-1,44
 915 301 915 301 905 270 c 1,45,-1
 860 256 l 1,46,47
 840 303 840 303 823.5 370.5 c 128,-1,48
 807 438 807 438 793.5 512 c 128,-1,49
 780 586 780 586 772 656.5 c 128,-1,50
 764 727 764 727 764 780 c 0,51,52
 764 893 764 893 741.5 977 c 128,-1,53
 719 1061 719 1061 683 1114 c 128,-1,54
 647 1167 647 1167 603 1194 c 128,-1,55
 559 1221 559 1221 518 1221 c 0,56,57
 311 1221 311 1221 252 899 c 1,58,-1
 555 899 l 2,59,60
 661 899 661 899 662 791 c 2,61,-1
 662 580 l 2,62,63
 662 494 662 494 647.5 433.5 c 128,-1,64
 633 373 633 373 602 331 c 128,-1,65
 571 289 571 289 526 266.5 c 128,-1,66
 481 244 481 244 420 238 c 0,67,68
 328 228 328 228 277.5 205 c 128,-1,69
 227 182 227 182 203 170 c 1,70,71
 201 186 201 186 199 207.5 c 128,-1,72
 197 229 197 229 197 240 c 0,73,74
 197 285 197 285 205 317.5 c 128,-1,75
 213 350 213 350 239.5 374.5 c 128,-1,76
 266 399 266 399 315 416 c 0,77,78
 372 434 372 434 436 438 c 0,79,80
 469 440 469 440 493.5 450.5 c 128,-1,81
 518 461 518 461 536.5 478.5 c 128,-1,82
 555 496 555 496 563 527.5 c 128,-1,83
 571 559 571 559 571 608 c 2,84,-1
 571 670 l 1,85,-1
 0 670 l 5,86,-1
 0 899 l 1,87,-1
 166 899 l 1,0,1
EndSplineSet
EndChar

StartChar: uniE02E
Encoding: 57390 57390 46
Width: 1222
Flags: W
LayerCount: 2
Fore
SplineSet
1323 899 m 1,0,-1
 1323 670 l 1,1,-1
 928 670 l 1,2,3
 951 572 951 572 999 483.5 c 128,-1,4
 1047 395 1047 395 1110 317 c 1,5,-1
 1075 111 l 1,6,-1
 1044 111 l 1,7,8
 940 258 940 258 881.5 430 c 128,-1,9
 823 602 823 602 795 786 c 0,10,11
 775 899 775 899 744 981 c 128,-1,12
 713 1063 713 1063 676 1116 c 128,-1,13
 639 1169 639 1169 597 1196 c 128,-1,14
 555 1223 555 1223 512 1223 c 0,15,16
 307 1223 307 1223 248 899 c 1,17,-1
 549 899 l 2,18,19
 655 899 655 899 655 791 c 2,20,-1
 655 584 l 2,21,22
 655 498 655 498 640 437.5 c 128,-1,23
 625 377 625 377 595 336 c 128,-1,24
 565 295 565 295 520 272.5 c 128,-1,25
 475 250 475 250 416 240 c 0,26,27
 324 230 324 230 272.5 209 c 128,-1,28
 221 188 221 188 199 172 c 1,29,30
 197 192 197 192 196 214 c 128,-1,31
 195 236 195 236 195 246 c 0,32,33
 195 291 195 291 203 322.5 c 128,-1,34
 211 354 211 354 237.5 380 c 128,-1,35
 264 406 264 406 310 421 c 128,-1,36
 356 436 356 436 430 444 c 0,37,38
 461 446 461 446 486.5 454.5 c 128,-1,39
 512 463 512 463 529.5 481.5 c 128,-1,40
 547 500 547 500 555 529.5 c 128,-1,41
 563 559 563 559 563 612 c 2,42,-1
 563 670 l 1,43,-1
 164 670 l 1,44,-1
 164 899 l 1,45,46
 180 1153 180 1153 267 1289 c 128,-1,47
 354 1425 354 1425 512 1425 c 0,48,49
 592 1425 592 1425 649.5 1381 c 128,-1,50
 707 1337 707 1337 751 1264.5 c 128,-1,51
 795 1192 795 1192 823.5 1095.5 c 128,-1,52
 852 999 852 999 864 899 c 1,53,-1
 1323 899 l 1,0,-1
EndSplineSet
EndChar

StartChar: uniE02F
Encoding: 57391 57391 47
Width: 1218
Flags: W
LayerCount: 2
Fore
SplineSet
162 899 m 1,0,1
 178 1153 178 1153 265 1289 c 128,-1,2
 352 1425 352 1425 510 1425 c 0,3,4
 590 1425 590 1425 647.5 1381 c 128,-1,5
 705 1337 705 1337 749 1264.5 c 128,-1,6
 793 1192 793 1192 821.5 1095.5 c 128,-1,7
 850 999 850 999 862 899 c 1,8,-1
 1321 899 l 1,9,-1
 1321 670 l 1,10,-1
 926 670 l 1,11,12
 949 572 949 572 996.5 483.5 c 128,-1,13
 1044 395 1044 395 1108 317 c 1,14,-1
 1073 111 l 1,15,-1
 1042 111 l 1,16,17
 938 258 938 258 881 430 c 0,18,19
 826 592 826 592 793 786 c 0,20,21
 775 888 775 888 741 981 c 0,22,23
 710 1063 710 1063 673.5 1116 c 128,-1,24
 637 1169 637 1169 596 1196 c 128,-1,25
 555 1223 555 1223 510 1223 c 0,26,27
 305 1223 305 1223 246 899 c 1,28,-1
 547 899 l 2,29,30
 653 899 653 899 653 791 c 2,31,-1
 653 584 l 2,32,33
 653 498 653 498 638 437.5 c 128,-1,34
 623 377 623 377 593 336 c 128,-1,35
 563 295 563 295 518 272 c 0,36,37
 469 247 469 247 414 240 c 0,38,39
 318 228 318 228 270 209 c 0,40,41
 219 189 219 189 197 172 c 1,42,43
 195 192 195 192 194 214 c 128,-1,44
 193 236 193 236 193 246 c 0,45,46
 193 291 193 291 201 322.5 c 128,-1,47
 209 354 209 354 235.5 380 c 128,-1,48
 262 406 262 406 307 420 c 0,49,50
 358 438 358 438 428 444 c 0,51,52
 465 448 465 448 485 455 c 0,53,54
 510 463 510 463 527.5 481.5 c 128,-1,55
 545 500 545 500 553 529.5 c 128,-1,56
 561 559 561 559 561 612 c 2,57,-1
 561 670 l 1,58,-1
 0 670 l 5,59,-1
 0 899 l 1,60,-1
 162 899 l 1,0,1
EndSplineSet
EndChar

StartChar: uniE030
Encoding: 57392 57392 48
Width: 1630
Flags: W
LayerCount: 2
Fore
SplineSet
938 670 m 1,0,1
 961 572 961 572 1009 483.5 c 128,-1,2
 1057 395 1057 395 1118 317 c 1,3,-1
 1085 111 l 1,4,-1
 1055 111 l 1,5,6
 951 258 951 258 893 430 c 0,7,8
 838 592 838 592 805 786 c 0,9,10
 787 888 787 888 752 981 c 0,11,12
 721 1063 721 1063 685 1116 c 128,-1,13
 649 1169 649 1169 607 1196 c 128,-1,14
 565 1223 565 1223 520 1223 c 0,15,16
 315 1223 315 1223 258 899 c 1,17,-1
 559 899 l 2,18,19
 665 899 665 899 666 791 c 2,20,-1
 666 584 l 2,21,22
 666 498 666 498 650.5 437.5 c 128,-1,23
 635 377 635 377 605 336 c 128,-1,24
 575 295 575 295 530 272 c 0,25,26
 481 247 481 247 426 240 c 0,27,28
 330 228 330 228 283 209 c 0,29,30
 232 189 232 189 209 172 c 1,31,32
 207 192 207 192 206 214 c 128,-1,33
 205 236 205 236 205 246 c 0,34,35
 205 291 205 291 212 322.5 c 128,-1,36
 219 354 219 354 246.5 380 c 128,-1,37
 274 406 274 406 319 420 c 0,38,39
 370 438 370 438 440 444 c 0,40,41
 477 448 477 448 496 455 c 0,42,43
 521 463 521 463 539 481.5 c 128,-1,44
 557 500 557 500 565 529.5 c 128,-1,45
 573 559 573 559 573 612 c 2,46,-1
 573 670 l 1,47,-1
 0 670 l 5,48,-1
 0 899 l 1,49,-1
 172 899 l 1,50,51
 188 1153 188 1153 276.5 1289 c 128,-1,52
 365 1425 365 1425 520 1425 c 0,53,54
 600 1425 600 1425 658.5 1381 c 128,-1,55
 717 1337 717 1337 761 1264.5 c 128,-1,56
 805 1192 805 1192 832.5 1095.5 c 128,-1,57
 860 999 860 999 874 899 c 1,58,-1
 1411 899 l 1,59,60
 1503 893 1503 893 1557.5 822.5 c 128,-1,61
 1612 752 1612 752 1612 633 c 2,62,-1
 1612 512 l 2,63,64
 1612 440 1612 440 1586.5 396 c 128,-1,65
 1561 352 1561 352 1524 352 c 1,66,-1
 1524 375 l 2,67,68
 1524 510 1524 510 1472.5 588 c 128,-1,69
 1421 666 1421 666 1323 670 c 1,70,-1
 938 670 l 1,0,1
EndSplineSet
EndChar

StartChar: uniE031
Encoding: 57393 57393 49
Width: 995
Flags: W
LayerCount: 2
Fore
SplineSet
856 899 m 1,0,1
 850 950 850 950 832.5 1008.5 c 128,-1,2
 815 1067 815 1067 778 1113 c 128,-1,3
 741 1159 741 1159 685 1192 c 128,-1,4
 629 1225 629 1225 549 1225 c 0,5,6
 496 1225 496 1225 442.5 1203.5 c 128,-1,7
 389 1182 389 1182 344 1142 c 128,-1,8
 299 1102 299 1102 268.5 1041.5 c 128,-1,9
 238 981 238 981 223 899 c 1,10,-1
 434 899 l 2,11,12
 485 899 485 899 513 868.5 c 128,-1,13
 541 838 541 838 545 786 c 1,14,15
 547 837 547 837 574.5 868 c 128,-1,16
 602 899 602 899 655 899 c 2,17,-1
 856 899 l 1,0,1
872 670 m 1,18,-1
 629 670 l 1,19,20
 629 594 629 594 632 544 c 128,-1,21
 635 494 635 494 647 460 c 128,-1,22
 659 426 659 426 683 410.5 c 128,-1,23
 707 395 707 395 743 395 c 0,24,25
 821 395 821 395 846.5 463 c 128,-1,26
 872 531 872 531 872 670 c 1,18,-1
956 670 m 1,27,-1
 956 666 l 2,28,29
 956 560 956 560 944 476.5 c 128,-1,30
 932 393 932 393 906.5 334.5 c 128,-1,31
 881 276 881 276 842 245.5 c 128,-1,32
 803 215 803 215 743 215 c 0,33,34
 649 215 649 215 598 287 c 0,35,36
 549 355 549 355 545 489 c 1,37,38
 539 387 539 387 492 324 c 0,39,40
 439 256 439 256 334 242 c 0,41,42
 252 232 252 232 208 211 c 128,-1,43
 164 190 164 190 139 176 c 1,44,45
 137 192 137 192 136 215 c 128,-1,46
 135 238 135 238 135 248 c 0,47,48
 135 293 135 293 143.5 324.5 c 128,-1,49
 152 356 152 356 175.5 382 c 128,-1,50
 199 408 199 408 240 422 c 128,-1,51
 281 436 281 436 346 444 c 0,52,53
 375 448 375 448 397.5 456.5 c 128,-1,54
 420 465 420 465 435.5 483.5 c 128,-1,55
 451 502 451 502 458 531.5 c 128,-1,56
 465 561 465 561 465 612 c 2,57,-1
 465 670 l 1,58,-1
 135 670 l 1,59,-1
 135 901 l 1,60,61
 141 1028 141 1028 177 1127.5 c 128,-1,62
 213 1227 213 1227 269.5 1293.5 c 128,-1,63
 326 1360 326 1360 397.5 1395 c 128,-1,64
 469 1430 469 1430 549 1430 c 0,65,66
 658 1430 658 1430 731.5 1383.5 c 128,-1,67
 805 1337 805 1337 853 1263.5 c 128,-1,68
 901 1190 901 1190 925.5 1093.5 c 128,-1,69
 950 997 950 997 956 901 c 1,70,-1
 956 899 l 1,71,-1
 1096 899 l 1,72,-1
 1096 670 l 1,73,-1
 956 670 l 1,27,-1
EndSplineSet
EndChar

StartChar: uniE032
Encoding: 57394 57394 50
Width: 1028
Flags: W
LayerCount: 2
Fore
SplineSet
907 670 m 1,0,-1
 662 670 l 1,1,2
 662 594 662 594 666 544 c 128,-1,3
 670 494 670 494 681 460 c 128,-1,4
 692 426 692 426 715.5 410.5 c 128,-1,5
 739 395 739 395 776 395 c 0,6,7
 854 395 854 395 880.5 463 c 128,-1,8
 907 531 907 531 907 670 c 1,0,-1
170 899 m 1,9,-1
 170 901 l 1,10,11
 176 1028 176 1028 212 1127.5 c 128,-1,12
 248 1227 248 1227 303 1293.5 c 128,-1,13
 358 1360 358 1360 430 1395 c 128,-1,14
 502 1430 502 1430 582 1430 c 0,15,16
 691 1430 691 1430 765.5 1383.5 c 128,-1,17
 840 1337 840 1337 888 1263.5 c 128,-1,18
 936 1190 936 1190 960.5 1093.5 c 128,-1,19
 985 997 985 997 989 901 c 1,20,-1
 989 899 l 1,21,-1
 1130 899 l 1,22,-1
 1130 670 l 1,23,-1
 989 670 l 1,24,-1
 989 666 l 2,25,26
 989 560 989 560 978 476.5 c 128,-1,27
 967 393 967 393 940 334.5 c 128,-1,28
 913 276 913 276 875.5 245.5 c 128,-1,29
 838 215 838 215 776 215 c 0,30,31
 684 215 684 215 633 287 c 0,32,33
 584 355 584 355 580 489 c 1,34,35
 574 387 574 387 524 324 c 0,36,37
 471 254 471 254 369 242 c 0,38,39
 287 232 287 232 242 211 c 128,-1,40
 197 190 197 190 174 176 c 1,41,42
 172 192 172 192 171 215 c 128,-1,43
 170 238 170 238 170 248 c 0,44,45
 170 293 170 293 177 324.5 c 128,-1,46
 184 356 184 356 208.5 382 c 128,-1,47
 233 408 233 408 273 422 c 128,-1,48
 313 436 313 436 381 444 c 0,49,50
 410 448 410 448 431.5 456.5 c 128,-1,51
 453 465 453 465 469 483.5 c 128,-1,52
 485 502 485 502 492.5 531.5 c 128,-1,53
 500 561 500 561 500 612 c 2,54,-1
 500 670 l 1,55,-1
 0 670 l 1,56,-1
 0 899 l 1,57,-1
 170 899 l 1,9,-1
469 899 m 2,58,59
 520 899 520 899 547.5 868.5 c 128,-1,60
 575 838 575 838 580 786 c 1,61,62
 582 837 582 837 609.5 868 c 128,-1,63
 637 899 637 899 688 899 c 2,64,-1
 891 899 l 1,65,66
 885 950 885 950 867.5 1008.5 c 128,-1,67
 850 1067 850 1067 812 1113 c 128,-1,68
 774 1159 774 1159 718 1192 c 128,-1,69
 662 1225 662 1225 582 1225 c 0,70,71
 529 1225 529 1225 476.5 1203.5 c 128,-1,72
 424 1182 424 1182 379 1142 c 128,-1,73
 334 1102 334 1102 302 1041.5 c 128,-1,74
 270 981 270 981 256 899 c 1,75,-1
 469 899 l 2,58,59
EndSplineSet
EndChar

StartChar: uniE033
Encoding: 57395 57395 51
Width: 1126
Flags: W
LayerCount: 2
Fore
SplineSet
891 670 m 1,0,-1
 645 670 l 1,1,2
 645 594 645 594 649 544 c 128,-1,3
 653 494 653 494 665.5 460 c 128,-1,4
 678 426 678 426 701.5 410.5 c 128,-1,5
 725 395 725 395 762 395 c 0,6,7
 840 395 840 395 865.5 463 c 128,-1,8
 891 531 891 531 891 670 c 1,0,-1
154 899 m 1,9,-1
 154 901 l 1,10,11
 160 1028 160 1028 195.5 1127.5 c 128,-1,12
 231 1227 231 1227 286.5 1293.5 c 128,-1,13
 342 1360 342 1360 413.5 1395 c 128,-1,14
 485 1430 485 1430 565 1430 c 0,15,16
 674 1430 674 1430 748.5 1383.5 c 128,-1,17
 823 1337 823 1337 871.5 1263.5 c 128,-1,18
 920 1190 920 1190 944.5 1093.5 c 128,-1,19
 969 997 969 997 975 901 c 1,20,-1
 975 666 l 2,21,22
 975 560 975 560 962.5 476.5 c 128,-1,23
 950 393 950 393 923.5 334.5 c 128,-1,24
 897 276 897 276 859 245.5 c 128,-1,25
 821 215 821 215 762 215 c 0,26,27
 670 215 670 215 616 287 c 0,28,29
 567 355 567 355 563 489 c 1,30,31
 557 387 557 387 510 324 c 0,32,33
 457 254 457 254 352 242 c 0,34,35
 270 232 270 232 225 211 c 128,-1,36
 180 190 180 190 158 176 c 1,37,38
 156 192 156 192 155 215 c 128,-1,39
 154 238 154 238 154 248 c 0,40,41
 154 293 154 293 162 324.5 c 128,-1,42
 170 356 170 356 193.5 382 c 128,-1,43
 217 408 217 408 258 422 c 128,-1,44
 299 436 299 436 365 444 c 0,45,46
 394 448 394 448 415 456.5 c 128,-1,47
 436 465 436 465 452.5 483.5 c 128,-1,48
 469 502 469 502 476 531.5 c 128,-1,49
 483 561 483 561 483 612 c 2,50,-1
 483 670 l 1,51,-1
 0 670 l 1,52,-1
 0 899 l 5,53,-1
 154 899 l 1,9,-1
453 899 m 2,54,55
 504 899 504 899 531.5 868.5 c 128,-1,56
 559 838 559 838 563 786 c 1,57,58
 565 837 565 837 593 868 c 128,-1,59
 621 899 621 899 674 899 c 2,60,-1
 874 899 l 1,61,62
 868 950 868 950 851 1008.5 c 128,-1,63
 834 1067 834 1067 797 1113 c 128,-1,64
 760 1159 760 1159 702.5 1192 c 128,-1,65
 645 1225 645 1225 565 1225 c 0,66,67
 512 1225 512 1225 460 1203.5 c 128,-1,68
 408 1182 408 1182 362.5 1142 c 128,-1,69
 317 1102 317 1102 286.5 1041.5 c 128,-1,70
 256 981 256 981 242 899 c 1,71,-1
 453 899 l 2,54,55
EndSplineSet
EndChar

StartChar: uniE034
Encoding: 57396 57396 52
Width: 1540
Flags: W
LayerCount: 2
Fore
SplineSet
901 899 m 1,0,1
 895 950 895 950 877.5 1008.5 c 128,-1,2
 860 1067 860 1067 823 1113 c 128,-1,3
 786 1159 786 1159 730 1192 c 128,-1,4
 674 1225 674 1225 594 1225 c 0,5,6
 541 1225 541 1225 487.5 1203.5 c 128,-1,7
 434 1182 434 1182 389 1142 c 128,-1,8
 344 1102 344 1102 313.5 1041.5 c 128,-1,9
 283 981 283 981 268 899 c 1,10,-1
 479 899 l 2,11,12
 530 899 530 899 558 868.5 c 128,-1,13
 586 838 586 838 590 786 c 1,14,15
 592 837 592 837 619.5 868 c 128,-1,16
 647 899 647 899 700 899 c 2,17,-1
 901 899 l 1,0,1
918 670 m 1,18,-1
 674 670 l 1,19,20
 674 594 674 594 677 544 c 128,-1,21
 680 494 680 494 692.5 460 c 128,-1,22
 705 426 705 426 728.5 410.5 c 128,-1,23
 752 395 752 395 788 395 c 0,24,25
 866 395 866 395 892 463 c 128,-1,26
 918 531 918 531 918 670 c 1,18,-1
1001 670 m 1,27,-1
 1001 666 l 2,28,29
 1001 560 1001 560 989 476.5 c 128,-1,30
 977 393 977 393 951.5 334.5 c 128,-1,31
 926 276 926 276 887 245.5 c 128,-1,32
 848 215 848 215 788 215 c 0,33,34
 694 215 694 215 643 287 c 0,35,36
 594 355 594 355 590 489 c 1,37,38
 584 387 584 387 537 324 c 0,39,40
 484 256 484 256 379 242 c 0,41,42
 297 232 297 232 253 211 c 128,-1,43
 209 190 209 190 184 176 c 1,44,45
 182 192 182 192 181 215 c 128,-1,46
 180 238 180 238 180 248 c 0,47,48
 180 293 180 293 188.5 324.5 c 128,-1,49
 197 356 197 356 220.5 382 c 128,-1,50
 244 408 244 408 285 422 c 128,-1,51
 326 436 326 436 391 444 c 0,52,53
 420 448 420 448 442.5 456.5 c 128,-1,54
 465 465 465 465 480.5 483.5 c 128,-1,55
 496 502 496 502 503 531.5 c 128,-1,56
 510 561 510 561 510 612 c 2,57,-1
 510 670 l 1,58,-1
 180 670 l 1,59,-1
 180 901 l 1,60,61
 186 1028 186 1028 222 1127.5 c 128,-1,62
 258 1227 258 1227 314.5 1293.5 c 128,-1,63
 371 1360 371 1360 441.5 1395 c 128,-1,64
 512 1430 512 1430 594 1430 c 0,65,66
 703 1430 703 1430 776.5 1383.5 c 128,-1,67
 850 1337 850 1337 898 1263.5 c 128,-1,68
 946 1190 946 1190 970.5 1093.5 c 128,-1,69
 995 997 995 997 1001 901 c 1,70,-1
 1001 899 l 1,71,-1
 1640 899 l 1,72,-1
 1640 670 l 1,73,-1
 1167 670 l 1,74,-1
 1430 299 l 1,75,-1
 1430 266 l 1,76,-1
 1374 4 l 1,77,-1
 1343 4 l 1,78,-1
 1081 670 l 1,79,-1
 1001 670 l 1,27,-1
EndSplineSet
EndChar

StartChar: uniE035
Encoding: 57397 57397 53
Width: 2162
Flags: W
LayerCount: 2
Fore
SplineSet
1243 899 m 17,0,-1
 1243 762 l 2,1,2
 1243 715 1243 715 1261.5 654.5 c 128,-1,3
 1280 594 1280 594 1305.5 535.5 c 128,-1,4
 1331 477 1331 477 1357.5 431 c 128,-1,5
 1384 385 1384 385 1409 365 c 1,6,7
 1403 383 1403 383 1403 416 c 0,8,9
 1403 436 1403 436 1407 463 c 0,10,11
 1413 526 1413 526 1440.5 655 c 128,-1,12
 1468 784 1468 784 1555 1002.5 c 128,-1,13
 1642 1221 1642 1221 1682 1370.5 c 128,-1,14
 1722 1520 1722 1520 1722 1561 c 0,15,16
 1722 1588 1722 1588 1716 1620.5 c 128,-1,17
 1710 1653 1710 1653 1705 1687.5 c 128,-1,18
 1700 1722 1700 1722 1693 1752 c 128,-1,19
 1686 1782 1686 1782 1686 1790 c 0,20,21
 1686 1825 1686 1825 1695 1840 c 128,-1,22
 1704 1855 1704 1855 1729 1855 c 0,23,24
 1735 1855 1735 1855 1748 1838 c 128,-1,25
 1761 1821 1761 1821 1776 1796 c 0,26,27
 1807 1739 1807 1739 1830 1692 c 128,-1,28
 1853 1645 1853 1645 1875.5 1597.5 c 128,-1,29
 1898 1550 1898 1550 1924 1501 c 128,-1,30
 1950 1452 1950 1452 1978 1395 c 1,31,32
 1886 1276 1886 1276 1821.5 1183 c 128,-1,33
 1757 1090 1757 1090 1689.5 919 c 128,-1,34
 1622 748 1622 748 1564.5 545 c 128,-1,35
 1507 342 1507 342 1507 145 c 1,36,37
 1435 182 1435 182 1375 245.5 c 128,-1,38
 1315 309 1315 309 1269 383 c 128,-1,39
 1223 457 1223 457 1193 532.5 c 128,-1,40
 1163 608 1163 608 1159 670 c 1,41,-1
 961 670 l 1,42,43
 959 639 959 639 952.5 585.5 c 128,-1,44
 946 532 946 532 940 473 c 128,-1,45
 934 414 934 414 926 360.5 c 128,-1,46
 918 307 918 307 909 276 c 1,47,-1
 864 260 l 1,48,49
 823 354 823 354 798.5 477 c 128,-1,50
 774 600 774 600 774 801 c 256,51,52
 774 1002 774 1002 728 1084.5 c 128,-1,53
 682 1167 682 1167 623 1167 c 0,54,55
 580 1167 580 1167 546 1138.5 c 128,-1,56
 512 1110 512 1110 488.5 1062 c 128,-1,57
 465 1014 465 1014 451.5 948.5 c 128,-1,58
 438 883 438 883 438 805 c 0,59,60
 438 721 438 721 459.5 663.5 c 128,-1,61
 481 606 481 606 508 559 c 128,-1,62
 535 512 535 512 556.5 470 c 128,-1,63
 578 428 578 428 578 377 c 0,64,65
 578 266 578 266 434 264 c 0,66,67
 401 264 401 264 372.5 269 c 128,-1,68
 344 274 344 274 324.5 283.5 c 128,-1,69
 305 293 305 293 293 301 c 0,70,71
 283 309 283 309 283 317 c 2,72,-1
 283 319 l 2,73,74
 285 348 285 348 308.5 362.5 c 128,-1,75
 332 377 332 377 357.5 393.5 c 128,-1,76
 383 410 383 410 403.5 440.5 c 128,-1,77
 424 471 424 471 424 535 c 0,78,79
 424 562 424 562 416 590 c 128,-1,80
 408 618 408 618 391.5 643 c 128,-1,81
 375 668 375 668 351.5 683 c 128,-1,82
 328 698 328 698 299 698 c 0,83,84
 285 698 285 698 272.5 694 c 128,-1,85
 260 690 260 690 245.5 684 c 128,-1,86
 231 678 231 678 219 674 c 128,-1,87
 207 670 207 670 197 670 c 1,88,89
 177 693 177 693 172.5 722.5 c 128,-1,90
 168 752 168 752 168 791 c 0,91,92
 168 828 168 828 178 851 c 128,-1,93
 188 874 188 874 204.5 886.5 c 128,-1,94
 221 899 221 899 243.5 908.5 c 128,-1,95
 266 918 266 918 286.5 928 c 128,-1,96
 307 938 307 938 324.5 952.5 c 128,-1,97
 342 967 342 967 352 993 c 0,98,99
 415 1177 415 1177 489 1273.5 c 128,-1,100
 563 1370 563 1370 651 1370 c 0,101,102
 696 1370 696 1370 735 1347.5 c 128,-1,103
 774 1325 774 1325 807 1278 c 128,-1,104
 840 1231 840 1231 858.5 1158 c 128,-1,105
 877 1085 877 1085 877 983 c 2,106,-1
 874 899 l 9,107,-1
 1243 899 l 17,0,-1
EndSplineSet
EndChar

StartChar: uniE036
Encoding: 57398 57398 54
Width: 1634
Flags: W
LayerCount: 2
Fore
SplineSet
856 670 m 1,0,1
 854 639 854 639 849 585.5 c 128,-1,2
 844 532 844 532 836.5 473 c 128,-1,3
 829 414 829 414 821 360.5 c 128,-1,4
 813 307 813 307 805 276 c 1,5,-1
 760 260 l 1,6,7
 719 354 719 354 693.5 475 c 128,-1,8
 668 596 668 596 668 750 c 0,9,10
 668 900 668 900 661.5 948.5 c 128,-1,11
 655 997 655 997 642 1034 c 128,-1,12
 629 1071 629 1071 606.5 1102 c 128,-1,13
 584 1133 584 1133 552 1151 c 128,-1,14
 520 1169 520 1169 479 1169 c 0,15,16
 416 1169 416 1169 371 1129.5 c 128,-1,17
 326 1090 326 1090 294 1032.5 c 128,-1,18
 262 975 262 975 249 909.5 c 128,-1,19
 236 844 236 844 236 788 c 0,20,21
 236 686 236 686 282 577.5 c 128,-1,22
 328 469 328 469 422 362 c 1,23,-1
 362 160 l 1,24,-1
 342 160 l 1,25,26
 250 275 250 275 198.5 406 c 128,-1,27
 147 537 147 537 147 670 c 2,28,-1
 147 901 l 1,29,30
 153 1003 153 1003 183 1090.5 c 128,-1,31
 213 1178 213 1178 257 1240.5 c 128,-1,32
 301 1303 301 1303 358.5 1337.5 c 128,-1,33
 416 1372 416 1372 485 1372 c 0,34,35
 553 1372 553 1372 603 1337.5 c 128,-1,36
 653 1303 653 1303 689 1239.5 c 128,-1,37
 725 1176 725 1176 741.5 1090 c 128,-1,38
 758 1004 758 1004 762 899 c 1,39,-1
 1227 899 l 2,40,41
 1354 899 1354 899 1417.5 785.5 c 128,-1,42
 1481 672 1481 672 1481 438 c 2,43,-1
 1481 23 l 2,44,45
 1481 -63 1481 -63 1464.5 -128 c 128,-1,46
 1448 -193 1448 -193 1417 -241 c 128,-1,47
 1386 -289 1386 -289 1340 -322.5 c 128,-1,48
 1294 -356 1294 -356 1237 -383 c 0,49,50
 1202 -397 1202 -397 1182.5 -409.5 c 128,-1,51
 1163 -422 1163 -422 1149 -435.5 c 128,-1,52
 1135 -449 1135 -449 1123.5 -466 c 128,-1,53
 1112 -483 1112 -483 1100 -512 c 1,54,-1
 1077 -512 l 1,55,-1
 1143 -225 l 1,56,57
 1157 -221 1157 -221 1170.5 -217 c 128,-1,58
 1184 -213 1184 -213 1200.5 -209 c 128,-1,59
 1217 -205 1217 -205 1234 -194.5 c 128,-1,60
 1251 -184 1251 -184 1278 -170 c 0,61,62
 1292 -162 1292 -162 1311.5 -148.5 c 128,-1,63
 1331 -135 1331 -135 1347.5 -112.5 c 128,-1,64
 1364 -90 1364 -90 1375 -57.5 c 128,-1,65
 1386 -25 1386 -25 1386 23 c 2,66,-1
 1386 438 l 2,67,68
 1386 553 1386 553 1344.5 611.5 c 128,-1,69
 1303 670 1303 670 1227 670 c 2,70,-1
 856 670 l 1,0,1
EndSplineSet
EndChar

StartChar: uniE037
Encoding: 57399 57399 55
Width: 1566
Flags: W
LayerCount: 2
Fore
SplineSet
1206 899 m 1,0,1
 1298 893 1298 893 1352.5 822.5 c 128,-1,2
 1407 752 1407 752 1407 633 c 2,3,-1
 1407 512 l 2,4,5
 1407 440 1407 440 1381.5 396 c 128,-1,6
 1356 352 1356 352 1319 352 c 1,7,-1
 1319 375 l 2,8,9
 1319 510 1319 510 1268 588 c 128,-1,10
 1217 666 1217 666 1118 670 c 1,11,-1
 780 670 l 1,12,13
 807 570 807 570 854 480.5 c 128,-1,14
 901 391 901 391 969 315 c 1,15,-1
 934 106 l 1,16,-1
 901 106 l 1,17,18
 835 200 835 200 795.5 282.5 c 128,-1,19
 756 365 756 365 732.5 443.5 c 128,-1,20
 709 522 709 522 678 678 c 0,21,22
 647 834 647 834 635 915.5 c 128,-1,23
 623 997 623 997 602.5 1065 c 128,-1,24
 582 1133 582 1133 549 1178 c 128,-1,25
 516 1223 516 1223 465 1223 c 0,26,27
 422 1223 422 1223 389 1200.5 c 128,-1,28
 356 1178 356 1178 332.5 1142 c 128,-1,29
 309 1106 309 1106 295 1060 c 128,-1,30
 281 1014 281 1014 270.5 966 c 128,-1,31
 260 918 260 918 257 870.5 c 128,-1,32
 254 823 254 823 254 786 c 0,33,34
 254 716 254 716 265 660 c 128,-1,35
 276 604 276 604 301 556 c 128,-1,36
 326 508 326 508 360.5 461 c 128,-1,37
 395 414 395 414 444 360 c 1,38,-1
 385 156 l 1,39,-1
 360 156 l 1,40,41
 272 273 272 273 220 407 c 128,-1,42
 168 541 168 541 168 788 c 0,43,44
 168 964 168 964 194.5 1080 c 128,-1,45
 221 1196 221 1196 259 1268.5 c 128,-1,46
 297 1341 297 1341 348 1384 c 128,-1,47
 399 1427 399 1427 467 1427 c 0,48,49
 535 1427 535 1427 581 1388.5 c 128,-1,50
 627 1350 627 1350 657.5 1280 c 128,-1,51
 688 1210 688 1210 706.5 1114 c 128,-1,52
 725 1018 725 1018 733 899 c 1,53,-1
 1206 899 l 1,0,1
EndSplineSet
EndChar

StartChar: uniE038
Encoding: 57400 57400 56
Width: 1767
Flags: W
LayerCount: 2
Fore
SplineSet
1214 670 m 1,0,-1
 1214 498 l 2,1,2
 1214 424 1214 424 1260.5 388 c 128,-1,3
 1307 352 1307 352 1380 352 c 0,4,5
 1452 352 1452 352 1492 388 c 128,-1,6
 1532 424 1532 424 1532 498 c 2,7,-1
 1532 670 l 1,8,-1
 1214 670 l 1,0,-1
1602 899 m 17,9,-1
 1602 498 l 2,10,11
 1602 344 1602 344 1547.5 258 c 128,-1,12
 1493 172 1493 172 1378 172 c 0,13,14
 1263 172 1263 172 1206 258 c 128,-1,15
 1149 344 1149 344 1149 498 c 2,16,-1
 1149 670 l 1,17,-1
 938 670 l 1,18,19
 936 639 936 639 930 585.5 c 128,-1,20
 924 532 924 532 916.5 473 c 128,-1,21
 909 414 909 414 902 360.5 c 128,-1,22
 895 307 895 307 885 276 c 1,23,-1
 840 260 l 1,24,25
 799 354 799 354 774.5 477 c 128,-1,26
 750 600 750 600 750 801 c 256,27,28
 750 1002 750 1002 703.5 1084.5 c 128,-1,29
 657 1167 657 1167 598 1167 c 0,30,31
 555 1167 555 1167 521 1138.5 c 128,-1,32
 487 1110 487 1110 463.5 1062 c 128,-1,33
 440 1014 440 1014 427 948.5 c 128,-1,34
 414 883 414 883 414 805 c 0,35,36
 414 721 414 721 435.5 663.5 c 128,-1,37
 457 606 457 606 484.5 559 c 128,-1,38
 512 512 512 512 532.5 470 c 128,-1,39
 553 428 553 428 553 377 c 0,40,41
 553 266 553 266 410 264 c 0,42,43
 377 264 377 264 349.5 269 c 128,-1,44
 322 274 322 274 301.5 283.5 c 128,-1,45
 281 293 281 293 268 301 c 0,46,47
 258 309 258 309 258 317 c 2,48,-1
 258 319 l 2,49,50
 260 348 260 348 283.5 362.5 c 128,-1,51
 307 377 307 377 332.5 393.5 c 128,-1,52
 358 410 358 410 378.5 440.5 c 128,-1,53
 399 471 399 471 399 535 c 0,54,55
 399 562 399 562 392 590 c 128,-1,56
 385 618 385 618 367.5 643 c 128,-1,57
 350 668 350 668 326.5 683 c 128,-1,58
 303 698 303 698 274 698 c 0,59,60
 260 698 260 698 248 694 c 128,-1,61
 236 690 236 690 221.5 684 c 128,-1,62
 207 678 207 678 194.5 674 c 128,-1,63
 182 670 182 670 172 670 c 1,64,65
 152 693 152 693 147.5 722.5 c 128,-1,66
 143 752 143 752 143 791 c 0,67,68
 143 828 143 828 154.5 851 c 128,-1,69
 166 874 166 874 182.5 886.5 c 128,-1,70
 199 899 199 899 221.5 908.5 c 128,-1,71
 244 918 244 918 263.5 928 c 128,-1,72
 283 938 283 938 301 952.5 c 128,-1,73
 319 967 319 967 328 993 c 0,74,75
 391 1177 391 1177 466 1273.5 c 128,-1,76
 541 1370 541 1370 627 1370 c 0,77,78
 672 1370 672 1370 712 1347.5 c 128,-1,79
 752 1325 752 1325 783.5 1278 c 128,-1,80
 815 1231 815 1231 833.5 1158 c 128,-1,81
 852 1085 852 1085 852 983 c 2,82,-1
 852 899 l 9,83,-1
 1602 899 l 17,9,-1
EndSplineSet
EndChar

StartChar: uniE039
Encoding: 57401 57401 57
Width: 1468
Flags: W
LayerCount: 2
Fore
SplineSet
844 670 m 5,0,-1
 639 670 l 5,1,-1
 639 569 l 6,2,3
 639 520 639 520 644 488.5 c 132,-1,4
 649 457 649 457 661.5 437.5 c 132,-1,5
 674 418 674 418 692.5 412 c 132,-1,6
 711 406 711 406 741 406 c 260,7,8
 772 406 772 406 792.5 412 c 132,-1,9
 813 418 813 418 824.5 438.5 c 132,-1,10
 836 459 836 459 840 490.5 c 132,-1,11
 844 522 844 522 844 569 c 6,12,-1
 844 670 l 5,0,-1
129 670 m 0,13,14
 123 752 123 752 123 813 c 0,15,16
 123 866 123 866 127 899 c 1,17,18
 127 932 127 932 131 963 c 0,19,20
 143 1035 143 1035 163.5 1100 c 128,-1,21
 184 1165 184 1165 217 1223.5 c 128,-1,22
 250 1282 250 1282 297 1326 c 128,-1,23
 344 1370 344 1370 404.5 1394.5 c 128,-1,24
 465 1419 465 1419 545 1419 c 0,25,26
 645 1419 645 1419 714.5 1385.5 c 128,-1,27
 784 1352 784 1352 827 1287.5 c 128,-1,28
 870 1223 870 1223 898 1118.5 c 128,-1,29
 926 1014 926 1014 926 899 c 1,30,-1
 1130 899 l 1,31,32
 1224 893 1224 893 1277.5 823.5 c 128,-1,33
 1331 754 1331 754 1331 633 c 2,34,-1
 1331 512 l 2,35,36
 1331 438 1331 438 1305.5 395 c 128,-1,37
 1280 352 1280 352 1243 352 c 1,38,-1
 1243 375 l 2,39,40
 1243 512 1243 512 1192 589 c 128,-1,41
 1141 666 1141 666 1042 670 c 1,42,-1
 926 670 l 1,43,-1
 926 504 l 2,44,45
 926 438 926 438 918.5 386 c 128,-1,46
 911 334 911 334 890.5 298 c 128,-1,47
 870 262 870 262 835.5 243.5 c 128,-1,48
 801 225 801 225 741 225 c 0,49,50
 647 225 647 225 603 292.5 c 128,-1,51
 559 360 559 360 559 504 c 2,52,-1
 559 815 l 2,53,54
 559 833 559 833 562 847.5 c 128,-1,55
 565 862 565 862 573.5 875.5 c 128,-1,56
 582 889 582 889 598 894 c 128,-1,57
 614 899 614 899 639 899 c 2,58,-1
 844 899 l 1,59,60
 844 1044 844 1044 771 1131.5 c 128,-1,61
 698 1219 698 1219 545 1219 c 0,62,63
 447 1219 447 1219 384.5 1183 c 128,-1,64
 322 1147 322 1147 284 1090.5 c 128,-1,65
 246 1034 246 1034 228.5 963.5 c 128,-1,66
 211 893 211 893 211 821 c 0,67,68
 211 735 211 735 224.5 668.5 c 128,-1,69
 238 602 238 602 260.5 545.5 c 128,-1,70
 283 489 283 489 312.5 436 c 128,-1,71
 342 383 342 383 385 317 c 1,72,-1
 299 137 l 1,73,74
 252 203 252 203 219 285 c 128,-1,75
 186 367 186 367 163.5 459 c 128,-1,76
 141 551 141 551 131 643 c 0,77,-1
 129 670 l 0,13,14
EndSplineSet
EndChar

StartChar: uniE03A
Encoding: 57402 57402 58
Width: 1476
Flags: W
LayerCount: 2
Fore
SplineSet
1124 670 m 9,0,1
 918 670 l 17,2,3
 916 639 916 639 909.5 585.5 c 128,-1,4
 903 532 903 532 897 473 c 128,-1,5
 891 414 891 414 882.5 360.5 c 128,-1,6
 874 307 874 307 866 276 c 1,7,-1
 821 260 l 1,8,9
 780 354 780 354 755.5 477 c 128,-1,10
 731 600 731 600 731 801 c 256,11,12
 731 1000 731 1000 685 1083.5 c 128,-1,13
 639 1167 639 1167 580 1167 c 0,14,15
 537 1167 537 1167 503 1138.5 c 128,-1,16
 469 1110 469 1110 445.5 1062 c 128,-1,17
 422 1014 422 1014 408.5 948.5 c 128,-1,18
 395 883 395 883 395 805 c 0,19,20
 395 723 395 723 416.5 664.5 c 128,-1,21
 438 606 438 606 465 559 c 128,-1,22
 492 512 492 512 513.5 470 c 128,-1,23
 535 428 535 428 535 377 c 0,24,25
 535 264 535 264 391 264 c 0,26,27
 358 264 358 264 329.5 269 c 128,-1,28
 301 274 301 274 281.5 283.5 c 128,-1,29
 262 293 262 293 250 301 c 0,30,31
 240 309 240 309 240 317 c 2,32,-1
 240 319 l 2,33,34
 242 348 242 348 265.5 362.5 c 128,-1,35
 289 377 289 377 314.5 393.5 c 128,-1,36
 340 410 340 410 360.5 441.5 c 128,-1,37
 381 473 381 473 381 535 c 0,38,39
 381 560 381 560 373 589 c 128,-1,40
 365 618 365 618 348.5 643 c 128,-1,41
 332 668 332 668 309.5 683 c 128,-1,42
 287 698 287 698 256 698 c 0,43,44
 240 698 240 698 228.5 694 c 128,-1,45
 217 690 217 690 202.5 684 c 128,-1,46
 188 678 188 678 175 674 c 128,-1,47
 162 670 162 670 154 670 c 1,48,49
 134 693 134 693 129.5 721.5 c 128,-1,50
 125 750 125 750 125 791 c 0,51,52
 125 828 125 828 135 851 c 128,-1,53
 145 874 145 874 161.5 886.5 c 128,-1,54
 178 899 178 899 200.5 908.5 c 128,-1,55
 223 918 223 918 243.5 928 c 128,-1,56
 264 938 264 938 282.5 952.5 c 128,-1,57
 301 967 301 967 309 993 c 0,58,59
 372 1177 372 1177 447 1273.5 c 128,-1,60
 522 1370 522 1370 608 1370 c 0,61,62
 653 1370 653 1370 692 1347.5 c 128,-1,63
 731 1325 731 1325 764 1278 c 128,-1,64
 797 1231 797 1231 815.5 1157 c 128,-1,65
 834 1083 834 1083 834 983 c 2,66,-1
 831 899 l 1,67,-1
 1577 899 l 1,68,-1
 1577 670 l 1,69,-1
 1315 670 l 1,70,71
 1313 639 1313 639 1306.5 585.5 c 128,-1,72
 1300 532 1300 532 1294 473 c 128,-1,73
 1288 414 1288 414 1281 360.5 c 128,-1,74
 1274 307 1274 307 1264 276 c 1,75,-1
 1219 260 l 1,76,77
 1178 354 1178 354 1155 459 c 128,-1,78
 1132 564 1132 564 1124 670 c 9,0,1
EndSplineSet
EndChar

StartChar: uniE03B
Encoding: 57403 57403 59
Width: 1249
Flags: W
LayerCount: 2
Fore
SplineSet
1360 899 m 17,0,-1
 1360 670 l 1,1,-1
 1098 670 l 1,2,3
 1096 639 1096 639 1089.5 585.5 c 128,-1,4
 1083 532 1083 532 1077 473 c 128,-1,5
 1071 414 1071 414 1063 360.5 c 128,-1,6
 1055 307 1055 307 1044 276 c 1,7,-1
 999 260 l 1,8,9
 958 354 958 354 936.5 458.5 c 128,-1,10
 915 563 915 563 905 670 c 1,11,-1
 696 670 l 1,12,13
 694 639 694 639 688 585.5 c 128,-1,14
 682 532 682 532 677 473 c 128,-1,15
 672 414 672 414 663.5 360.5 c 128,-1,16
 655 307 655 307 645 276 c 1,17,-1
 600 260 l 1,18,19
 559 354 559 354 536.5 458.5 c 128,-1,20
 514 563 514 563 506 670 c 1,21,-1
 297 670 l 1,22,23
 295 639 295 639 289 585.5 c 128,-1,24
 283 532 283 532 276.5 473 c 128,-1,25
 270 414 270 414 263 360.5 c 128,-1,26
 256 307 256 307 246 276 c 1,27,-1
 201 260 l 1,28,29
 160 354 160 354 137.5 458.5 c 128,-1,30
 115 563 115 563 106 670 c 1,31,-1
 0 670 l 1,32,-1
 0 899 l 9,33,-1
 1360 899 l 17,0,-1
EndSplineSet
EndChar

StartChar: uniE03C
Encoding: 57404 57404 60
Width: 1671
Flags: W
LayerCount: 2
Fore
SplineSet
1548 438 m 2,0,-1
 1548 23 l 2,1,2
 1548 -63 1548 -63 1532 -128 c 128,-1,3
 1516 -193 1516 -193 1485 -241 c 128,-1,4
 1454 -289 1454 -289 1409 -322.5 c 128,-1,5
 1364 -356 1364 -356 1305 -383 c 0,6,7
 1270 -397 1270 -397 1250.5 -409.5 c 128,-1,8
 1231 -422 1231 -422 1216.5 -435.5 c 128,-1,9
 1202 -449 1202 -449 1192 -466 c 128,-1,10
 1182 -483 1182 -483 1167 -512 c 1,11,-1
 1145 -512 l 1,12,-1
 1210 -225 l 1,13,14
 1224 -221 1224 -221 1237.5 -217 c 128,-1,15
 1251 -213 1251 -213 1267.5 -209 c 128,-1,16
 1284 -205 1284 -205 1301.5 -194.5 c 128,-1,17
 1319 -184 1319 -184 1346 -170 c 0,18,19
 1360 -162 1360 -162 1379.5 -148.5 c 128,-1,20
 1399 -135 1399 -135 1415.5 -112.5 c 128,-1,21
 1432 -90 1432 -90 1443 -57.5 c 128,-1,22
 1454 -25 1454 -25 1454 23 c 2,23,-1
 1454 438 l 2,24,25
 1454 553 1454 553 1412 611.5 c 128,-1,26
 1370 670 1370 670 1294 670 c 2,27,-1
 1085 670 l 1,28,-1
 1085 899 l 1,29,-1
 1294 899 l 2,30,31
 1421 899 1421 899 1484.5 785 c 128,-1,32
 1548 671 1548 671 1548 438 c 2,0,-1
543 899 m 1,33,34
 543 682 543 682 558 635 c 128,-1,35
 573 588 573 588 597 548 c 128,-1,36
 621 508 621 508 647.5 476 c 128,-1,37
 674 444 674 444 696 422 c 1,38,39
 696 465 696 465 697 514 c 128,-1,40
 698 563 698 563 704.5 623.5 c 128,-1,41
 711 684 711 684 724 748.5 c 128,-1,42
 737 813 737 813 762 887 c 1,43,44
 801 985 801 985 826.5 1057.5 c 128,-1,45
 852 1130 852 1130 868.5 1184.5 c 128,-1,46
 885 1239 885 1239 893 1285 c 128,-1,47
 901 1331 901 1331 901 1378 c 0,48,49
 901 1396 901 1396 896 1424 c 128,-1,50
 891 1452 891 1452 885 1479.5 c 128,-1,51
 879 1507 879 1507 871.5 1529.5 c 128,-1,52
 864 1552 864 1552 864 1563 c 0,53,54
 864 1596 864 1596 874.5 1611 c 128,-1,55
 885 1626 885 1626 909 1626 c 0,56,57
 932 1626 932 1626 956.5 1578 c 128,-1,58
 981 1530 981 1530 1020 1450 c 0,59,60
 1063 1366 1063 1366 1098 1304.5 c 128,-1,61
 1133 1243 1133 1243 1149 1196 c 1,62,63
 1118 1163 1118 1163 1082.5 1116 c 128,-1,64
 1047 1069 1047 1069 1012 1015 c 128,-1,65
 977 961 977 961 946 905 c 0,66,67
 919 858 919 858 899 798.5 c 128,-1,68
 879 739 879 739 860.5 686 c 128,-1,69
 842 633 842 633 828.5 569.5 c 128,-1,70
 815 506 815 506 809 424 c 128,-1,71
 803 342 803 342 803 225 c 1,72,73
 733 262 733 262 670.5 313.5 c 128,-1,74
 608 365 608 365 563 424 c 0,75,76
 520 479 520 479 489 547 c 0,77,78
 460 608 460 608 457 670 c 1,79,-1
 305 670 l 1,80,81
 303 639 303 639 298 585.5 c 128,-1,82
 293 532 293 532 287 473 c 128,-1,83
 281 414 281 414 272.5 360.5 c 128,-1,84
 264 307 264 307 254 276 c 1,85,-1
 209 260 l 1,86,87
 168 354 168 354 146.5 458.5 c 128,-1,88
 125 563 125 563 115 670 c 1,89,-1
 -2 670 l 1,90,-1
 -2 899 l 1,91,-1
 543 899 l 1,33,34
EndSplineSet
EndChar

StartChar: uniE03D
Encoding: 57405 57405 61
Width: 991
Flags: W
LayerCount: 2
Fore
SplineSet
643 750 m 0,0,1
 643 900 643 900 637 948.5 c 128,-1,2
 631 997 631 997 617.5 1034 c 128,-1,3
 604 1071 604 1071 581.5 1102 c 128,-1,4
 559 1133 559 1133 527.5 1151 c 128,-1,5
 496 1169 496 1169 455 1169 c 0,6,7
 392 1169 392 1169 345.5 1129.5 c 128,-1,8
 299 1090 299 1090 268.5 1032.5 c 128,-1,9
 238 975 238 975 224.5 909.5 c 128,-1,10
 211 844 211 844 211 788 c 0,11,12
 211 686 211 686 256 577.5 c 128,-1,13
 301 469 301 469 397 362 c 1,14,-1
 338 160 l 1,15,-1
 315 160 l 1,16,17
 223 275 223 275 173 406 c 128,-1,18
 123 537 123 537 123 670 c 2,19,-1
 123 901 l 1,20,21
 129 1003 129 1003 158.5 1090.5 c 128,-1,22
 188 1178 188 1178 232 1240.5 c 128,-1,23
 276 1303 276 1303 333.5 1337.5 c 128,-1,24
 391 1372 391 1372 461 1372 c 0,25,26
 529 1372 529 1372 579 1337.5 c 128,-1,27
 629 1303 629 1303 664.5 1239.5 c 128,-1,28
 700 1176 700 1176 716.5 1090 c 128,-1,29
 733 1004 733 1004 737 899 c 1,30,-1
 1094 899 l 1,31,-1
 1094 670 l 1,32,-1
 831 670 l 1,33,34
 829 639 829 639 823 585.5 c 128,-1,35
 817 532 817 532 811 473 c 128,-1,36
 805 414 805 414 796.5 360.5 c 128,-1,37
 788 307 788 307 780 276 c 1,38,-1
 735 260 l 1,39,40
 694 354 694 354 668.5 474 c 128,-1,41
 643 594 643 594 643 750 c 0,0,1
EndSplineSet
EndChar

StartChar: uniE03E
Encoding: 57406 57406 62
Width: 978
Flags: W
LayerCount: 2
Fore
SplineSet
111 899 m 1,0,-1
 111 901 l 1,1,2
 117 1003 117 1003 146.5 1090.5 c 128,-1,3
 176 1178 176 1178 219 1240.5 c 128,-1,4
 262 1303 262 1303 320.5 1337.5 c 128,-1,5
 379 1372 379 1372 446.5 1372 c 128,-1,6
 514 1372 514 1372 565 1337.5 c 128,-1,7
 616 1303 616 1303 651 1239.5 c 128,-1,8
 686 1176 686 1176 703.5 1090 c 128,-1,9
 721 1004 721 1004 725 899 c 1,10,-1
 1079 899 l 1,11,-1
 1079 670 l 1,12,-1
 817 670 l 1,13,14
 815 639 815 639 810 585.5 c 128,-1,15
 805 532 805 532 799 473 c 128,-1,16
 793 414 793 414 784.5 360.5 c 128,-1,17
 776 307 776 307 768 276 c 1,18,-1
 723 260 l 1,19,20
 682 354 682 354 656.5 475 c 128,-1,21
 631 596 631 596 631 750 c 0,22,23
 631 900 631 900 624.5 948.5 c 128,-1,24
 618 997 618 997 605 1034 c 128,-1,25
 592 1071 592 1071 569.5 1102 c 128,-1,26
 547 1133 547 1133 515 1151 c 128,-1,27
 483 1169 483 1169 442 1169 c 0,28,29
 379 1169 379 1169 333 1129.5 c 128,-1,30
 287 1090 287 1090 256 1032.5 c 128,-1,31
 225 975 225 975 211 909.5 c 128,-1,32
 197 844 197 844 197 788 c 0,33,34
 197 686 197 686 243 578 c 0,35,36
 291 469 291 469 385 362 c 1,37,-1
 324 160 l 1,38,-1
 303 160 l 1,39,40
 211 275 211 275 161 406 c 128,-1,41
 111 537 111 537 111 670 c 1,42,-1
 0 670 l 1,43,-1
 0 899 l 1,44,-1
 111 899 l 1,0,-1
EndSplineSet
EndChar

StartChar: uniE03F
Encoding: 57407 57407 63
Width: 1646
Flags: W
LayerCount: 2
Fore
SplineSet
150 899 m 1,0,-1
 150 901 l 1,1,2
 156 1003 156 1003 185.5 1090.5 c 128,-1,3
 215 1178 215 1178 259 1240.5 c 128,-1,4
 303 1303 303 1303 360.5 1337.5 c 128,-1,5
 418 1372 418 1372 487 1372 c 0,6,7
 555 1372 555 1372 605 1337.5 c 128,-1,8
 655 1303 655 1303 691 1239.5 c 128,-1,9
 727 1176 727 1176 743.5 1090 c 128,-1,10
 760 1004 760 1004 764 899 c 1,11,-1
 1229 899 l 2,12,13
 1356 899 1356 899 1419.5 785.5 c 128,-1,14
 1483 672 1483 672 1483 438 c 2,15,-1
 1483 23 l 2,16,17
 1483 -63 1483 -63 1466.5 -128 c 128,-1,18
 1450 -193 1450 -193 1419.5 -241 c 128,-1,19
 1389 -289 1389 -289 1342.5 -322.5 c 128,-1,20
 1296 -356 1296 -356 1239 -383 c 0,21,22
 1204 -397 1204 -397 1184.5 -409.5 c 128,-1,23
 1165 -422 1165 -422 1151 -435.5 c 128,-1,24
 1137 -449 1137 -449 1125.5 -466 c 128,-1,25
 1114 -483 1114 -483 1102 -512 c 1,26,-1
 1079 -512 l 1,27,-1
 1145 -225 l 1,28,29
 1159 -221 1159 -221 1172.5 -217 c 128,-1,30
 1186 -213 1186 -213 1202.5 -209 c 128,-1,31
 1219 -205 1219 -205 1236 -194.5 c 128,-1,32
 1253 -184 1253 -184 1280 -170 c 0,33,34
 1294 -162 1294 -162 1313.5 -148.5 c 128,-1,35
 1333 -135 1333 -135 1349.5 -112.5 c 128,-1,36
 1366 -90 1366 -90 1377.5 -57.5 c 128,-1,37
 1389 -25 1389 -25 1389 23 c 2,38,-1
 1389 438 l 2,39,40
 1389 553 1389 553 1347 611.5 c 128,-1,41
 1305 670 1305 670 1229 670 c 2,42,-1
 858 670 l 1,43,44
 856 639 856 639 851 585.5 c 128,-1,45
 846 532 846 532 838.5 473 c 128,-1,46
 831 414 831 414 823 360.5 c 128,-1,47
 815 307 815 307 807 276 c 1,48,-1
 762 260 l 1,49,50
 721 354 721 354 695.5 475 c 128,-1,51
 670 596 670 596 670 750 c 0,52,53
 670 900 670 900 663.5 948.5 c 128,-1,54
 657 997 657 997 644 1034 c 128,-1,55
 631 1071 631 1071 608.5 1102 c 128,-1,56
 586 1133 586 1133 554 1151 c 128,-1,57
 522 1169 522 1169 481 1169 c 0,58,59
 418 1169 418 1169 373 1129.5 c 128,-1,60
 328 1090 328 1090 296 1032.5 c 128,-1,61
 264 975 264 975 251 909.5 c 128,-1,62
 238 844 238 844 238 788 c 0,63,64
 238 686 238 686 284 577.5 c 128,-1,65
 330 469 330 469 424 362 c 1,66,-1
 365 160 l 1,67,-1
 342 160 l 1,68,69
 250 275 250 275 200 406 c 128,-1,70
 150 537 150 537 150 670 c 1,71,-1
 0 670 l 5,72,-1
 0 899 l 1,73,-1
 150 899 l 1,0,-1
EndSplineSet
EndChar

StartChar: uniE040
Encoding: 57408 57408 64
Width: 1032
Flags: W
LayerCount: 2
Fore
SplineSet
1135 899 m 1,0,-1
 1135 670 l 1,1,-1
 737 670 l 1,2,3
 764 570 764 570 811 480.5 c 128,-1,4
 858 391 858 391 926 315 c 1,5,-1
 889 106 l 1,6,-1
 856 106 l 1,7,8
 790 200 790 200 751.5 282.5 c 128,-1,9
 713 365 713 365 688.5 443.5 c 128,-1,10
 664 522 664 522 635 678 c 0,11,12
 604 834 604 834 591 915.5 c 128,-1,13
 578 997 578 997 557.5 1065 c 128,-1,14
 537 1133 537 1133 505 1178 c 128,-1,15
 473 1223 473 1223 420 1223 c 0,16,17
 377 1223 377 1223 344 1200.5 c 128,-1,18
 311 1178 311 1178 288.5 1142 c 128,-1,19
 266 1106 266 1106 251 1060 c 128,-1,20
 236 1014 236 1014 226.5 966 c 128,-1,21
 217 918 217 918 214 870.5 c 128,-1,22
 211 823 211 823 211 786 c 0,23,24
 211 716 211 716 222 660 c 128,-1,25
 233 604 233 604 257 556 c 128,-1,26
 281 508 281 508 316.5 461 c 128,-1,27
 352 414 352 414 399 360 c 1,28,-1
 340 156 l 1,29,-1
 317 156 l 1,30,31
 229 273 229 273 176 407 c 128,-1,32
 123 541 123 541 123 788 c 0,33,34
 123 964 123 964 149.5 1080 c 128,-1,35
 176 1196 176 1196 214 1268.5 c 128,-1,36
 252 1341 252 1341 303 1384 c 128,-1,37
 354 1427 354 1427 424 1427 c 0,38,39
 492 1427 492 1427 538 1388.5 c 128,-1,40
 584 1350 584 1350 614.5 1280 c 128,-1,41
 645 1210 645 1210 663.5 1114 c 128,-1,42
 682 1018 682 1018 688 899 c 1,43,-1
 1135 899 l 1,0,-1
EndSplineSet
EndChar

StartChar: uniE041
Encoding: 57409 57409 65
Width: 1038
Flags: W
LayerCount: 2
Fore
SplineSet
129 899 m 1,0,-1
 129 901 l 1,1,2
 137 1005 137 1005 160.5 1100.5 c 128,-1,3
 184 1196 184 1196 221 1268.5 c 128,-1,4
 258 1341 258 1341 310 1384 c 128,-1,5
 362 1427 362 1427 430 1427 c 128,-1,6
 498 1427 498 1427 544 1388.5 c 128,-1,7
 590 1350 590 1350 620.5 1280 c 128,-1,8
 651 1210 651 1210 669.5 1114 c 128,-1,9
 688 1018 688 1018 696 899 c 1,10,-1
 1141 899 l 1,11,-1
 1141 670 l 1,12,-1
 743 670 l 1,13,14
 770 570 770 570 817 480.5 c 128,-1,15
 864 391 864 391 932 315 c 1,16,-1
 897 106 l 1,17,-1
 864 106 l 1,18,19
 798 200 798 200 758.5 282.5 c 128,-1,20
 719 365 719 365 695.5 443.5 c 128,-1,21
 672 522 672 522 655 600 c 0,22,23
 647 637 647 637 625 762 c 0,24,25
 602 885 602 885 598 915 c 0,26,27
 586 997 586 997 565.5 1065 c 128,-1,28
 545 1133 545 1133 512 1178 c 128,-1,29
 479 1223 479 1223 426 1223 c 0,30,31
 383 1223 383 1223 351 1200.5 c 128,-1,32
 319 1178 319 1178 295.5 1142 c 128,-1,33
 272 1106 272 1106 258 1060 c 128,-1,34
 244 1014 244 1014 233.5 966 c 128,-1,35
 223 918 223 918 220 870.5 c 128,-1,36
 217 823 217 823 217 786 c 0,37,38
 217 716 217 716 228.5 660 c 128,-1,39
 240 604 240 604 264.5 556 c 128,-1,40
 289 508 289 508 323.5 461 c 128,-1,41
 358 414 358 414 408 360 c 1,42,-1
 346 156 l 1,43,-1
 324 156 l 1,44,45
 236 273 236 273 182.5 407 c 128,-1,46
 129 541 129 541 129 670 c 2,47,-1
 129 670 l 1,48,-1
 0 670 l 1,49,-1
 0 899 l 1,50,-1
 129 899 l 1,0,-1
EndSplineSet
EndChar

StartChar: uniE042
Encoding: 57410 57410 66
Width: 1533
Flags: W
LayerCount: 2
Fore
SplineSet
129 899 m 1,0,-1
 129 901 l 1,1,2
 137 1005 137 1005 160.5 1100.5 c 128,-1,3
 184 1196 184 1196 221 1268.5 c 128,-1,4
 258 1341 258 1341 310 1384 c 128,-1,5
 362 1427 362 1427 430 1427 c 128,-1,6
 498 1427 498 1427 544 1388.5 c 128,-1,7
 590 1350 590 1350 620.5 1280 c 128,-1,8
 651 1210 651 1210 669.5 1114 c 128,-1,9
 688 1018 688 1018 696 899 c 1,10,-1
 1169 899 l 1,11,12
 1261 893 1261 893 1314.5 822.5 c 128,-1,13
 1368 752 1368 752 1368 633 c 2,14,-1
 1368 512 l 2,15,16
 1368 440 1368 440 1343.5 396 c 128,-1,17
 1319 352 1319 352 1282 352 c 1,18,-1
 1282 375 l 2,19,20
 1282 510 1282 510 1231 588 c 128,-1,21
 1180 666 1180 666 1081 670 c 1,22,-1
 743 670 l 1,23,24
 770 570 770 570 817 480.5 c 128,-1,25
 864 391 864 391 932 315 c 1,26,-1
 897 106 l 1,27,-1
 864 106 l 1,28,29
 798 200 798 200 758.5 282.5 c 128,-1,30
 719 365 719 365 695.5 443.5 c 128,-1,31
 672 522 672 522 655 600 c 0,32,33
 647 637 647 637 625 762 c 0,34,35
 602 885 602 885 598 915 c 0,36,37
 586 997 586 997 565.5 1065 c 128,-1,38
 545 1133 545 1133 512 1178 c 128,-1,39
 479 1223 479 1223 426 1223 c 0,40,41
 383 1223 383 1223 351 1200.5 c 128,-1,42
 319 1178 319 1178 295.5 1142 c 128,-1,43
 272 1106 272 1106 258 1060 c 128,-1,44
 244 1014 244 1014 233.5 966 c 128,-1,45
 223 918 223 918 220 870.5 c 128,-1,46
 217 823 217 823 217 786 c 0,47,48
 217 716 217 716 228.5 660 c 128,-1,49
 240 604 240 604 264.5 556 c 128,-1,50
 289 508 289 508 323.5 461 c 128,-1,51
 358 414 358 414 408 360 c 1,52,-1
 346 156 l 1,53,-1
 324 156 l 1,54,55
 236 273 236 273 182.5 407 c 128,-1,56
 129 541 129 541 129 670 c 2,57,-1
 129 670 l 1,58,-1
 0 670 l 1,59,-1
 0 899 l 1,60,-1
 129 899 l 1,0,-1
EndSplineSet
EndChar

StartChar: uniE043
Encoding: 57411 57411 67
Width: 1599
Flags: W
LayerCount: 2
Fore
SplineSet
1114 670 m 1,0,-1
 1114 498 l 2,1,2
 1114 424 1114 424 1160 388 c 128,-1,3
 1206 352 1206 352 1280 352 c 0,4,5
 1352 352 1352 352 1393 388 c 128,-1,6
 1434 424 1434 424 1434 498 c 2,7,-1
 1434 670 l 1,8,-1
 1114 670 l 1,0,-1
1700 899 m 17,9,-1
 1700 670 l 1,10,-1
 1503 670 l 1,11,-1
 1503 498 l 2,12,13
 1503 344 1503 344 1449 258 c 128,-1,14
 1395 172 1395 172 1280 172 c 0,15,16
 1165 172 1165 172 1107 258 c 128,-1,17
 1049 344 1049 344 1049 498 c 2,18,-1
 1049 670 l 1,19,-1
 838 670 l 1,20,21
 836 639 836 639 829.5 585.5 c 128,-1,22
 823 532 823 532 817 473 c 128,-1,23
 811 414 811 414 803 360.5 c 128,-1,24
 795 307 795 307 784 276 c 1,25,-1
 739 260 l 1,26,27
 698 354 698 354 673.5 477 c 128,-1,28
 649 600 649 600 649 801 c 256,29,30
 649 1002 649 1002 603 1084.5 c 128,-1,31
 557 1167 557 1167 498 1167 c 0,32,33
 455 1167 455 1167 421 1138.5 c 128,-1,34
 387 1110 387 1110 364.5 1062 c 128,-1,35
 342 1014 342 1014 327.5 948.5 c 128,-1,36
 313 883 313 883 313 805 c 0,37,38
 313 721 313 721 334.5 663.5 c 128,-1,39
 356 606 356 606 384 559 c 128,-1,40
 412 512 412 512 432.5 470 c 128,-1,41
 453 428 453 428 453 377 c 0,42,43
 453 266 453 266 309 264 c 0,44,45
 276 264 276 264 248.5 269 c 128,-1,46
 221 274 221 274 200.5 283.5 c 128,-1,47
 180 293 180 293 170 301 c 0,48,49
 160 309 160 309 160 317 c 2,50,-1
 160 319 l 2,51,52
 162 348 162 348 185.5 362.5 c 128,-1,53
 209 377 209 377 233.5 393.5 c 128,-1,54
 258 410 258 410 278.5 440.5 c 128,-1,55
 299 471 299 471 299 535 c 0,56,57
 299 562 299 562 292 590 c 128,-1,58
 285 618 285 618 268.5 643 c 128,-1,59
 252 668 252 668 228.5 683 c 128,-1,60
 205 698 205 698 174 698 c 0,61,62
 160 698 160 698 147.5 694 c 128,-1,63
 135 690 135 690 120.5 684 c 128,-1,64
 106 678 106 678 94 674 c 128,-1,65
 82 670 82 670 74 670 c 1,66,67
 54 693 54 693 48.5 722.5 c 128,-1,68
 43 752 43 752 43 791 c 0,69,70
 43 828 43 828 54.5 851 c 128,-1,71
 66 874 66 874 82 886.5 c 128,-1,72
 98 899 98 899 120.5 908.5 c 128,-1,73
 143 918 143 918 162.5 928 c 128,-1,74
 182 938 182 938 200.5 952.5 c 128,-1,75
 219 967 219 967 227 993 c 0,76,77
 290 1177 290 1177 365 1273.5 c 128,-1,78
 440 1370 440 1370 526 1370 c 0,79,80
 571 1370 571 1370 611 1347.5 c 128,-1,81
 651 1325 651 1325 684 1278 c 128,-1,82
 717 1231 717 1231 734.5 1158 c 128,-1,83
 752 1085 752 1085 752 983 c 2,84,-1
 752 899 l 9,85,-1
 1700 899 l 17,9,-1
EndSplineSet
EndChar

StartChar: uniE044
Encoding: 57412 57412 68
Width: 1429
Flags: W
LayerCount: 2
Fore
SplineSet
954 670 m 1,0,-1
 954 498 l 2,1,2
 954 424 954 424 1000.5 388 c 128,-1,3
 1047 352 1047 352 1120 352 c 0,4,5
 1192 352 1192 352 1233 388 c 128,-1,6
 1274 424 1274 424 1274 498 c 2,7,-1
 1274 670 l 1,8,-1
 954 670 l 1,0,-1
1538 899 m 17,9,-1
 1538 670 l 1,10,-1
 1343 670 l 1,11,-1
 1343 498 l 2,12,13
 1343 344 1343 344 1289 258 c 128,-1,14
 1235 172 1235 172 1118 172 c 0,15,16
 1003 172 1003 172 946 258 c 128,-1,17
 889 344 889 344 889 498 c 2,18,-1
 889 670 l 1,19,-1
 678 670 l 1,20,21
 676 639 676 639 670 585.5 c 128,-1,22
 664 532 664 532 657.5 473 c 128,-1,23
 651 414 651 414 643 360.5 c 128,-1,24
 635 307 635 307 625 276 c 1,25,26
 580 260 l 1,27,28
 539 354 539 354 517.5 458.5 c 128,-1,29
 496 563 496 563 485 670 c 1,30,-1
 276 670 l 1,31,32
 274 639 274 639 268 585.5 c 128,-1,33
 262 532 262 532 257 473 c 128,-1,34
 252 414 252 414 244 360.5 c 128,-1,35
 236 307 236 307 225 276 c 1,36,-1
 180 260 l 1,37,38
 139 354 139 354 116.5 458.5 c 128,-1,39
 94 563 94 563 86 670 c 1,40,-1
 0 670 l 1,41,-1
 0 899 l 9,42,-1
 1538 899 l 17,9,-1
EndSplineSet
EndChar

StartChar: uniE045
Encoding: 57413 57413 69
Width: 1673
Flags: W
LayerCount: 2
Fore
SplineSet
991 670 m 5,0,1
 1321 670 l 5,2,3
 1321 602 1321 602 1318 543.5 c 132,-1,4
 1315 485 1315 485 1299.5 443 c 132,-1,5
 1284 401 1284 401 1249 377.5 c 128,-1,6
 1214 354 1214 354 1153 354 c 260,7,8
 1092 354 1092 354 1059 380 c 128,-1,9
 1026 406 1026 406 1010.5 447.5 c 132,-1,10
 995 489 995 489 993 545.5 c 132,-1,11
 991 602 991 602 991 670 c 5,0,1
909 670 m 17,12,13
 909 627 909 627 912 573.5 c 128,-1,14
 915 520 915 520 925.5 465 c 128,-1,15
 936 410 936 410 952.5 358.5 c 128,-1,16
 969 307 969 307 996.5 266 c 128,-1,17
 1024 225 1024 225 1062 201.5 c 128,-1,18
 1100 178 1100 178 1153 178 c 0,19,20
 1225 178 1225 178 1273 210 c 128,-1,21
 1321 242 1321 242 1349.5 296 c 128,-1,22
 1378 350 1378 350 1388.5 417.5 c 128,-1,23
 1399 485 1399 485 1399 555 c 2,24,-1
 1399 791 l 2,25,26
 1399 900 1399 900 1292 899 c 2,27,-1
 995 899 l 1,28,29
 1048 1216 1048 1216 1257 1219 c 0,30,31
 1300 1219 1300 1219 1340 1197.5 c 128,-1,32
 1380 1176 1380 1176 1412 1133 c 128,-1,33
 1444 1090 1444 1090 1469.5 1024 c 128,-1,34
 1495 958 1495 958 1507 868 c 1,35,36
 1519 813 1519 813 1527.5 791.5 c 128,-1,37
 1536 770 1536 770 1552 770 c 0,38,39
 1558 770 1558 770 1569.5 794.5 c 128,-1,40
 1581 819 1581 819 1581 866 c 0,41,42
 1581 987 1581 987 1559.5 1088.5 c 128,-1,43
 1538 1190 1538 1190 1496 1262.5 c 128,-1,44
 1454 1335 1454 1335 1394.5 1376 c 128,-1,45
 1335 1417 1335 1417 1257 1417 c 0,46,47
 1099 1417 1099 1417 1016 1286 c 0,48,49
 930 1153 930 1153 909 899 c 1,50,-1
 0 899 l 1,51,-1
 0 670 l 1,52,-1
 106 670 l 1,53,54
 114 564 114 564 138 459 c 128,-1,55
 162 354 162 354 201 260 c 1,56,-1
 246 276 l 1,57,58
 256 307 256 307 264 360.5 c 128,-1,59
 272 414 272 414 278.5 473 c 128,-1,60
 285 532 285 532 291 585.5 c 128,-1,61
 297 639 297 639 299 670 c 1,62,-1
 508 670 l 1,63,64
 516 564 516 564 538.5 459 c 128,-1,65
 561 354 561 354 600 260 c 1,66,-1
 645 276 l 1,67,68
 655 307 655 307 663.5 360.5 c 128,-1,69
 672 414 672 414 678 473 c 128,-1,70
 684 532 684 532 690 585.5 c 128,-1,71
 696 639 696 639 698 670 c 9,72,-1
 909 670 l 17,12,13
EndSplineSet
EndChar

StartChar: uniE046
Encoding: 57414 57414 70
Width: 1523
Flags: W
LayerCount: 2
Fore
SplineSet
864 670 m 1,0,-1
 662 670 l 1,1,-1
 662 569 l 2,2,3
 662 520 662 520 667 488.5 c 128,-1,4
 672 457 672 457 684 437.5 c 128,-1,5
 696 418 696 418 713.5 412 c 128,-1,6
 731 406 731 406 764 406 c 256,7,8
 795 406 795 406 815.5 412 c 128,-1,9
 836 418 836 418 847 438.5 c 128,-1,10
 858 459 858 459 861 490.5 c 128,-1,11
 864 522 864 522 864 569 c 2,12,-1
 864 670 l 1,0,-1
1624 899 m 1,13,-1
 1624 670 l 1,14,-1
 1151 670 l 1,15,-1
 1411 299 l 1,16,-1
 1411 266 l 1,17,-1
 1358 4 l 1,18,-1
 1327 4 l 1,19,-1
 1065 670 l 1,20,-1
 946 670 l 1,21,-1
 946 504 l 2,22,23
 946 438 946 438 940 386 c 128,-1,24
 934 334 934 334 913.5 298 c 128,-1,25
 893 262 893 262 857 243.5 c 128,-1,26
 821 225 821 225 764 225 c 0,27,28
 670 225 670 225 626 292.5 c 128,-1,29
 582 360 582 360 582 504 c 2,30,-1
 582 815 l 2,31,32
 582 831 582 831 585 846.5 c 128,-1,33
 588 862 588 862 596 875.5 c 128,-1,34
 604 889 604 889 620.5 894 c 128,-1,35
 637 899 637 899 662 899 c 2,36,-1
 864 899 l 1,37,38
 864 1042 864 1042 791.5 1130.5 c 128,-1,39
 719 1219 719 1219 565 1219 c 0,40,41
 469 1219 469 1219 405.5 1183 c 128,-1,42
 342 1147 342 1147 304 1090.5 c 128,-1,43
 266 1034 266 1034 249.5 963.5 c 128,-1,44
 233 893 233 893 233 821 c 0,45,46
 233 735 233 735 246.5 668.5 c 128,-1,47
 260 602 260 602 282.5 545.5 c 128,-1,48
 305 489 305 489 336 436 c 128,-1,49
 367 383 367 383 408 317 c 1,50,-1
 322 137 l 1,51,52
 275 203 275 203 242 285 c 128,-1,53
 209 367 209 367 187.5 459 c 128,-1,54
 166 551 166 551 154 643 c 0,55,56
 148 729 148 729 147 799 c 0,57,58
 147 879 147 879 154 963 c 1,59,60
 164 1035 164 1035 185.5 1100 c 128,-1,61
 207 1165 207 1165 238.5 1223.5 c 128,-1,62
 270 1282 270 1282 318.5 1326 c 128,-1,63
 367 1370 367 1370 427 1394.5 c 128,-1,64
 487 1419 487 1419 565 1419 c 0,65,66
 665 1419 665 1419 736 1385.5 c 128,-1,67
 807 1352 807 1352 850 1287.5 c 128,-1,68
 893 1223 893 1223 919.5 1119.5 c 128,-1,69
 946 1016 946 1016 946 899 c 1,70,-1
 1624 899 l 1,13,-1
EndSplineSet
EndChar

StartChar: uniE047
Encoding: 57415 57415 71
Width: 1003
Flags: W
LayerCount: 2
Fore
SplineSet
829 670 m 5,0,-1
 627 670 l 5,1,-1
 627 569 l 6,2,3
 627 520 627 520 631 488.5 c 132,-1,4
 635 457 635 457 647 437.5 c 132,-1,5
 659 418 659 418 677.5 412 c 132,-1,6
 696 406 696 406 727 406 c 260,7,8
 758 406 758 406 778.5 412 c 132,-1,9
 799 418 799 418 810 438.5 c 132,-1,10
 821 459 821 459 825 490.5 c 132,-1,11
 829 522 829 522 829 569 c 6,12,-1
 829 670 l 5,0,-1
117 670 m 5,13,-1
 -2 670 l 5,14,-1
 -2 899 l 5,15,-1
 115 899 l 5,16,17
 115 942 115 942 119 963 c 4,18,19
 127 1029 127 1029 150 1100 c 4,20,21
 170 1166 170 1166 203 1224 c 132,-1,22
 236 1282 236 1282 283 1326 c 132,-1,23
 330 1370 330 1370 390.5 1394.5 c 132,-1,24
 451 1419 451 1419 530 1419 c 4,25,26
 630 1419 630 1419 700 1385.5 c 132,-1,27
 770 1352 770 1352 813 1287.5 c 132,-1,28
 856 1223 856 1223 883.5 1119.5 c 132,-1,29
 911 1016 911 1016 911 899 c 5,30,-1
 1087 899 l 5,31,-1
 1087 670 l 5,32,-1
 911 670 l 5,33,-1
 911 504 l 6,34,35
 911 438 911 438 904 386 c 132,-1,36
 897 334 897 334 876.5 298 c 132,-1,37
 856 262 856 262 821 243.5 c 132,-1,38
 786 225 786 225 727 225 c 4,39,40
 633 225 633 225 590 292.5 c 132,-1,41
 547 360 547 360 547 504 c 6,42,-1
 547 815 l 6,43,44
 547 831 547 831 549 846.5 c 132,-1,45
 551 862 551 862 559 875.5 c 132,-1,46
 567 889 567 889 583.5 894 c 132,-1,47
 600 899 600 899 627 899 c 6,48,-1
 829 899 l 5,49,50
 829 1042 829 1042 755.5 1130.5 c 132,-1,51
 682 1219 682 1219 530 1219 c 4,52,53
 434 1219 434 1219 370.5 1183 c 132,-1,54
 307 1147 307 1147 269 1090.5 c 132,-1,55
 231 1034 231 1034 214 963.5 c 132,-1,56
 197 893 197 893 197 821 c 4,57,58
 197 735 197 735 210 668.5 c 132,-1,59
 223 602 223 602 245.5 545.5 c 132,-1,60
 268 489 268 489 299 436 c 132,-1,61
 330 383 330 383 373 317 c 5,62,-1
 285 137 l 5,63,64
 238 203 238 203 205 285 c 132,-1,65
 172 367 172 367 150 459 c 4,66,67
 123 578 123 578 119 643 c 4,68,69
 117 658 117 658 117 670 c 5,13,-1
EndSplineSet
EndChar

StartChar: uniE048
Encoding: 57416 57416 72
Width: 1028
Flags: W
LayerCount: 2
Fore
SplineSet
819 670 m 1,0,-1
 616 670 l 1,1,-1
 616 569 l 2,2,3
 616 520 616 520 621.5 488.5 c 128,-1,4
 627 457 627 457 639 437.5 c 128,-1,5
 651 418 651 418 668.5 412 c 128,-1,6
 686 406 686 406 719 406 c 256,7,8
 750 406 750 406 770.5 412 c 128,-1,9
 791 418 791 418 802 438.5 c 128,-1,10
 813 459 813 459 816 490.5 c 128,-1,11
 819 522 819 522 819 569 c 2,12,-1
 819 670 l 1,0,-1
104 899 m 1,13,14
 104 942 104 942 109 963 c 0,15,16
 117 1029 117 1029 141 1100 c 0,17,18
 161 1166 161 1166 193 1224 c 128,-1,19
 225 1282 225 1282 273.5 1326 c 128,-1,20
 322 1370 322 1370 382 1394.5 c 128,-1,21
 442 1419 442 1419 520 1419 c 0,22,23
 620 1419 620 1419 691 1385.5 c 128,-1,24
 762 1352 762 1352 805 1287.5 c 128,-1,25
 848 1223 848 1223 874.5 1119.5 c 128,-1,26
 901 1016 901 1016 901 899 c 2,27,-1
 901 504 l 2,28,29
 901 438 901 438 895 386 c 128,-1,30
 889 334 889 334 868.5 298 c 128,-1,31
 848 262 848 262 812 243.5 c 128,-1,32
 776 225 776 225 719 225 c 0,33,34
 625 225 625 225 581 292.5 c 128,-1,35
 537 360 537 360 537 504 c 2,36,-1
 537 815 l 2,37,38
 537 831 537 831 540 846.5 c 128,-1,39
 543 862 543 862 551 875.5 c 128,-1,40
 559 889 559 889 575.5 894 c 128,-1,41
 592 899 592 899 616 899 c 2,42,-1
 819 899 l 1,43,44
 819 1042 819 1042 746.5 1130.5 c 128,-1,45
 674 1219 674 1219 520 1219 c 0,46,47
 424 1219 424 1219 361.5 1183 c 128,-1,48
 299 1147 299 1147 260 1090.5 c 128,-1,49
 221 1034 221 1034 204.5 963.5 c 128,-1,50
 188 893 188 893 188 821 c 0,51,52
 188 735 188 735 201.5 668.5 c 128,-1,53
 215 602 215 602 237.5 545.5 c 128,-1,54
 260 489 260 489 291 436 c 128,-1,55
 322 383 322 383 362 317 c 1,56,-1
 276 137 l 1,57,58
 229 203 229 203 196.5 285 c 128,-1,59
 164 367 164 367 141 459 c 0,60,61
 114 578 114 578 109 643 c 0,62,63
 109 657 109 657 106 670 c 1,64,-1
 0 670 l 1,65,-1
 0 899 l 1,66,-1
 104 899 l 1,13,14
EndSplineSet
EndChar

StartChar: uniE049
Encoding: 57417 57417 73
Width: 2162
Flags: W
LayerCount: 2
Fore
SplineSet
725 -215 m 0,0,1
 725 -225 725 -225 718 -235.5 c 128,-1,2
 711 -246 711 -246 699.5 -255 c 128,-1,3
 688 -264 688 -264 675 -275.5 c 128,-1,4
 662 -287 662 -287 647 -301 c 0,5,6
 635 -315 635 -315 625.5 -328.5 c 128,-1,7
 616 -342 616 -342 608 -351 c 128,-1,8
 600 -360 600 -360 594 -366.5 c 128,-1,9
 588 -373 588 -373 580 -373 c 0,10,11
 562 -373 562 -373 547 -362.5 c 128,-1,12
 532 -352 532 -352 532 -332 c 0,13,14
 532 -305 532 -305 536.5 -283.5 c 128,-1,15
 541 -262 541 -262 551 -236 c 0,16,17
 555 -220 555 -220 565 -201 c 128,-1,18
 575 -182 575 -182 586.5 -167 c 128,-1,19
 598 -152 598 -152 613.5 -142.5 c 128,-1,20
 629 -133 629 -133 645 -133 c 0,21,22
 663 -133 663 -133 686 -154 c 0,23,24
 725 -186 725 -186 725 -215 c 0,0,1
621 59 m 0,25,26
 621 49 621 49 613.5 40 c 128,-1,27
 606 31 606 31 596 20.5 c 128,-1,28
 586 10 586 10 571.5 0 c 128,-1,29
 557 -10 557 -10 545 -27 c 0,30,31
 533 -41 533 -41 522.5 -53.5 c 128,-1,32
 512 -66 512 -66 505 -76 c 128,-1,33
 498 -86 498 -86 490.5 -91 c 128,-1,34
 483 -96 483 -96 475 -96 c 0,35,36
 455 -96 455 -96 442.5 -86 c 128,-1,37
 430 -76 430 -76 430 -55 c 0,38,39
 430 -28 430 -28 434 -8 c 128,-1,40
 438 12 438 12 446 41 c 0,41,42
 452 57 452 57 461.5 74.5 c 128,-1,43
 471 92 471 92 483.5 108.5 c 128,-1,44
 496 125 496 125 510 134 c 128,-1,45
 524 143 524 143 541 143 c 0,46,47
 559 143 559 143 584 123 c 0,48,49
 621 88 621 88 621 59 c 0,25,26
1243 899 m 17,50,-1
 1243 762 l 2,51,52
 1243 715 1243 715 1261.5 654.5 c 128,-1,53
 1280 594 1280 594 1305.5 535.5 c 128,-1,54
 1331 477 1331 477 1357.5 431 c 128,-1,55
 1384 385 1384 385 1409 365 c 1,56,57
 1403 383 1403 383 1403 416 c 0,58,59
 1403 436 1403 436 1407 463 c 0,60,61
 1413 526 1413 526 1440.5 655 c 128,-1,62
 1468 784 1468 784 1555 1002.5 c 128,-1,63
 1642 1221 1642 1221 1682 1370.5 c 128,-1,64
 1722 1520 1722 1520 1722 1561 c 0,65,66
 1722 1588 1722 1588 1716 1620.5 c 128,-1,67
 1710 1653 1710 1653 1705 1687.5 c 128,-1,68
 1700 1722 1700 1722 1693 1752 c 128,-1,69
 1686 1782 1686 1782 1686 1790 c 0,70,71
 1686 1825 1686 1825 1695 1840 c 128,-1,72
 1704 1855 1704 1855 1729 1855 c 0,73,74
 1735 1855 1735 1855 1748 1838 c 128,-1,75
 1761 1821 1761 1821 1776 1796 c 0,76,77
 1807 1739 1807 1739 1830 1692 c 128,-1,78
 1853 1645 1853 1645 1875.5 1597.5 c 128,-1,79
 1898 1550 1898 1550 1924 1501 c 128,-1,80
 1950 1452 1950 1452 1978 1395 c 1,81,82
 1886 1276 1886 1276 1821.5 1183 c 128,-1,83
 1757 1090 1757 1090 1689.5 919 c 128,-1,84
 1622 748 1622 748 1564.5 545 c 128,-1,85
 1507 342 1507 342 1507 145 c 1,86,87
 1435 182 1435 182 1375 245.5 c 128,-1,88
 1315 309 1315 309 1269 383 c 128,-1,89
 1223 457 1223 457 1193 532.5 c 128,-1,90
 1163 608 1163 608 1159 670 c 1,91,-1
 961 670 l 1,92,93
 959 639 959 639 952.5 585.5 c 128,-1,94
 946 532 946 532 940 473 c 128,-1,95
 934 414 934 414 926 360.5 c 128,-1,96
 918 307 918 307 909 276 c 1,97,-1
 864 260 l 1,98,99
 823 354 823 354 798.5 477 c 128,-1,100
 774 600 774 600 774 801 c 256,101,102
 774 1002 774 1002 728 1084.5 c 128,-1,103
 682 1167 682 1167 623 1167 c 0,104,105
 580 1167 580 1167 546 1138.5 c 128,-1,106
 512 1110 512 1110 488.5 1062 c 128,-1,107
 465 1014 465 1014 451.5 948.5 c 128,-1,108
 438 883 438 883 438 805 c 0,109,110
 438 721 438 721 459.5 663.5 c 128,-1,111
 481 606 481 606 508 559 c 128,-1,112
 535 512 535 512 556.5 470 c 128,-1,113
 578 428 578 428 578 377 c 0,114,115
 578 266 578 266 434 264 c 0,116,117
 401 264 401 264 372.5 269 c 128,-1,118
 344 274 344 274 324.5 283.5 c 128,-1,119
 305 293 305 293 293 301 c 0,120,121
 283 309 283 309 283 317 c 2,122,-1
 283 319 l 2,123,124
 285 348 285 348 308.5 362.5 c 128,-1,125
 332 377 332 377 357.5 393.5 c 128,-1,126
 383 410 383 410 403.5 440.5 c 128,-1,127
 424 471 424 471 424 535 c 0,128,129
 424 562 424 562 416 590 c 128,-1,130
 408 618 408 618 391.5 643 c 128,-1,131
 375 668 375 668 351.5 683 c 128,-1,132
 328 698 328 698 299 698 c 0,133,134
 285 698 285 698 272.5 694 c 128,-1,135
 260 690 260 690 245.5 684 c 128,-1,136
 231 678 231 678 219 674 c 128,-1,137
 207 670 207 670 197 670 c 1,138,139
 177 693 177 693 172.5 722.5 c 128,-1,140
 168 752 168 752 168 791 c 0,141,142
 168 828 168 828 178 851 c 128,-1,143
 188 874 188 874 204.5 886.5 c 128,-1,144
 221 899 221 899 243.5 908.5 c 128,-1,145
 266 918 266 918 286.5 928 c 128,-1,146
 307 938 307 938 324.5 952.5 c 128,-1,147
 342 967 342 967 352 993 c 0,148,149
 415 1177 415 1177 489 1273.5 c 128,-1,150
 563 1370 563 1370 651 1370 c 0,151,152
 696 1370 696 1370 735 1347.5 c 128,-1,153
 774 1325 774 1325 807 1278 c 128,-1,154
 840 1231 840 1231 858.5 1158 c 128,-1,155
 877 1085 877 1085 877 983 c 2,156,-1
 874 899 l 9,157,-1
 1243 899 l 17,50,-1
EndSplineSet
EndChar

StartChar: uniE04A
Encoding: 57418 57418 74
Width: 1767
Flags: W
LayerCount: 2
Fore
SplineSet
705 -215 m 4,0,1
 705 -225 705 -225 697.5 -235.5 c 132,-1,2
 690 -246 690 -246 680 -255 c 132,-1,3
 670 -264 670 -264 655.5 -275.5 c 132,-1,4
 641 -287 641 -287 627 -301 c 4,5,6
 615 -315 615 -315 605.5 -328.5 c 132,-1,7
 596 -342 596 -342 589 -351 c 132,-1,8
 582 -360 582 -360 574.5 -366.5 c 132,-1,9
 567 -373 567 -373 559 -373 c 4,10,11
 541 -373 541 -373 526.5 -362.5 c 132,-1,12
 512 -352 512 -352 512 -332 c 4,13,14
 512 -305 512 -305 516 -283.5 c 132,-1,15
 520 -262 520 -262 530 -236 c 4,16,17
 534 -220 534 -220 544.5 -201 c 132,-1,18
 555 -182 555 -182 567.5 -167 c 132,-1,19
 580 -152 580 -152 594 -142.5 c 132,-1,20
 608 -133 608 -133 625 -133 c 4,21,22
 643 -133 643 -133 666 -154 c 4,23,24
 705 -186 705 -186 705 -215 c 4,0,1
600 59 m 4,25,26
 600 49 600 49 594 40 c 132,-1,27
 588 31 588 31 576.5 20.5 c 132,-1,28
 565 10 565 10 551 0 c 132,-1,29
 537 -10 537 -10 524 -27 c 4,30,31
 512 -41 512 -41 503 -53.5 c 132,-1,32
 494 -66 494 -66 485.5 -76 c 132,-1,33
 477 -86 477 -86 471 -91 c 132,-1,34
 465 -96 465 -96 457 -96 c 4,35,36
 437 -96 437 -96 423.5 -86 c 132,-1,37
 410 -76 410 -76 410 -55 c 4,38,39
 410 -28 410 -28 414 -8 c 132,-1,40
 418 12 418 12 426 41 c 4,41,42
 432 57 432 57 441.5 74.5 c 132,-1,43
 451 92 451 92 463 108.5 c 132,-1,44
 475 125 475 125 489.5 134 c 132,-1,45
 504 143 504 143 520 143 c 4,46,47
 538 143 538 143 563 123 c 4,48,49
 600 88 600 88 600 59 c 4,25,26
1214 670 m 1,50,-1
 1214 498 l 2,51,52
 1214 424 1214 424 1260.5 388 c 128,-1,53
 1307 352 1307 352 1380 352 c 0,54,55
 1452 352 1452 352 1492 388 c 128,-1,56
 1532 424 1532 424 1532 498 c 2,57,-1
 1532 670 l 1,58,-1
 1214 670 l 1,50,-1
1602 899 m 17,59,-1
 1602 498 l 2,60,61
 1602 344 1602 344 1547.5 258 c 128,-1,62
 1493 172 1493 172 1378 172 c 0,63,64
 1263 172 1263 172 1206 258 c 128,-1,65
 1149 344 1149 344 1149 498 c 2,66,-1
 1149 670 l 1,67,-1
 938 670 l 1,68,69
 936 639 936 639 930 585.5 c 128,-1,70
 924 532 924 532 916.5 473 c 128,-1,71
 909 414 909 414 902 360.5 c 128,-1,72
 895 307 895 307 885 276 c 1,73,-1
 840 260 l 1,74,75
 799 354 799 354 774.5 477 c 128,-1,76
 750 600 750 600 750 801 c 256,77,78
 750 1002 750 1002 703.5 1084.5 c 128,-1,79
 657 1167 657 1167 598 1167 c 0,80,81
 555 1167 555 1167 521 1138.5 c 128,-1,82
 487 1110 487 1110 463.5 1062 c 128,-1,83
 440 1014 440 1014 427 948.5 c 128,-1,84
 414 883 414 883 414 805 c 0,85,86
 414 721 414 721 435.5 663.5 c 128,-1,87
 457 606 457 606 484.5 559 c 128,-1,88
 512 512 512 512 532.5 470 c 128,-1,89
 553 428 553 428 553 377 c 0,90,91
 553 266 553 266 410 264 c 0,92,93
 377 264 377 264 349.5 269 c 128,-1,94
 322 274 322 274 301.5 283.5 c 128,-1,95
 281 293 281 293 268 301 c 0,96,97
 258 309 258 309 258 317 c 2,98,-1
 258 319 l 2,99,100
 260 348 260 348 283.5 362.5 c 128,-1,101
 307 377 307 377 332.5 393.5 c 128,-1,102
 358 410 358 410 378.5 440.5 c 128,-1,103
 399 471 399 471 399 535 c 0,104,105
 399 562 399 562 392 590 c 128,-1,106
 385 618 385 618 367.5 643 c 128,-1,107
 350 668 350 668 326.5 683 c 128,-1,108
 303 698 303 698 274 698 c 0,109,110
 260 698 260 698 248 694 c 128,-1,111
 236 690 236 690 221.5 684 c 128,-1,112
 207 678 207 678 194.5 674 c 128,-1,113
 182 670 182 670 172 670 c 1,114,115
 152 693 152 693 147.5 722.5 c 128,-1,116
 143 752 143 752 143 791 c 0,117,118
 143 828 143 828 154.5 851 c 128,-1,119
 166 874 166 874 182.5 886.5 c 128,-1,120
 199 899 199 899 221.5 908.5 c 128,-1,121
 244 918 244 918 263.5 928 c 128,-1,122
 283 938 283 938 301 952.5 c 128,-1,123
 319 967 319 967 328 993 c 0,124,125
 391 1177 391 1177 466 1273.5 c 128,-1,126
 541 1370 541 1370 627 1370 c 0,127,128
 672 1370 672 1370 712 1347.5 c 128,-1,129
 752 1325 752 1325 783.5 1278 c 128,-1,130
 815 1231 815 1231 833.5 1158 c 128,-1,131
 852 1085 852 1085 852 983 c 2,132,-1
 852 899 l 9,133,-1
 1602 899 l 17,59,-1
EndSplineSet
EndChar

StartChar: uniE04B
Encoding: 57419 57419 75
Width: 1476
Flags: W
LayerCount: 2
Fore
SplineSet
674 -215 m 0,0,1
 674 -225 674 -225 666.5 -235.5 c 128,-1,2
 659 -246 659 -246 649 -255 c 128,-1,3
 639 -264 639 -264 624.5 -275.5 c 128,-1,4
 610 -287 610 -287 598 -301 c 128,-1,5
 586 -315 586 -315 575.5 -328.5 c 128,-1,6
 565 -342 565 -342 558 -351 c 128,-1,7
 551 -360 551 -360 544 -366.5 c 128,-1,8
 537 -373 537 -373 528 -373 c 0,9,10
 510 -373 510 -373 496.5 -362.5 c 128,-1,11
 483 -352 483 -352 483 -332 c 0,12,13
 483 -305 483 -305 487.5 -283.5 c 128,-1,14
 492 -262 492 -262 502 -236 c 0,15,16
 506 -220 506 -220 515 -201 c 128,-1,17
 524 -182 524 -182 536.5 -167 c 128,-1,18
 549 -152 549 -152 563.5 -142.5 c 128,-1,19
 578 -133 578 -133 596 -133 c 128,-1,20
 614 -133 614 -133 637 -154 c 0,21,22
 674 -186 674 -186 674 -215 c 0,0,1
571 59 m 0,23,24
 571 49 571 49 564 40 c 128,-1,25
 557 31 557 31 546 20.5 c 128,-1,26
 535 10 535 10 521.5 0 c 128,-1,27
 508 -10 508 -10 494 -27 c 0,28,29
 482 -41 482 -41 472.5 -53.5 c 128,-1,30
 463 -66 463 -66 456 -76 c 128,-1,31
 449 -86 449 -86 441.5 -91 c 128,-1,32
 434 -96 434 -96 426 -96 c 0,33,34
 406 -96 406 -96 393.5 -86 c 128,-1,35
 381 -76 381 -76 381 -55 c 0,36,37
 381 -28 381 -28 384 -8 c 128,-1,38
 387 12 387 12 397 41 c 0,39,40
 403 57 403 57 412.5 74.5 c 128,-1,41
 422 92 422 92 433 108.5 c 128,-1,42
 444 125 444 125 458.5 134 c 128,-1,43
 473 143 473 143 491.5 143 c 128,-1,44
 510 143 510 143 532 123 c 0,45,46
 571 88 571 88 571 59 c 0,23,24
1124 670 m 9,47,-1
 918 670 l 17,48,49
 916 639 916 639 909.5 585.5 c 128,-1,50
 903 532 903 532 897 473 c 128,-1,51
 891 414 891 414 882.5 360.5 c 128,-1,52
 874 307 874 307 866 276 c 1,53,-1
 821 260 l 1,54,55
 780 354 780 354 755.5 477 c 128,-1,56
 731 600 731 600 731 801 c 256,57,58
 731 1000 731 1000 685 1083.5 c 128,-1,59
 639 1167 639 1167 580 1167 c 0,60,61
 537 1167 537 1167 503 1138.5 c 128,-1,62
 469 1110 469 1110 445.5 1062 c 128,-1,63
 422 1014 422 1014 408.5 948.5 c 128,-1,64
 395 883 395 883 395 805 c 0,65,66
 395 723 395 723 416.5 664.5 c 128,-1,67
 438 606 438 606 465 559 c 128,-1,68
 492 512 492 512 513.5 470 c 128,-1,69
 535 428 535 428 535 377 c 0,70,71
 535 264 535 264 391 264 c 0,72,73
 358 264 358 264 329.5 269 c 128,-1,74
 301 274 301 274 281.5 283.5 c 128,-1,75
 262 293 262 293 250 301 c 0,76,77
 240 309 240 309 240 317 c 2,78,-1
 240 319 l 2,79,80
 242 348 242 348 265.5 362.5 c 128,-1,81
 289 377 289 377 314.5 393.5 c 128,-1,82
 340 410 340 410 360.5 441.5 c 128,-1,83
 381 473 381 473 381 535 c 0,84,85
 381 560 381 560 373 589 c 128,-1,86
 365 618 365 618 348.5 643 c 128,-1,87
 332 668 332 668 309.5 683 c 128,-1,88
 287 698 287 698 256 698 c 0,89,90
 240 698 240 698 228.5 694 c 128,-1,91
 217 690 217 690 202.5 684 c 128,-1,92
 188 678 188 678 175 674 c 128,-1,93
 162 670 162 670 154 670 c 1,94,95
 134 693 134 693 129.5 721.5 c 128,-1,96
 125 750 125 750 125 791 c 0,97,98
 125 828 125 828 135 851 c 128,-1,99
 145 874 145 874 161.5 886.5 c 128,-1,100
 178 899 178 899 200.5 908.5 c 128,-1,101
 223 918 223 918 243.5 928 c 128,-1,102
 264 938 264 938 282.5 952.5 c 128,-1,103
 301 967 301 967 309 993 c 0,104,105
 372 1177 372 1177 447 1273.5 c 128,-1,106
 522 1370 522 1370 608 1370 c 0,107,108
 653 1370 653 1370 692 1347.5 c 128,-1,109
 731 1325 731 1325 764 1278 c 128,-1,110
 797 1231 797 1231 815.5 1157 c 128,-1,111
 834 1083 834 1083 834 983 c 2,112,-1
 831 899 l 1,113,-1
 1577 899 l 1,114,-1
 1577 670 l 1,115,-1
 1315 670 l 1,116,117
 1313 639 1313 639 1306.5 585.5 c 128,-1,118
 1300 532 1300 532 1294 473 c 128,-1,119
 1288 414 1288 414 1281 360.5 c 128,-1,120
 1274 307 1274 307 1264 276 c 1,121,-1
 1219 260 l 1,122,123
 1178 354 1178 354 1155 459 c 128,-1,124
 1132 564 1132 564 1124 670 c 9,47,-1
EndSplineSet
EndChar

StartChar: uniE04C
Encoding: 57420 57420 76
Width: 1249
Flags: W
LayerCount: 2
Fore
SplineSet
774 -215 m 4,0,1
 774 -225 774 -225 767 -235.5 c 132,-1,2
 760 -246 760 -246 749.5 -255 c 132,-1,3
 739 -264 739 -264 725 -275.5 c 132,-1,4
 711 -287 711 -287 696 -301 c 4,5,6
 684 -315 684 -315 675 -328.5 c 132,-1,7
 666 -342 666 -342 658.5 -351 c 132,-1,8
 651 -360 651 -360 644 -366.5 c 132,-1,9
 637 -373 637 -373 629 -373 c 4,10,11
 611 -373 611 -373 597.5 -362.5 c 132,-1,12
 584 -352 584 -352 584 -332 c 4,13,14
 584 -305 584 -305 588 -283.5 c 132,-1,15
 592 -262 592 -262 600 -236 c 4,16,17
 604 -220 604 -220 614.5 -201 c 132,-1,18
 625 -182 625 -182 637 -167 c 132,-1,19
 649 -152 649 -152 663.5 -142.5 c 132,-1,20
 678 -133 678 -133 694 -133 c 4,21,22
 712 -133 712 -133 735 -154 c 4,23,24
 774 -186 774 -186 774 -215 c 4,0,1
672 59 m 4,25,26
 672 49 672 49 664.5 40 c 132,-1,27
 657 31 657 31 646 20.5 c 132,-1,28
 635 10 635 10 620.5 0 c 132,-1,29
 606 -10 606 -10 594 -27 c 4,30,31
 582 -41 582 -41 572.5 -53.5 c 132,-1,32
 563 -66 563 -66 556 -76 c 132,-1,33
 549 -86 549 -86 542 -91 c 132,-1,34
 535 -96 535 -96 526 -96 c 4,35,36
 506 -96 506 -96 492.5 -86 c 132,-1,37
 479 -76 479 -76 479 -55 c 4,38,39
 479 -28 479 -28 483 -8 c 132,-1,40
 487 12 487 12 498 41 c 4,41,42
 504 57 504 57 512 74.5 c 132,-1,43
 520 92 520 92 532.5 108.5 c 132,-1,44
 545 125 545 125 559 134 c 132,-1,45
 573 143 573 143 592 143 c 4,46,47
 610 143 610 143 633 123 c 4,48,49
 672 88 672 88 672 59 c 4,25,26
1360 899 m 17,50,-1
 1360 670 l 1,51,-1
 1098 670 l 1,52,53
 1096 639 1096 639 1089.5 585.5 c 128,-1,54
 1083 532 1083 532 1077 473 c 128,-1,55
 1071 414 1071 414 1063 360.5 c 128,-1,56
 1055 307 1055 307 1044 276 c 1,57,-1
 999 260 l 1,58,59
 958 354 958 354 936.5 458.5 c 128,-1,60
 915 563 915 563 905 670 c 1,61,-1
 696 670 l 1,62,63
 694 639 694 639 688 585.5 c 128,-1,64
 682 532 682 532 677 473 c 128,-1,65
 672 414 672 414 663.5 360.5 c 128,-1,66
 655 307 655 307 645 276 c 1,67,-1
 600 260 l 1,68,69
 559 354 559 354 536.5 458.5 c 128,-1,70
 514 563 514 563 506 670 c 1,71,-1
 297 670 l 1,72,73
 295 639 295 639 289 585.5 c 128,-1,74
 283 532 283 532 276.5 473 c 128,-1,75
 270 414 270 414 263 360.5 c 128,-1,76
 256 307 256 307 246 276 c 1,77,-1
 201 260 l 1,78,79
 160 354 160 354 137.5 458.5 c 128,-1,80
 115 563 115 563 106 670 c 1,81,-1
 0 670 l 1,82,-1
 0 899 l 9,83,-1
 1360 899 l 17,50,-1
EndSplineSet
EndChar

StartChar: uniE04D
Encoding: 57421 57421 77
Width: 1671
Flags: W
LayerCount: 2
Fore
SplineSet
1386 362 m 4,0,1
 1386 350 1386 350 1378 340 c 132,-1,2
 1370 330 1370 330 1360 318.5 c 132,-1,3
 1350 307 1350 307 1333.5 296 c 132,-1,4
 1317 285 1317 285 1303 268 c 4,5,6
 1289 252 1289 252 1277.5 237.5 c 132,-1,7
 1266 223 1266 223 1257.5 213 c 132,-1,8
 1249 203 1249 203 1243 196.5 c 132,-1,9
 1237 190 1237 190 1227 190 c 4,10,11
 1207 190 1207 190 1190.5 199.5 c 132,-1,12
 1174 209 1174 209 1174 236 c 4,13,14
 1174 265 1174 265 1180 287 c 132,-1,15
 1186 309 1186 309 1194 342 c 4,16,17
 1200 358 1200 358 1209.5 377.5 c 132,-1,18
 1219 397 1219 397 1233 414.5 c 132,-1,19
 1247 432 1247 432 1263.5 443.5 c 132,-1,20
 1280 455 1280 455 1300 455 c 4,21,22
 1318 455 1318 455 1343 430 c 4,23,24
 1386 393 1386 393 1386 362 c 4,0,1
1135 449 m 4,25,26
 1135 437 1135 437 1126.5 426.5 c 132,-1,27
 1118 416 1118 416 1108 405.5 c 132,-1,28
 1098 395 1098 395 1081.5 382 c 132,-1,29
 1065 369 1065 369 1051 354 c 4,30,31
 1037 338 1037 338 1025.5 323.5 c 132,-1,32
 1014 309 1014 309 1005.5 300 c 132,-1,33
 997 291 997 291 990 282.5 c 132,-1,34
 983 274 983 274 975 274 c 4,35,36
 955 274 955 274 938.5 285.5 c 132,-1,37
 922 297 922 297 922 319 c 4,38,39
 922 350 922 350 927 373.5 c 132,-1,40
 932 397 932 397 942 426 c 4,41,42
 948 446 948 446 957.5 465.5 c 132,-1,43
 967 485 967 485 981 500.5 c 132,-1,44
 995 516 995 516 1011.5 528.5 c 132,-1,45
 1028 541 1028 541 1049 541 c 4,46,47
 1067 541 1067 541 1094 516 c 4,48,49
 1135 480 1135 480 1135 449 c 4,25,26
1548 438 m 2,50,-1
 1548 23 l 2,51,52
 1548 -63 1548 -63 1532 -128 c 128,-1,53
 1516 -193 1516 -193 1485 -241 c 128,-1,54
 1454 -289 1454 -289 1409 -322.5 c 128,-1,55
 1364 -356 1364 -356 1305 -383 c 0,56,57
 1270 -397 1270 -397 1250.5 -409.5 c 128,-1,58
 1231 -422 1231 -422 1216.5 -435.5 c 128,-1,59
 1202 -449 1202 -449 1192 -466 c 128,-1,60
 1182 -483 1182 -483 1167 -512 c 1,61,-1
 1145 -512 l 1,62,-1
 1210 -225 l 1,63,64
 1224 -221 1224 -221 1237.5 -217 c 128,-1,65
 1251 -213 1251 -213 1267.5 -209 c 128,-1,66
 1284 -205 1284 -205 1301.5 -194.5 c 128,-1,67
 1319 -184 1319 -184 1346 -170 c 0,68,69
 1360 -162 1360 -162 1379.5 -148.5 c 128,-1,70
 1399 -135 1399 -135 1415.5 -112.5 c 128,-1,71
 1432 -90 1432 -90 1443 -57.5 c 128,-1,72
 1454 -25 1454 -25 1454 23 c 2,73,-1
 1454 438 l 2,74,75
 1454 553 1454 553 1412 611.5 c 128,-1,76
 1370 670 1370 670 1294 670 c 2,77,-1
 1085 670 l 1,78,-1
 1085 899 l 1,79,-1
 1294 899 l 2,80,81
 1421 899 1421 899 1484.5 785 c 128,-1,82
 1548 671 1548 671 1548 438 c 2,50,-1
543 899 m 1,83,84
 543 682 543 682 558 635 c 128,-1,85
 573 588 573 588 597 548 c 128,-1,86
 621 508 621 508 647.5 476 c 128,-1,87
 674 444 674 444 696 422 c 1,88,89
 696 465 696 465 697 514 c 128,-1,90
 698 563 698 563 704.5 623.5 c 128,-1,91
 711 684 711 684 724 748.5 c 128,-1,92
 737 813 737 813 762 887 c 1,93,94
 801 985 801 985 826.5 1057.5 c 128,-1,95
 852 1130 852 1130 868.5 1184.5 c 128,-1,96
 885 1239 885 1239 893 1285 c 128,-1,97
 901 1331 901 1331 901 1378 c 0,98,99
 901 1396 901 1396 896 1424 c 128,-1,100
 891 1452 891 1452 885 1479.5 c 128,-1,101
 879 1507 879 1507 871.5 1529.5 c 128,-1,102
 864 1552 864 1552 864 1563 c 0,103,104
 864 1596 864 1596 874.5 1611 c 128,-1,105
 885 1626 885 1626 909 1626 c 0,106,107
 932 1626 932 1626 956.5 1578 c 128,-1,108
 981 1530 981 1530 1020 1450 c 0,109,110
 1063 1366 1063 1366 1098 1304.5 c 128,-1,111
 1133 1243 1133 1243 1149 1196 c 1,112,113
 1118 1163 1118 1163 1082.5 1116 c 128,-1,114
 1047 1069 1047 1069 1012 1015 c 128,-1,115
 977 961 977 961 946 905 c 0,116,117
 919 858 919 858 899 798.5 c 128,-1,118
 879 739 879 739 860.5 686 c 128,-1,119
 842 633 842 633 828.5 569.5 c 128,-1,120
 815 506 815 506 809 424 c 128,-1,121
 803 342 803 342 803 225 c 1,122,123
 733 262 733 262 670.5 313.5 c 128,-1,124
 608 365 608 365 563 424 c 0,125,126
 520 479 520 479 489 547 c 0,127,128
 460 608 460 608 457 670 c 1,129,-1
 305 670 l 1,130,131
 303 639 303 639 298 585.5 c 128,-1,132
 293 532 293 532 287 473 c 128,-1,133
 281 414 281 414 272.5 360.5 c 128,-1,134
 264 307 264 307 254 276 c 1,135,-1
 209 260 l 1,136,137
 168 354 168 354 146.5 458.5 c 128,-1,138
 125 563 125 563 115 670 c 1,139,-1
 -2 670 l 1,140,-1
 -2 899 l 1,141,-1
 543 899 l 1,83,84
EndSplineSet
EndChar

StartChar: uniE04E
Encoding: 57422 57422 78
Width: 1599
Flags: W
LayerCount: 2
Fore
SplineSet
604 -215 m 4,0,1
 604 -225 604 -225 597 -235.5 c 132,-1,2
 590 -246 590 -246 579.5 -255 c 132,-1,3
 569 -264 569 -264 555 -275.5 c 132,-1,4
 541 -287 541 -287 526 -301 c 4,5,6
 514 -315 514 -315 505 -328.5 c 132,-1,7
 496 -342 496 -342 488.5 -351 c 132,-1,8
 481 -360 481 -360 474 -366.5 c 132,-1,9
 467 -373 467 -373 459 -373 c 4,10,11
 441 -373 441 -373 427.5 -362.5 c 132,-1,12
 414 -352 414 -352 414 -332 c 4,13,14
 414 -305 414 -305 418 -283.5 c 132,-1,15
 422 -262 422 -262 430 -236 c 4,16,17
 434 -220 434 -220 444.5 -201 c 132,-1,18
 455 -182 455 -182 467 -167 c 132,-1,19
 479 -152 479 -152 493.5 -142.5 c 132,-1,20
 508 -133 508 -133 524 -133 c 4,21,22
 542 -133 542 -133 565 -154 c 4,23,24
 604 -186 604 -186 604 -215 c 4,0,1
502 59 m 4,25,26
 502 49 502 49 494.5 40 c 132,-1,27
 487 31 487 31 476 20.5 c 132,-1,28
 465 10 465 10 450.5 0 c 132,-1,29
 436 -10 436 -10 424 -27 c 4,30,31
 412 -41 412 -41 402.5 -53.5 c 132,-1,32
 393 -66 393 -66 386 -76 c 132,-1,33
 379 -86 379 -86 372 -91 c 132,-1,34
 365 -96 365 -96 356 -96 c 4,35,36
 336 -96 336 -96 322.5 -86 c 132,-1,37
 309 -76 309 -76 309 -55 c 4,38,39
 309 -28 309 -28 313 -8 c 132,-1,40
 317 12 317 12 328 41 c 4,41,42
 334 57 334 57 342 74.5 c 132,-1,43
 350 92 350 92 362.5 108.5 c 132,-1,44
 375 125 375 125 389 134 c 132,-1,45
 403 143 403 143 422 143 c 4,46,47
 440 143 440 143 463 123 c 4,48,49
 502 88 502 88 502 59 c 4,25,26
1114 670 m 1,50,-1
 1114 498 l 2,51,52
 1114 424 1114 424 1160 388 c 128,-1,53
 1206 352 1206 352 1280 352 c 0,54,55
 1352 352 1352 352 1393 388 c 128,-1,56
 1434 424 1434 424 1434 498 c 2,57,-1
 1434 670 l 1,58,-1
 1114 670 l 1,50,-1
1700 899 m 17,59,-1
 1700 670 l 1,60,-1
 1503 670 l 1,61,-1
 1503 498 l 2,62,63
 1503 344 1503 344 1449 258 c 128,-1,64
 1395 172 1395 172 1280 172 c 0,65,66
 1165 172 1165 172 1107 258 c 128,-1,67
 1049 344 1049 344 1049 498 c 2,68,-1
 1049 670 l 1,69,-1
 838 670 l 1,70,71
 836 639 836 639 829.5 585.5 c 128,-1,72
 823 532 823 532 817 473 c 128,-1,73
 811 414 811 414 803 360.5 c 128,-1,74
 795 307 795 307 784 276 c 1,75,-1
 739 260 l 1,76,77
 698 354 698 354 673.5 477 c 128,-1,78
 649 600 649 600 649 801 c 256,79,80
 649 1002 649 1002 603 1084.5 c 128,-1,81
 557 1167 557 1167 498 1167 c 0,82,83
 455 1167 455 1167 421 1138.5 c 128,-1,84
 387 1110 387 1110 364.5 1062 c 128,-1,85
 342 1014 342 1014 327.5 948.5 c 128,-1,86
 313 883 313 883 313 805 c 0,87,88
 313 721 313 721 334.5 663.5 c 128,-1,89
 356 606 356 606 384 559 c 128,-1,90
 412 512 412 512 432.5 470 c 128,-1,91
 453 428 453 428 453 377 c 0,92,93
 453 266 453 266 309 264 c 0,94,95
 276 264 276 264 248.5 269 c 128,-1,96
 221 274 221 274 200.5 283.5 c 128,-1,97
 180 293 180 293 170 301 c 0,98,99
 160 309 160 309 160 317 c 2,100,-1
 160 319 l 2,101,102
 162 348 162 348 185.5 362.5 c 128,-1,103
 209 377 209 377 233.5 393.5 c 128,-1,104
 258 410 258 410 278.5 440.5 c 128,-1,105
 299 471 299 471 299 535 c 0,106,107
 299 562 299 562 292 590 c 128,-1,108
 285 618 285 618 268.5 643 c 128,-1,109
 252 668 252 668 228.5 683 c 128,-1,110
 205 698 205 698 174 698 c 0,111,112
 160 698 160 698 147.5 694 c 128,-1,113
 135 690 135 690 120.5 684 c 128,-1,114
 106 678 106 678 94 674 c 128,-1,115
 82 670 82 670 74 670 c 1,116,117
 54 693 54 693 48.5 722.5 c 128,-1,118
 43 752 43 752 43 791 c 0,119,120
 43 828 43 828 54.5 851 c 128,-1,121
 66 874 66 874 82 886.5 c 128,-1,122
 98 899 98 899 120.5 908.5 c 128,-1,123
 143 918 143 918 162.5 928 c 128,-1,124
 182 938 182 938 200.5 952.5 c 128,-1,125
 219 967 219 967 227 993 c 0,126,127
 290 1177 290 1177 365 1273.5 c 128,-1,128
 440 1370 440 1370 526 1370 c 0,129,130
 571 1370 571 1370 611 1347.5 c 128,-1,131
 651 1325 651 1325 684 1278 c 128,-1,132
 717 1231 717 1231 734.5 1158 c 128,-1,133
 752 1085 752 1085 752 983 c 2,134,-1
 752 899 l 9,135,-1
 1700 899 l 17,59,-1
EndSplineSet
EndChar

StartChar: uniE04F
Encoding: 57423 57423 79
Width: 1429
Flags: W
LayerCount: 2
Fore
SplineSet
473 -215 m 4,0,1
 473 -225 473 -225 467 -235.5 c 132,-1,2
 461 -246 461 -246 449.5 -255 c 132,-1,3
 438 -264 438 -264 425 -275.5 c 132,-1,4
 412 -287 412 -287 397 -301 c 4,5,6
 385 -315 385 -315 376 -328.5 c 132,-1,7
 367 -342 367 -342 358.5 -351 c 132,-1,8
 350 -360 350 -360 344 -366.5 c 132,-1,9
 338 -373 338 -373 330 -373 c 4,10,11
 312 -373 312 -373 297.5 -362.5 c 132,-1,12
 283 -352 283 -352 283 -332 c 4,13,14
 283 -305 283 -305 287 -283.5 c 132,-1,15
 291 -262 291 -262 301 -236 c 4,16,17
 305 -220 305 -220 315.5 -201 c 132,-1,18
 326 -182 326 -182 337 -167 c 132,-1,19
 348 -152 348 -152 363.5 -142.5 c 132,-1,20
 379 -133 379 -133 395 -133 c 4,21,22
 413 -133 413 -133 436 -154 c 4,23,24
 473 -186 473 -186 473 -215 c 4,0,1
371 59 m 4,25,26
 371 49 371 49 363.5 40 c 132,-1,27
 356 31 356 31 346 20.5 c 132,-1,28
 336 10 336 10 321.5 0 c 132,-1,29
 307 -10 307 -10 295 -27 c 4,30,31
 283 -41 283 -41 272.5 -53.5 c 132,-1,32
 262 -66 262 -66 255 -76 c 132,-1,33
 248 -86 248 -86 240.5 -91 c 132,-1,34
 233 -96 233 -96 225 -96 c 4,35,36
 205 -96 205 -96 192.5 -86 c 132,-1,37
 180 -76 180 -76 180 -55 c 4,38,39
 180 -28 180 -28 184 -8 c 132,-1,40
 188 12 188 12 197 41 c 4,41,42
 203 57 203 57 212 74.5 c 132,-1,43
 221 92 221 92 233.5 108.5 c 132,-1,44
 246 125 246 125 260 134 c 132,-1,45
 274 143 274 143 291 143 c 4,46,47
 309 143 309 143 334 123 c 4,48,49
 371 88 371 88 371 59 c 4,25,26
954 670 m 1,50,-1
 954 498 l 2,51,52
 954 424 954 424 1000.5 388 c 128,-1,53
 1047 352 1047 352 1120 352 c 0,54,55
 1192 352 1192 352 1233 388 c 128,-1,56
 1274 424 1274 424 1274 498 c 2,57,-1
 1274 670 l 1,58,-1
 954 670 l 1,50,-1
1538 899 m 17,59,-1
 1538 670 l 1,60,-1
 1343 670 l 1,61,-1
 1343 498 l 2,62,63
 1343 344 1343 344 1289 258 c 128,-1,64
 1235 172 1235 172 1118 172 c 0,65,66
 1003 172 1003 172 946 258 c 128,-1,67
 889 344 889 344 889 498 c 2,68,-1
 889 670 l 1,69,-1
 678 670 l 1,70,71
 676 639 676 639 670 585.5 c 128,-1,72
 664 532 664 532 657.5 473 c 128,-1,73
 651 414 651 414 643 360.5 c 128,-1,74
 635 307 635 307 625 276 c 1,75,-1
 580 260 l 1,76,77
 539 354 539 354 517.5 458.5 c 128,-1,78
 496 563 496 563 485 670 c 1,79,-1
 276 670 l 1,80,81
 274 639 274 639 268 585.5 c 128,-1,82
 262 532 262 532 257 473 c 128,-1,83
 252 414 252 414 244 360.5 c 128,-1,84
 236 307 236 307 225 276 c 1,85,-1
 180 260 l 1,86,87
 139 354 139 354 116.5 458.5 c 128,-1,88
 94 563 94 563 86 670 c 1,89,-1
 0 670 l 1,90,-1
 0 899 l 9,91,-1
 1538 899 l 17,59,-1
EndSplineSet
EndChar

StartChar: uniE050
Encoding: 57424 57424 80
Width: 1693
Flags: W
LayerCount: 2
Fore
SplineSet
524 -215 m 0,0,1
 524 -225 524 -225 517 -235.5 c 128,-1,2
 510 -246 510 -246 499.5 -255 c 128,-1,3
 489 -264 489 -264 475 -275.5 c 128,-1,4
 461 -287 461 -287 446 -301 c 0,5,6
 434 -315 434 -315 425 -328.5 c 128,-1,7
 416 -342 416 -342 408.5 -351 c 128,-1,8
 401 -360 401 -360 394 -366.5 c 128,-1,9
 387 -373 387 -373 379 -373 c 0,10,11
 361 -373 361 -373 347.5 -362.5 c 128,-1,12
 334 -352 334 -352 334 -332 c 0,13,14
 334 -305 334 -305 338 -283.5 c 128,-1,15
 342 -262 342 -262 350 -236 c 0,16,17
 354 -220 354 -220 364.5 -201 c 128,-1,18
 375 -182 375 -182 387 -167 c 128,-1,19
 399 -152 399 -152 413.5 -142.5 c 128,-1,20
 428 -133 428 -133 444 -133 c 0,21,22
 462 -133 462 -133 485 -154 c 0,23,24
 524 -186 524 -186 524 -215 c 0,0,1
422 59 m 0,25,26
 422 49 422 49 415 40 c 128,-1,27
 408 31 408 31 396.5 20.5 c 128,-1,28
 385 10 385 10 370.5 0 c 128,-1,29
 356 -10 356 -10 344 -27 c 0,30,31
 332 -41 332 -41 322.5 -53.5 c 128,-1,32
 313 -66 313 -66 306 -76 c 128,-1,33
 299 -86 299 -86 292 -91 c 128,-1,34
 285 -96 285 -96 276 -96 c 0,35,36
 256 -96 256 -96 242.5 -86 c 128,-1,37
 229 -76 229 -76 229 -55 c 0,38,39
 229 -28 229 -28 233.5 -8 c 128,-1,40
 238 12 238 12 248 41 c 0,41,42
 254 57 254 57 262 74.5 c 128,-1,43
 270 92 270 92 282.5 108.5 c 128,-1,44
 295 125 295 125 309.5 134 c 128,-1,45
 324 143 324 143 342 143 c 0,46,47
 360 143 360 143 383 123 c 0,48,49
 422 88 422 88 422 59 c 0,25,26
991 670 m 1,50,-1
 1321 670 l 1,51,52
 1321 602 1321 602 1318 543.5 c 128,-1,53
 1315 485 1315 485 1299.5 443 c 128,-1,54
 1284 401 1284 401 1249 377.5 c 128,-1,55
 1214 354 1214 354 1153 354 c 256,56,57
 1092 354 1092 354 1059 380 c 128,-1,58
 1026 406 1026 406 1010.5 447.5 c 128,-1,59
 995 489 995 489 993 545.5 c 128,-1,60
 991 602 991 602 991 670 c 1,50,-1
909 670 m 17,61,62
 909 627 909 627 912 573.5 c 128,-1,63
 915 520 915 520 925.5 465 c 128,-1,64
 936 410 936 410 952.5 358.5 c 128,-1,65
 969 307 969 307 996.5 266 c 128,-1,66
 1024 225 1024 225 1062 201.5 c 128,-1,67
 1100 178 1100 178 1153 178 c 0,68,69
 1225 178 1225 178 1273 210 c 128,-1,70
 1321 242 1321 242 1349.5 296 c 128,-1,71
 1378 350 1378 350 1388.5 417.5 c 128,-1,72
 1399 485 1399 485 1399 555 c 2,73,-1
 1399 791 l 2,74,75
 1399 900 1399 900 1292 899 c 2,76,-1
 995 899 l 1,77,78
 1048 1216 1048 1216 1257 1219 c 0,79,80
 1300 1219 1300 1219 1340 1197.5 c 128,-1,81
 1380 1176 1380 1176 1412 1133 c 128,-1,82
 1444 1090 1444 1090 1469.5 1024 c 128,-1,83
 1495 958 1495 958 1507 868 c 1,84,85
 1519 813 1519 813 1527.5 791.5 c 128,-1,86
 1536 770 1536 770 1552 770 c 0,87,88
 1558 770 1558 770 1569.5 794.5 c 128,-1,89
 1581 819 1581 819 1581 866 c 0,90,91
 1581 987 1581 987 1559.5 1088.5 c 128,-1,92
 1538 1190 1538 1190 1496 1262.5 c 128,-1,93
 1454 1335 1454 1335 1394.5 1376 c 128,-1,94
 1335 1417 1335 1417 1257 1417 c 0,95,96
 1099 1417 1099 1417 1016 1286 c 0,97,98
 930 1153 930 1153 909 899 c 1,99,-1
 0 899 l 1,100,-1
 0 670 l 1,101,-1
 106 670 l 1,102,103
 114 564 114 564 138 459 c 128,-1,104
 162 354 162 354 201 260 c 1,105,-1
 246 276 l 1,106,107
 256 307 256 307 264 360.5 c 128,-1,108
 272 414 272 414 278.5 473 c 128,-1,109
 285 532 285 532 291 585.5 c 128,-1,110
 297 639 297 639 299 670 c 1,111,-1
 508 670 l 1,112,113
 516 564 516 564 538.5 459 c 128,-1,114
 561 354 561 354 600 260 c 1,115,-1
 645 276 l 1,116,117
 655 307 655 307 663.5 360.5 c 128,-1,118
 672 414 672 414 678 473 c 128,-1,119
 684 532 684 532 690 585.5 c 128,-1,120
 696 639 696 639 698 670 c 9,121,-1
 909 670 l 17,61,62
EndSplineSet
EndChar

StartChar: uniE051
Encoding: 57425 57425 81
Width: 1873
Flags: W
LayerCount: 2
Fore
SplineSet
897 670 m 17,0,1
 901 609 901 609 931 533 c 128,-1,2
 961 457 961 457 1007 383 c 128,-1,3
 1053 309 1053 309 1114.5 244.5 c 128,-1,4
 1176 180 1176 180 1245 145 c 1,5,6
 1245 342 1245 342 1302.5 545 c 128,-1,7
 1360 748 1360 748 1427.5 919 c 128,-1,8
 1495 1090 1495 1090 1559.5 1183 c 128,-1,9
 1624 1276 1624 1276 1716 1395 c 1,10,11
 1687 1452 1687 1452 1661.5 1501 c 128,-1,12
 1636 1550 1636 1550 1613.5 1597.5 c 128,-1,13
 1591 1645 1591 1645 1567.5 1692 c 128,-1,14
 1544 1739 1544 1739 1513 1796 c 0,15,16
 1499 1821 1499 1821 1487 1838 c 128,-1,17
 1475 1855 1475 1855 1466 1855 c 0,18,19
 1441 1855 1441 1855 1432 1840 c 128,-1,20
 1423 1825 1423 1825 1423 1790 c 0,21,22
 1423 1782 1423 1782 1430.5 1752 c 128,-1,23
 1438 1722 1438 1722 1444 1687.5 c 128,-1,24
 1450 1653 1450 1653 1455 1619 c 128,-1,25
 1460 1585 1460 1585 1460 1561 c 0,26,27
 1460 1520 1460 1520 1420 1370.5 c 128,-1,28
 1380 1221 1380 1221 1293 1002.5 c 128,-1,29
 1206 784 1206 784 1178.5 655 c 128,-1,30
 1151 526 1151 526 1145 463 c 0,31,32
 1143 436 1143 436 1141 416 c 0,33,34
 1141 383 1141 383 1147 365 c 1,35,36
 1122 385 1122 385 1095.5 431 c 128,-1,37
 1069 477 1069 477 1043.5 535.5 c 128,-1,38
 1018 594 1018 594 999.5 654.5 c 128,-1,39
 981 715 981 715 981 762 c 2,40,-1
 981 899 l 1,41,-1
 598 899 l 1,42,-1
 598 1024 l 2,43,44
 598 1104 598 1104 573.5 1157 c 128,-1,45
 549 1210 549 1210 504 1223 c 1,46,-1
 475 1401 l 1,47,-1
 526 1401 l 2,48,49
 630 1401 630 1401 678.5 1458.5 c 128,-1,50
 727 1516 727 1516 727 1608 c 0,51,52
 727 1643 727 1643 720 1676.5 c 128,-1,53
 713 1710 713 1710 686 1743 c 1,54,55
 680 1698 680 1698 667.5 1667 c 128,-1,56
 655 1636 655 1636 634.5 1616.5 c 128,-1,57
 614 1597 614 1597 583.5 1589 c 128,-1,58
 553 1581 553 1581 510 1581 c 0,59,60
 469 1581 469 1581 436 1573 c 128,-1,61
 403 1565 403 1565 389 1552 c 1,62,-1
 442 1223 l 1,63,64
 401 1209 401 1209 349 1165.5 c 128,-1,65
 297 1122 297 1122 227 1042 c 0,66,67
 209 1022 209 1022 191.5 1001.5 c 128,-1,68
 174 981 174 981 160 967 c 1,69,70
 160 957 160 957 171 940.5 c 128,-1,71
 182 924 182 924 197 909 c 1,72,73
 205 909 205 909 221.5 925.5 c 128,-1,74
 238 942 238 942 268 963 c 0,75,76
 288 975 288 975 303.5 984 c 128,-1,77
 319 993 319 993 333.5 999.5 c 128,-1,78
 348 1006 348 1006 364.5 1009 c 128,-1,79
 381 1012 381 1012 399 1012 c 0,80,81
 428 1012 428 1012 440.5 981 c 128,-1,82
 453 950 453 950 453 899 c 2,83,-1
 453 711 l 2,84,85
 453 682 453 682 459 630 c 128,-1,86
 465 578 465 578 477 514.5 c 128,-1,87
 489 451 489 451 507.5 385 c 128,-1,88
 526 319 526 319 551 264 c 1,89,-1
 598 279 l 1,90,91
 614 377 614 377 626.5 476 c 128,-1,92
 639 575 639 575 643 670 c 9,93,-1
 897 670 l 17,0,1
EndSplineSet
EndChar

StartChar: uniE052
Encoding: 57426 57426 82
Width: 1531
Flags: W
LayerCount: 2
Fore
SplineSet
879 670 m 9,0,1
 610 670 l 17,2,3
 606 576 606 576 593 476.5 c 128,-1,4
 580 377 580 377 563 279 c 1,5,-1
 516 264 l 1,6,7
 491 319 491 319 474 385 c 128,-1,8
 457 451 457 451 443.5 514.5 c 128,-1,9
 430 578 430 578 425 630 c 128,-1,10
 420 682 420 682 420 711 c 2,11,-1
 420 899 l 2,12,13
 420 950 420 950 407.5 981 c 128,-1,14
 395 1012 395 1012 367 1012 c 0,15,16
 347 1012 347 1012 331 1009 c 128,-1,17
 315 1006 315 1006 301 999.5 c 128,-1,18
 287 993 287 993 271.5 984 c 128,-1,19
 256 975 256 975 236 963 c 0,20,21
 205 943 205 943 187.5 926 c 128,-1,22
 170 909 170 909 162 909 c 1,23,24
 148 923 148 923 137.5 939.5 c 128,-1,25
 127 956 127 956 127 967 c 1,26,27
 139 981 139 981 156.5 1001.5 c 128,-1,28
 174 1022 174 1022 193 1042 c 0,29,30
 263 1122 263 1122 316 1165 c 128,-1,31
 369 1208 369 1208 410 1223 c 1,32,-1
 356 1552 l 1,33,34
 370 1564 370 1564 402 1572.5 c 128,-1,35
 434 1581 434 1581 475 1581 c 0,36,37
 518 1581 518 1581 550 1589 c 128,-1,38
 582 1597 582 1597 602.5 1616.5 c 128,-1,39
 623 1636 623 1636 635 1667 c 128,-1,40
 647 1698 647 1698 653 1743 c 1,41,42
 678 1710 678 1710 686 1676 c 128,-1,43
 694 1642 694 1642 694 1608 c 0,44,45
 694 1516 694 1516 645 1458.5 c 128,-1,46
 596 1401 596 1401 492 1401 c 2,47,-1
 442 1401 l 1,48,-1
 469 1223 l 1,49,50
 514 1211 514 1211 538.5 1157.5 c 128,-1,51
 563 1104 563 1104 563 1024 c 2,52,-1
 563 899 l 1,53,-1
 879 899 l 1,54,55
 895 1126 895 1126 965.5 1250 c 128,-1,56
 1036 1374 1036 1374 1161 1374 c 0,57,58
 1231 1374 1231 1374 1280 1327 c 128,-1,59
 1329 1280 1329 1280 1357.5 1204 c 128,-1,60
 1386 1128 1386 1128 1397.5 1034 c 128,-1,61
 1409 940 1409 940 1409 846 c 0,62,63
 1409 807 1409 807 1404 788.5 c 128,-1,64
 1399 770 1399 770 1382 770 c 0,65,66
 1370 770 1370 770 1362 786.5 c 128,-1,67
 1354 803 1354 803 1350 821 c 0,68,69
 1338 876 1338 876 1324.5 936.5 c 128,-1,70
 1311 997 1311 997 1291.5 1048.5 c 128,-1,71
 1272 1100 1272 1100 1240 1134.5 c 128,-1,72
 1208 1169 1208 1169 1159 1169 c 0,73,74
 1102 1169 1102 1169 1061 1139.5 c 128,-1,75
 1020 1110 1020 1110 990.5 1058 c 128,-1,76
 961 1006 961 1006 946.5 938 c 128,-1,77
 932 870 932 870 932 793 c 0,78,79
 932 730 932 730 974 628 c 128,-1,80
 1016 526 1016 526 1101 450.5 c 128,-1,81
 1186 375 1186 375 1200 360 c 1,82,-1
 1139 162 l 1,83,-1
 1118 162 l 1,84,85
 1075 211 1075 211 1032 276.5 c 128,-1,86
 989 342 989 342 954.5 412.5 c 128,-1,87
 920 483 920 483 899.5 550 c 128,-1,88
 879 617 879 617 879 670 c 9,0,1
EndSplineSet
EndChar

StartChar: uniE055
Encoding: 57429 57429 83
Width: 1224
Flags: W
LayerCount: 2
Fore
SplineSet
885 670 m 17,0,1
 893 564 893 564 915.5 459 c 128,-1,2
 938 354 938 354 979 260 c 1,3,-1
 1024 276 l 1,4,5
 1034 307 1034 307 1041.5 360.5 c 128,-1,6
 1049 414 1049 414 1055 473 c 128,-1,7
 1061 532 1061 532 1067 585.5 c 128,-1,8
 1073 639 1073 639 1075 670 c 1,9,-1
 1337 670 l 1,10,-1
 1337 899 l 1,11,-1
 571 899 l 1,12,-1
 571 1024 l 2,13,14
 571 1104 571 1104 546.5 1157 c 128,-1,15
 522 1210 522 1210 477 1223 c 1,16,-1
 451 1401 l 1,17,-1
 502 1401 l 2,18,19
 606 1401 606 1401 654 1458.5 c 128,-1,20
 702 1516 702 1516 702 1608 c 0,21,22
 702 1643 702 1643 694 1676.5 c 128,-1,23
 686 1710 686 1710 662 1743 c 1,24,25
 656 1698 656 1698 643.5 1667 c 128,-1,26
 631 1636 631 1636 610.5 1616.5 c 128,-1,27
 590 1597 590 1597 559 1589 c 128,-1,28
 528 1581 528 1581 485 1581 c 0,29,30
 444 1581 444 1581 411.5 1573 c 128,-1,31
 379 1565 379 1565 365 1552 c 1,32,-1
 418 1223 l 1,33,34
 377 1209 377 1209 324.5 1165.5 c 128,-1,35
 272 1122 272 1122 203 1042 c 0,36,37
 185 1022 185 1022 167.5 1001.5 c 128,-1,38
 150 981 150 981 135 967 c 1,39,40
 135 957 135 957 146.5 940.5 c 128,-1,41
 158 924 158 924 170 909 c 1,42,43
 178 909 178 909 195.5 925.5 c 128,-1,44
 213 942 213 942 244 963 c 0,45,46
 264 975 264 975 279.5 984 c 128,-1,47
 295 993 295 993 309.5 999.5 c 128,-1,48
 324 1006 324 1006 340 1009 c 128,-1,49
 356 1012 356 1012 375 1012 c 0,50,51
 404 1012 404 1012 416 981 c 128,-1,52
 428 950 428 950 428 899 c 2,53,-1
 428 711 l 2,54,55
 428 682 428 682 434 630 c 128,-1,56
 440 578 440 578 452.5 514.5 c 128,-1,57
 465 451 465 451 483.5 385 c 128,-1,58
 502 319 502 319 526 264 c 1,59,-1
 571 279 l 1,60,61
 587 377 587 377 600.5 476 c 128,-1,62
 614 575 614 575 618 670 c 9,63,-1
 885 670 l 17,0,1
EndSplineSet
EndChar

StartChar: uniE056
Encoding: 57430 57430 84
Width: 876
Flags: W
LayerCount: 2
Fore
SplineSet
526 670 m 9,0,1
 317 670 l 17,2,3
 315 639 315 639 309 585.5 c 128,-1,4
 303 532 303 532 298 473 c 128,-1,5
 293 414 293 414 284.5 360.5 c 128,-1,6
 276 307 276 307 266 276 c 1,7,-1
 221 260 l 1,8,9
 180 354 180 354 157.5 458.5 c 128,-1,10
 135 563 135 563 127 670 c 1,11,-1
 0 670 l 1,12,-1
 0 899 l 1,13,-1
 162 899 l 1,14,-1
 100 1294 l 1,15,16
 116 1306 116 1306 147 1315.5 c 128,-1,17
 178 1325 178 1325 221 1325 c 0,18,19
 266 1325 266 1325 297 1332 c 128,-1,20
 328 1339 328 1339 349.5 1359.5 c 128,-1,21
 371 1380 371 1380 382 1411 c 128,-1,22
 393 1442 393 1442 401 1487 c 1,23,24
 424 1452 424 1452 432 1420.5 c 128,-1,25
 440 1389 440 1389 440 1352 c 0,26,27
 440 1258 440 1258 390 1201.5 c 128,-1,28
 340 1145 340 1145 238 1145 c 2,29,-1
 188 1145 l 1,30,-1
 219 899 l 1,31,-1
 981 899 l 1,32,-1
 981 670 l 1,33,-1
 719 670 l 1,34,35
 717 639 717 639 711 585.5 c 128,-1,36
 705 532 705 532 698.5 473 c 128,-1,37
 692 414 692 414 684 360.5 c 128,-1,38
 676 307 676 307 666 276 c 1,39,-1
 621 260 l 1,40,41
 582 354 582 354 558 459 c 128,-1,42
 534 564 534 564 526 670 c 9,0,1
EndSplineSet
EndChar

StartChar: uniE057
Encoding: 57431 57431 85
Width: 1566
Flags: W
LayerCount: 2
Fore
SplineSet
688 899 m 21,0,-1
 688 762 l 6,1,2
 688 715 688 715 706.5 654.5 c 132,-1,3
 725 594 725 594 750.5 535.5 c 132,-1,4
 776 477 776 477 802.5 431 c 132,-1,5
 829 385 829 385 854 365 c 5,6,7
 848 383 848 383 848 416 c 4,8,9
 848 436 848 436 852 463 c 4,10,11
 858 526 858 526 885.5 655 c 132,-1,12
 913 784 913 784 1000 1002.5 c 132,-1,13
 1087 1221 1087 1221 1127 1370.5 c 132,-1,14
 1167 1520 1167 1520 1167 1561 c 4,15,16
 1167 1588 1167 1588 1161 1620.5 c 132,-1,17
 1155 1653 1155 1653 1150 1687.5 c 132,-1,18
 1145 1722 1145 1722 1137.5 1752 c 132,-1,19
 1130 1782 1130 1782 1130 1790 c 4,20,21
 1130 1825 1130 1825 1139.5 1840 c 132,-1,22
 1149 1855 1149 1855 1174 1855 c 4,23,24
 1180 1855 1180 1855 1193 1838 c 132,-1,25
 1206 1821 1206 1821 1221 1796 c 4,26,27
 1252 1739 1252 1739 1275 1692 c 132,-1,28
 1298 1645 1298 1645 1320.5 1597.5 c 132,-1,29
 1343 1550 1343 1550 1369 1501 c 132,-1,30
 1395 1452 1395 1452 1423 1395 c 5,31,32
 1331 1276 1331 1276 1266.5 1183 c 132,-1,33
 1202 1090 1202 1090 1134.5 919 c 132,-1,34
 1067 748 1067 748 1009.5 545 c 132,-1,35
 952 342 952 342 952 145 c 5,36,37
 880 182 880 182 820 245.5 c 132,-1,38
 760 309 760 309 714 383 c 132,-1,39
 668 457 668 457 638 532.5 c 132,-1,40
 608 608 608 608 604 670 c 5,41,-1
 307 670 l 5,42,43
 305 639 305 639 300 585.5 c 132,-1,44
 295 532 295 532 289 473 c 132,-1,45
 283 414 283 414 274.5 360.5 c 132,-1,46
 266 307 266 307 256 276 c 5,47,-1
 211 260 l 5,48,49
 170 354 170 354 148.5 458.5 c 132,-1,50
 127 563 127 563 117 670 c 5,51,-1
 0 670 l 5,52,-1
 0 899 l 5,53,-1
 152 899 l 5,54,-1
 90 1294 l 5,55,56
 104 1304 104 1304 137 1314.5 c 132,-1,57
 170 1325 170 1325 211 1325 c 4,58,59
 256 1325 256 1325 286.5 1332 c 132,-1,60
 317 1339 317 1339 338.5 1359.5 c 132,-1,61
 360 1380 360 1380 371.5 1411 c 132,-1,62
 383 1442 383 1442 391 1487 c 5,63,64
 414 1452 414 1452 422 1419 c 132,-1,65
 430 1386 430 1386 430 1352 c 4,66,67
 430 1258 430 1258 381 1201.5 c 132,-1,68
 332 1145 332 1145 227 1145 c 6,69,-1
 178 1145 l 5,70,-1
 209 899 l 13,71,-1
 688 899 l 21,0,-1
EndSplineSet
EndChar

StartChar: uniE058
Encoding: 57432 57432 86
Width: 1392
Flags: W
LayerCount: 2
Fore
SplineSet
1270 438 m 2,0,-1
 1270 23 l 2,1,2
 1270 -63 1270 -63 1253.5 -128 c 128,-1,3
 1237 -193 1237 -193 1207.5 -241 c 128,-1,4
 1178 -289 1178 -289 1131.5 -322.5 c 128,-1,5
 1085 -356 1085 -356 1026 -383 c 0,6,7
 991 -397 991 -397 971.5 -409.5 c 128,-1,8
 952 -422 952 -422 938 -435.5 c 128,-1,9
 924 -449 924 -449 913.5 -466 c 128,-1,10
 903 -483 903 -483 891 -512 c 1,11,-1
 866 -512 l 1,12,-1
 934 -225 l 1,13,14
 948 -221 948 -221 961.5 -217 c 128,-1,15
 975 -213 975 -213 990.5 -209 c 128,-1,16
 1006 -205 1006 -205 1023 -194.5 c 128,-1,17
 1040 -184 1040 -184 1067 -170 c 0,18,19
 1081 -162 1081 -162 1100.5 -148.5 c 128,-1,20
 1120 -135 1120 -135 1136.5 -112.5 c 128,-1,21
 1153 -90 1153 -90 1165.5 -57.5 c 128,-1,22
 1178 -25 1178 -25 1178 23 c 2,23,-1
 1178 438 l 2,24,25
 1178 553 1178 553 1135 611.5 c 128,-1,26
 1092 670 1092 670 1016 670 c 2,27,-1
 809 670 l 1,28,-1
 809 899 l 1,29,-1
 1016 899 l 2,30,31
 1143 899 1143 899 1206.5 785 c 128,-1,32
 1270 671 1270 671 1270 438 c 2,0,-1
856 1198 m 1,33,34
 829 1155 829 1155 798.5 1105 c 128,-1,35
 768 1055 768 1055 737.5 1001.5 c 128,-1,36
 707 948 707 948 680 893 c 0,37,38
 645 823 645 823 633 786 c 0,39,40
 613 729 613 729 591 657.5 c 128,-1,41
 569 586 569 586 553 505 c 128,-1,42
 537 424 537 424 524.5 333 c 128,-1,43
 512 242 512 242 512 141 c 1,44,45
 442 178 442 178 379.5 242.5 c 128,-1,46
 317 307 317 307 270 381 c 128,-1,47
 223 455 223 455 195.5 530.5 c 128,-1,48
 168 606 168 606 160 670 c 1,49,-1
 0 670 l 1,50,-1
 0 899 l 1,51,-1
 127 899 l 1,52,-1
 70 1294 l 1,53,54
 82 1306 82 1306 114.5 1316.5 c 128,-1,55
 147 1327 147 1327 186 1327 c 0,56,57
 231 1327 231 1327 264 1334 c 128,-1,58
 297 1341 297 1341 316.5 1361.5 c 128,-1,59
 336 1382 336 1382 349 1413 c 128,-1,60
 362 1444 362 1444 367 1489 c 1,61,62
 394 1454 394 1454 402 1420 c 128,-1,63
 410 1386 410 1386 410 1352 c 0,64,65
 410 1260 410 1260 360 1202 c 0,66,67
 310 1144 310 1144 219 1145 c 0,68,69
 213 1145 213 1145 207 1145 c 2,70,-1
 156 1147 l 1,71,-1
 184 899 l 1,72,-1
 248 899 l 1,73,-1
 248 760 l 2,74,75
 248 713 248 713 262 655.5 c 128,-1,76
 276 598 276 598 301 541.5 c 128,-1,77
 326 485 326 485 353.5 441 c 128,-1,78
 381 397 381 397 401 377 c 1,79,80
 401 420 401 420 407.5 477.5 c 128,-1,81
 414 535 414 535 424 600.5 c 128,-1,82
 434 666 434 666 451.5 737.5 c 128,-1,83
 469 809 469 809 500 885 c 1,84,85
 533 983 533 983 552 1055.5 c 128,-1,86
 571 1128 571 1128 581.5 1182.5 c 128,-1,87
 592 1237 592 1237 594 1280 c 128,-1,88
 596 1323 596 1323 596 1370 c 0,89,90
 596 1390 596 1390 590 1424 c 128,-1,91
 584 1458 584 1458 576.5 1493 c 128,-1,92
 569 1528 569 1528 564 1555.5 c 128,-1,93
 559 1583 559 1583 559 1595 c 0,94,95
 559 1628 559 1628 568.5 1644.5 c 128,-1,96
 578 1661 578 1661 604 1661 c 0,97,98
 612 1661 612 1661 627.5 1642.5 c 128,-1,99
 643 1624 643 1624 658.5 1596.5 c 128,-1,100
 674 1569 674 1569 690 1530 c 0,101,102
 715 1475 715 1475 727 1452 c 0,103,104
 772 1368 772 1368 807 1306.5 c 128,-1,105
 842 1245 842 1245 856 1198 c 1,33,34
EndSplineSet
EndChar

StartChar: uniE059
Encoding: 57433 57433 87
Width: 1327
Flags: W
LayerCount: 2
Fore
SplineSet
889 877 m 1049,0,-1
879 670 m 9,1,-1
 621 670 l 17,2,3
 617 576 617 576 603.5 476.5 c 128,-1,4
 590 377 590 377 573 279 c 1,5,-1
 526 264 l 1,6,7
 501 319 501 319 484 385 c 128,-1,8
 467 451 467 451 453.5 514.5 c 128,-1,9
 440 578 440 578 434 630 c 128,-1,10
 428 682 428 682 428 711 c 2,11,-1
 428 899 l 2,12,13
 428 950 428 950 417 981 c 128,-1,14
 406 1012 406 1012 377 1012 c 0,15,16
 357 1012 357 1012 341.5 1009 c 128,-1,17
 326 1006 326 1006 311.5 999.5 c 128,-1,18
 297 993 297 993 281.5 984 c 128,-1,19
 266 975 266 975 246 963 c 0,20,21
 213 943 213 943 196.5 926 c 128,-1,22
 180 909 180 909 172 909 c 1,23,24
 158 923 158 923 146.5 939.5 c 128,-1,25
 135 956 135 956 135 967 c 1,26,27
 149 981 149 981 166.5 1001.5 c 128,-1,28
 184 1022 184 1022 203 1042 c 0,29,30
 273 1122 273 1122 326 1165 c 128,-1,31
 379 1208 379 1208 420 1223 c 1,32,-1
 367 1552 l 1,33,34
 381 1564 381 1564 412.5 1572.5 c 128,-1,35
 444 1581 444 1581 485 1581 c 0,36,37
 528 1581 528 1581 560 1589 c 128,-1,38
 592 1597 592 1597 612.5 1616.5 c 128,-1,39
 633 1636 633 1636 645 1667 c 128,-1,40
 657 1698 657 1698 664 1743 c 1,41,42
 689 1710 689 1710 697 1676 c 128,-1,43
 705 1642 705 1642 705 1608 c 0,44,45
 705 1516 705 1516 655.5 1458.5 c 128,-1,46
 606 1401 606 1401 502 1401 c 2,47,-1
 453 1401 l 1,48,-1
 479 1223 l 1,49,50
 524 1211 524 1211 548.5 1157.5 c 128,-1,51
 573 1104 573 1104 573 1024 c 2,52,-1
 573 899 l 1,53,-1
 1438 899 l 1,54,-1
 1438 670 l 1,55,-1
 965 670 l 1,56,-1
 1227 299 l 1,57,-1
 1227 266 l 1,58,-1
 1171 4 l 1,59,-1
 1141 4 l 1,60,-1
 879 670 l 9,1,-1
EndSplineSet
EndChar

StartChar: uniE05A
Encoding: 57434 57434 88
Width: 1058
Flags: W
LayerCount: 2
Fore
SplineSet
1169 899 m 17,0,-1
 1169 670 l 1,1,-1
 696 670 l 1,2,-1
 958 299 l 1,3,-1
 958 266 l 1,4,-1
 903 4 l 1,5,-1
 872 4 l 1,6,-1
 610 670 l 1,7,-1
 307 670 l 1,8,9
 305 639 305 639 300 585.5 c 128,-1,10
 295 532 295 532 289 473 c 128,-1,11
 283 414 283 414 274.5 360.5 c 128,-1,12
 266 307 266 307 256 276 c 1,13,-1
 211 260 l 1,14,15
 170 354 170 354 148.5 458.5 c 128,-1,16
 127 563 127 563 117 670 c 1,17,-1
 0 670 l 1,18,-1
 0 899 l 1,19,-1
 152 899 l 1,20,-1
 90 1294 l 1,21,22
 104 1304 104 1304 137 1314.5 c 128,-1,23
 170 1325 170 1325 211 1325 c 0,24,25
 256 1325 256 1325 286.5 1332 c 128,-1,26
 317 1339 317 1339 338.5 1359.5 c 128,-1,27
 360 1380 360 1380 371.5 1411 c 128,-1,28
 383 1442 383 1442 391 1487 c 1,29,30
 414 1452 414 1452 422 1419 c 128,-1,31
 430 1386 430 1386 430 1352 c 0,32,33
 430 1258 430 1258 381 1201.5 c 128,-1,34
 332 1145 332 1145 227 1145 c 2,35,-1
 178 1145 l 1,36,-1
 209 899 l 9,37,-1
 1169 899 l 17,0,-1
EndSplineSet
EndChar

StartChar: uniE05B
Encoding: 57435 57435 89
Width: 1157
Flags: W
LayerCount: 2
Fore
SplineSet
520 899 m 17,0,1
 536 1126 536 1126 607 1250 c 128,-1,2
 678 1374 678 1374 803 1374 c 0,3,4
 873 1374 873 1374 923 1327 c 128,-1,5
 973 1280 973 1280 1000.5 1204 c 128,-1,6
 1028 1128 1028 1128 1039.5 1034 c 128,-1,7
 1051 940 1051 940 1051 846 c 0,8,9
 1051 805 1051 805 1045.5 787.5 c 128,-1,10
 1040 770 1040 770 1024 770 c 0,11,12
 1012 770 1012 770 1004 786 c 0,13,14
 994 806 994 806 991 821 c 0,15,16
 979 876 979 876 965.5 936.5 c 128,-1,17
 952 997 952 997 932.5 1048.5 c 128,-1,18
 913 1100 913 1100 881.5 1134.5 c 128,-1,19
 850 1169 850 1169 801 1169 c 0,20,21
 744 1169 744 1169 703 1139.5 c 128,-1,22
 662 1110 662 1110 632 1058 c 128,-1,23
 602 1006 602 1006 587.5 937 c 128,-1,24
 573 868 573 868 573 793 c 0,25,26
 573 730 573 730 615 628 c 128,-1,27
 657 526 657 526 742 450.5 c 128,-1,28
 827 375 827 375 842 360 c 1,29,-1
 780 162 l 1,30,-1
 762 162 l 1,31,32
 719 211 719 211 675 276.5 c 128,-1,33
 631 342 631 342 596 412.5 c 128,-1,34
 561 483 561 483 540.5 549.5 c 128,-1,35
 520 616 520 616 520 670 c 1,36,-1
 307 670 l 1,37,38
 305 639 305 639 300 585.5 c 128,-1,39
 295 532 295 532 289 473 c 128,-1,40
 283 414 283 414 274.5 360.5 c 128,-1,41
 266 307 266 307 256 276 c 1,42,-1
 211 260 l 1,43,44
 170 354 170 354 148.5 458.5 c 128,-1,45
 127 563 127 563 117 670 c 1,46,-1
 0 670 l 1,47,-1
 0 899 l 1,48,-1
 152 899 l 1,49,-1
 90 1294 l 1,50,51
 104 1304 104 1304 137 1314.5 c 128,-1,52
 170 1325 170 1325 211 1325 c 0,53,54
 256 1325 256 1325 286.5 1332 c 128,-1,55
 317 1339 317 1339 338.5 1359.5 c 128,-1,56
 360 1380 360 1380 371.5 1411 c 128,-1,57
 383 1442 383 1442 391 1487 c 1,58,59
 414 1452 414 1452 422 1419 c 128,-1,60
 430 1386 430 1386 430 1352 c 0,61,62
 430 1258 430 1258 381 1201.5 c 128,-1,63
 332 1145 332 1145 227 1145 c 2,64,-1
 178 1145 l 1,65,-1
 209 899 l 9,66,-1
 520 899 l 17,0,1
EndSplineSet
EndChar

StartChar: uniE053
Encoding: 57427 57427 90
Width: 1449
Flags: W
LayerCount: 2
Fore
SplineSet
938 670 m 1,0,-1
 938 498 l 2,1,2
 938 424 938 424 984 388 c 128,-1,3
 1030 352 1030 352 1104 352 c 0,4,5
 1176 352 1176 352 1215.5 388 c 128,-1,6
 1255 424 1255 424 1255 498 c 2,7,-1
 1255 670 l 1,8,-1
 938 670 l 1,0,-1
872 670 m 9,9,-1
 604 670 l 17,10,11
 600 576 600 576 586.5 476.5 c 128,-1,12
 573 377 573 377 557 279 c 1,13,-1
 512 264 l 1,14,15
 485 319 485 319 468 385 c 128,-1,16
 451 451 451 451 438.5 514.5 c 128,-1,17
 426 578 426 578 420 630 c 128,-1,18
 414 682 414 682 414 711 c 2,19,-1
 414 899 l 2,20,21
 414 950 414 950 401.5 981 c 128,-1,22
 389 1012 389 1012 360 1012 c 0,23,24
 342 1012 342 1012 325.5 1009 c 128,-1,25
 309 1006 309 1006 295 999.5 c 128,-1,26
 281 993 281 993 265.5 984 c 128,-1,27
 250 975 250 975 229 963 c 0,28,29
 198 943 198 943 181 926 c 128,-1,30
 164 909 164 909 156 909 c 1,31,32
 142 923 142 923 131.5 939.5 c 128,-1,33
 121 956 121 956 121 967 c 1,34,35
 133 981 133 981 150.5 1001.5 c 128,-1,36
 168 1022 168 1022 186 1042 c 0,37,38
 256 1122 256 1122 309 1165 c 128,-1,39
 362 1208 362 1208 403 1223 c 1,40,-1
 350 1552 l 1,41,42
 364 1564 364 1564 396 1572.5 c 128,-1,43
 428 1581 428 1581 469 1581 c 0,44,45
 512 1581 512 1581 543.5 1589 c 128,-1,46
 575 1597 575 1597 595.5 1616.5 c 128,-1,47
 616 1636 616 1636 628.5 1667 c 128,-1,48
 641 1698 641 1698 647 1743 c 1,49,50
 672 1710 672 1710 680 1676 c 128,-1,51
 688 1642 688 1642 688 1608 c 0,52,53
 688 1516 688 1516 639 1458.5 c 128,-1,54
 590 1401 590 1401 485 1401 c 2,55,-1
 436 1401 l 1,56,-1
 463 1223 l 1,57,58
 508 1211 508 1211 532.5 1157.5 c 128,-1,59
 557 1104 557 1104 557 1024 c 2,60,-1
 557 899 l 1,61,-1
 1325 899 l 1,62,-1
 1325 498 l 2,63,64
 1325 344 1325 344 1272 258 c 128,-1,65
 1219 172 1219 172 1102 172 c 0,66,67
 987 172 987 172 929.5 258 c 128,-1,68
 872 344 872 344 872 498 c 2,69,-1
 872 670 l 9,9,-1
EndSplineSet
EndChar

